  0
SECTION
  2
HEADER
  9
$ACADVER
  1
AC1032
  9
$ACADMAINTVER
 90
      251
  9
$DWGCODEPAGE
  3
ANSI_1252
  9
$REQUIREDVERSIONS
160
                 0
  9
$INSBASE
 10
0.0
 20
0.0
 30
0.0
  9
$EXTMIN
 10
1.000000000000000E+20
 20
1.000000000000000E+20
 30
1.000000000000000E+20
  9
$EXTMAX
 10
-1.000000000000000E+20
 20
-1.000000000000000E+20
 30
-1.000000000000000E+20
  9
$LIMMIN
 10
0.0
 20
0.0
  9
$LIMMAX
 10
12.0
 20
9.0
  9
$ORTHOMODE
 70
     0
  9
$REGENMODE
 70
     1
  9
$FILLMODE
 70
     1
  9
$QTEXTMODE
 70
     0
  9
$MIRRTEXT
 70
     0
  9
$LTSCALE
 40
1.0
  9
$ATTMODE
 70
     1
  9
$TEXTSIZE
 40
0.2
  9
$TRACEWID
 40
0.05
  9
$TEXTSTYLE
  7
Standard
  9
$CLAYER
  8
0
  9
$CELTYPE
  6
ByLayer
  9
$CECOLOR
 62
   256
  9
$CELTSCALE
 40
1.0
  9
$DISPSILH
 70
     0
  9
$DIMSCALE
 40
1.0
  9
$DIMASZ
 40
0.18
  9
$DIMEXO
 40
0.0625
  9
$DIMDLI
 40
0.38
  9
$DIMRND
 40
0.0
  9
$DIMDLE
 40
0.0
  9
$DIMEXE
 40
0.18
  9
$DIMTP
 40
0.0
  9
$DIMTM
 40
0.0
  9
$DIMTXT
 40
0.18
  9
$DIMCEN
 40
0.09
  9
$DIMTSZ
 40
0.0
  9
$DIMTOL
 70
     0
  9
$DIMLIM
 70
     0
  9
$DIMTIH
 70
     1
  9
$DIMTOH
 70
     1
  9
$DIMSE1
 70
     0
  9
$DIMSE2
 70
     0
  9
$DIMTAD
 70
     0
  9
$DIMZIN
 70
     0
  9
$DIMBLK
  1

  9
$DIMASO
 70
     1
  9
$DIMSHO
 70
     1
  9
$DIMPOST
  1

  9
$DIMAPOST
  1

  9
$DIMALT
 70
     0
  9
$DIMALTD
 70
     2
  9
$DIMALTF
 40
25.4
  9
$DIMLFAC
 40
1.0
  9
$DIMTOFL
 70
     0
  9
$DIMTVP
 40
0.0
  9
$DIMTIX
 70
     0
  9
$DIMSOXD
 70
     0
  9
$DIMSAH
 70
     0
  9
$DIMBLK1
  1

  9
$DIMBLK2
  1

  9
$DIMSTYLE
  2
Standard
  9
$DIMCLRD
 70
     0
  9
$DIMCLRE
 70
     0
  9
$DIMCLRT
 70
     0
  9
$DIMTFAC
 40
1.0
  9
$DIMGAP
 40
0.09
  9
$DIMJUST
 70
     0
  9
$DIMSD1
 70
     0
  9
$DIMSD2
 70
     0
  9
$DIMTOLJ
 70
     1
  9
$DIMTZIN
 70
     0
  9
$DIMALTZ
 70
     0
  9
$DIMALTTZ
 70
     0
  9
$DIMUPT
 70
     0
  9
$DIMDEC
 70
     4
  9
$DIMTDEC
 70
     4
  9
$DIMALTU
 70
     2
  9
$DIMALTTD
 70
     2
  9
$DIMTXSTY
  7
Standard
  9
$DIMAUNIT
 70
     0
  9
$DIMADEC
 70
     0
  9
$DIMALTRND
 40
0.0
  9
$DIMAZIN
 70
     0
  9
$DIMDSEP
 70
    46
  9
$DIMATFIT
 70
     3
  9
$DIMFRAC
 70
     0
  9
$DIMLDRBLK
  1

  9
$DIMLUNIT
 70
     2
  9
$DIMLWD
 70
    -2
  9
$DIMLWE
 70
    -2
  9
$DIMTMOVE
 70
     0
  9
$DIMFXL
 40
1.0
  9
$DIMFXLON
 70
     0
  9
$DIMJOGANG
 40
0.7853981633974483
  9
$DIMTFILL
 70
     0
  9
$DIMTFILLCLR
 70
     0
  9
$DIMARCSYM
 70
     0
  9
$DIMLTYPE
  6

  9
$DIMLTEX1
  6

  9
$DIMLTEX2
  6

  9
$DIMTXTDIRECTION
 70
     0
  9
$LUNITS
 70
     2
  9
$LUPREC
 70
     4
  9
$SKETCHINC
 40
0.1
  9
$FILLETRAD
 40
0.0
  9
$AUNITS
 70
     0
  9
$AUPREC
 70
     0
  9
$MENU
  1
.
  9
$ELEVATION
 40
0.0
  9
$PELEVATION
 40
0.0
  9
$THICKNESS
 40
0.0
  9
$LIMCHECK
 70
     0
  9
$CHAMFERA
 40
0.0
  9
$CHAMFERB
 40
0.0
  9
$CHAMFERC
 40
0.0
  9
$CHAMFERD
 40
0.0
  9
$SKPOLY
 70
     0
  9
$TDCREATE
 40
2460496.752673611
  9
$TDUCREATE
 40
2460497.044340278
  9
$TDUPDATE
 40
2460496.752673611
  9
$TDUUPDATE
 40
2460497.044340278
  9
$TDINDWG
 40
0.0000000000
  9
$TDUSRTIMER
 40
0.0000000000
  9
$USRTIMER
 70
     1
  9
$ANGBASE
 50
0.0
  9
$ANGDIR
 70
     0
  9
$PDMODE
 70
     0
  9
$PDSIZE
 40
0.0
  9
$PLINEWID
 40
0.0
  9
$SPLFRAME
 70
     0
  9
$SPLINETYPE
 70
     6
  9
$SPLINESEGS
 70
     8
  9
$HANDSEED
  5
136
  9
$SURFTAB1
 70
     6
  9
$SURFTAB2
 70
     6
  9
$SURFTYPE
 70
     6
  9
$SURFU
 70
     6
  9
$SURFV
 70
     6
  9
$UCSBASE
  2

  9
$UCSNAME
  2

  9
$UCSORG
 10
0.0
 20
0.0
 30
0.0
  9
$UCSXDIR
 10
1.0
 20
0.0
 30
0.0
  9
$UCSYDIR
 10
0.0
 20
1.0
 30
0.0
  9
$UCSORTHOREF
  2

  9
$UCSORTHOVIEW
 70
     0
  9
$UCSORGTOP
 10
0.0
 20
0.0
 30
0.0
  9
$UCSORGBOTTOM
 10
0.0
 20
0.0
 30
0.0
  9
$UCSORGLEFT
 10
0.0
 20
0.0
 30
0.0
  9
$UCSORGRIGHT
 10
0.0
 20
0.0
 30
0.0
  9
$UCSORGFRONT
 10
0.0
 20
0.0
 30
0.0
  9
$UCSORGBACK
 10
0.0
 20
0.0
 30
0.0
  9
$PUCSBASE
  2

  9
$PUCSNAME
  2

  9
$PUCSORG
 10
0.0
 20
0.0
 30
0.0
  9
$PUCSXDIR
 10
1.0
 20
0.0
 30
0.0
  9
$PUCSYDIR
 10
0.0
 20
1.0
 30
0.0
  9
$PUCSORTHOREF
  2

  9
$PUCSORTHOVIEW
 70
     0
  9
$PUCSORGTOP
 10
0.0
 20
0.0
 30
0.0
  9
$PUCSORGBOTTOM
 10
0.0
 20
0.0
 30
0.0
  9
$PUCSORGLEFT
 10
0.0
 20
0.0
 30
0.0
  9
$PUCSORGRIGHT
 10
0.0
 20
0.0
 30
0.0
  9
$PUCSORGFRONT
 10
0.0
 20
0.0
 30
0.0
  9
$PUCSORGBACK
 10
0.0
 20
0.0
 30
0.0
  9
$USERI1
 70
     0
  9
$USERI2
 70
     0
  9
$USERI3
 70
     0
  9
$USERI4
 70
     0
  9
$USERI5
 70
     0
  9
$USERR1
 40
0.0
  9
$USERR2
 40
0.0
  9
$USERR3
 40
0.0
  9
$USERR4
 40
0.0
  9
$USERR5
 40
0.0
  9
$WORLDVIEW
 70
     1
  9
$SHADEDGE
 70
     3
  9
$SHADEDIF
 70
    70
  9
$TILEMODE
 70
     1
  9
$MAXACTVP
 70
    64
  9
$PINSBASE
 10
0.0
 20
0.0
 30
0.0
  9
$PLIMCHECK
 70
     0
  9
$PEXTMIN
 10
1.000000000000000E+20
 20
1.000000000000000E+20
 30
1.000000000000000E+20
  9
$PEXTMAX
 10
-1.000000000000000E+20
 20
-1.000000000000000E+20
 30
-1.000000000000000E+20
  9
$PLIMMIN
 10
0.0
 20
0.0
  9
$PLIMMAX
 10
12.0
 20
9.0
  9
$UNITMODE
 70
     0
  9
$VISRETAIN
 70
     1
  9
$PLINEGEN
 70
     0
  9
$PSLTSCALE
 70
     1
  9
$TREEDEPTH
 70
  3020
  9
$CMLSTYLE
  2
Standard
  9
$CMLJUST
 70
     0
  9
$CMLSCALE
 40
1.0
  9
$PROXYGRAPHICS
 70
     1
  9
$MEASUREMENT
 70
     0
  9
$CELWEIGHT
370
    -1
  9
$ENDCAPS
280
     0
  9
$JOINSTYLE
280
     0
  9
$LWDISPLAY
290
     1
  9
$INSUNITS
 70
     4
  9
$HYPERLINKBASE
  1

  9
$STYLESHEET
  1

  9
$XEDIT
290
     1
  9
$CEPSNTYPE
380
     0
  9
$PSTYLEMODE
290
     1
  9
$FINGERPRINTGUID
  2
{77310CF5-6E8C-2A4B-AC6D-B0561AF93815}
  9
$VERSIONGUID
  2
{3487362E-297F-5446-9338-D7318F963635}
  9
$EXTNAMES
290
     1
  9
$PSVPSCALE
 40
0.0
  9
$OLESTARTUP
290
     0
  9
$SORTENTS
280
   127
  9
$INDEXCTL
280
     0
  9
$HIDETEXT
280
     1
  9
$XCLIPFRAME
280
     2
  9
$HALOGAP
280
     0
  9
$OBSCOLOR
 70
   257
  9
$OBSLTYPE
280
     0
  9
$INTERSECTIONDISPLAY
280
     0
  9
$INTERSECTIONCOLOR
 70
   257
  9
$DIMASSOC
280
     2
  9
$PROJECTNAME
  1

  9
$CAMERADISPLAY
290
     0
  9
$LENSLENGTH
 40
50.0
  9
$CAMERAHEIGHT
 40
0.0
  9
$STEPSPERSEC
 40
2.0
  9
$STEPSIZE
 40
6.0
  9
$3DDWFPREC
 40
2.0
  9
$PSOLWIDTH
 40
0.25
  9
$PSOLHEIGHT
 40
4.0
  9
$LOFTANG1
 40
1.570796326794896
  9
$LOFTANG2
 40
1.570796326794896
  9
$LOFTMAG1
 40
0.0
  9
$LOFTMAG2
 40
0.0
  9
$LOFTPARAM
 70
     7
  9
$LOFTNORMALS
280
     1
  9
$LATITUDE
 40
37.795
  9
$LONGITUDE
 40
-122.394
  9
$NORTHDIRECTION
 40
0.0
  9
$TIMEZONE
 70
 -8000
  9
$LIGHTGLYPHDISPLAY
280
     1
  9
$TILEMODELIGHTSYNCH
280
     1
  9
$CMATERIAL
347
11
  9
$SOLIDHIST
280
     0
  9
$SHOWHIST
280
     1
  9
$DWFFRAME
280
     2
  9
$DGNFRAME
280
     0
  9
$REALWORLDSCALE
290
     1
  9
$INTERFERECOLOR
 62
     1
  9
$INTERFEREOBJVS
345
33
  9
$INTERFEREVPVS
346
30
  9
$CSHADOW
280
     0
  9
$SHADOWPLANELOCATION
 40
0.0
  0
ENDSEC
  0
SECTION
  2
CLASSES
  0
CLASS
  1
ACDBDICTIONARYWDFLT
  2
AcDbDictionaryWithDefault
  3
ObjectDBX Classes
 90
        0
 91
        1
280
     0
281
     0
  0
CLASS
  1
MATERIAL
  2
AcDbMaterial
  3
ObjectDBX Classes
 90
     1153
 91
        3
280
     0
281
     0
  0
CLASS
  1
VISUALSTYLE
  2
AcDbVisualStyle
  3
ObjectDBX Classes
 90
     4095
 91
       24
280
     0
281
     0
  0
CLASS
  1
SCALE
  2
AcDbScale
  3
ObjectDBX Classes
 90
     1153
 91
       17
280
     0
281
     0
  0
CLASS
  1
TABLESTYLE
  2
AcDbTableStyle
  3
ObjectDBX Classes
 90
     4095
 91
        1
280
     0
281
     0
  0
CLASS
  1
MLEADERSTYLE
  2
AcDbMLeaderStyle
  3
ACDB_MLEADERSTYLE_CLASS
 90
     4095
 91
        1
280
     0
281
     0
  0
CLASS
  1
ACDBSECTIONVIEWSTYLE
  2
AcDbSectionViewStyle
  3
ObjectDBX Classes
 90
     1025
 91
        1
280
     0
281
     0
  0
CLASS
  1
ACDBDETAILVIEWSTYLE
  2
AcDbDetailViewStyle
  3
ObjectDBX Classes
 90
     1025
 91
        1
280
     0
281
     0
  0
CLASS
  1
DICTIONARYVAR
  2
AcDbDictionaryVar
  3
ObjectDBX Classes
 90
        0
 91
        5
280
     0
281
     0
  0
CLASS
  1
CELLSTYLEMAP
  2
AcDbCellStyleMap
  3
ObjectDBX Classes
 90
     1152
 91
        1
280
     0
281
     0
  0
ENDSEC
  0
SECTION
  2
TABLES
  0
TABLE
  2
VPORT
  5
8
330
0
100
AcDbSymbolTable
 70
     1
  0
VPORT
  5
57
330
8
100
AcDbSymbolTableRecord
100
AcDbViewportTableRecord
  2
*Active
 70
     0
 10
0.0
 20
0.0
 11
1.0
 21
1.0
 12
0.0
 22
0.0
 13
0.0
 23
0.0
 14
1.0
 24
1.0
 15
0.0
 25
0.0
 16
0.0
 26
0.0
 36
1.0
 17
39.56142746046305
 27
462.1057470456547
 37
0.0
 40
159.0679267693584
 41
6.296874999999998
 42
50.0
 43
0.0
 44
0.0
 50
0.0
 51
0.0
 71
     0
 72
   100
 73
     1
 74
     1
 75
     0
 76
     0
 77
     0
 78
     0
281
     0
 65
     1
110
0.0
120
0.0
130
0.0
111
1.0
121
0.0
131
0.0
112
0.0
122
1.0
132
0.0
 79
     0
146
0.0
 60
     3
 61
     5
292
     1
282
     1
141
0.0
142
0.0
 63
   250
421
  3355443
  0
ENDTAB
  0
TABLE
  2
LTYPE
  5
5
330
0
100
AcDbSymbolTable
 70
     1
  0
LTYPE
  5
5B
330
5
100
AcDbSymbolTableRecord
100
AcDbLinetypeTableRecord
  2
ByBlock
 70
     0
  3

 72
    65
 73
     0
 40
0.0
  0
LTYPE
  5
5C
330
5
100
AcDbSymbolTableRecord
100
AcDbLinetypeTableRecord
  2
ByLayer
 70
     0
  3

 72
    65
 73
     0
 40
0.0
  0
LTYPE
  5
5D
330
5
100
AcDbSymbolTableRecord
100
AcDbLinetypeTableRecord
  2
Continuous
 70
     0
  3
Solid line
 72
    65
 73
     0
 40
0.0
  0
ENDTAB
  0
TABLE
  2
LAYER
  5
2
330
0
100
AcDbSymbolTable
 70
     2
  0
LAYER
  5
54
330
2
100
AcDbSymbolTableRecord
100
AcDbLayerTableRecord
  2
0
 70
     0
 62
     7
  6
Continuous
370
    -3
390
F
347
21
348
0
  0
LAYER
  5
78
330
2
100
AcDbSymbolTableRecord
100
AcDbLayerTableRecord
  2
Layer 1
 70
     0
 62
     7
  6
Continuous
370
     0
390
F
347
21
348
0
  0
ENDTAB
  0
TABLE
  2
STYLE
  5
3
330
0
100
AcDbSymbolTable
 70
     2
  0
STYLE
  5
55
330
3
100
AcDbSymbolTableRecord
100
AcDbTextStyleTableRecord
  2
Standard
 70
     0
 40
0.0
 41
1.0
 50
0.0
 71
     0
 42
0.2
  3
txt
  4

  0
STYLE
  5
5A
330
3
100
AcDbSymbolTableRecord
100
AcDbTextStyleTableRecord
  2
Annotative
 70
     0
 40
0.0
 41
1.0
 50
0.0
 71
     0
 42
0.2
  3
txt
  4

1001
AcadAnnotative
1000
AnnotativeData
1002
{
1070
     1
1070
     1
1002
}
  0
ENDTAB
  0
TABLE
  2
VIEW
  5
6
330
0
100
AcDbSymbolTable
 70
     0
  0
ENDTAB
  0
TABLE
  2
UCS
  5
7
330
0
100
AcDbSymbolTable
 70
     0
  0
ENDTAB
  0
TABLE
  2
APPID
  5
9
330
0
100
AcDbSymbolTable
 70
     2
  0
APPID
  5
56
330
9
100
AcDbSymbolTableRecord
100
AcDbRegAppTableRecord
  2
ACAD
 70
     0
  0
APPID
  5
5E
330
9
100
AcDbSymbolTableRecord
100
AcDbRegAppTableRecord
  2
AcadAnnotative
 70
     0
  0
ENDTAB
  0
TABLE
  2
DIMSTYLE
  5
A
330
0
100
AcDbSymbolTable
 70
     2
100
AcDbDimStyleTable
 71
     0
  0
DIMSTYLE
105
58
330
A
100
AcDbSymbolTableRecord
100
AcDbDimStyleTableRecord
  2
Standard
 70
     0
340
55
  0
DIMSTYLE
105
59
330
A
100
AcDbSymbolTableRecord
100
AcDbDimStyleTableRecord
  2
Annotative
 70
     0
340
55
1001
AcadAnnotative
1000
AnnotativeData
1002
{
1070
     1
1070
     1
1002
}
  0
ENDTAB
  0
TABLE
  2
BLOCK_RECORD
  5
1
330
0
100
AcDbSymbolTable
 70
     7
  0
BLOCK_RECORD
  5
70
330
1
100
AcDbSymbolTableRecord
100
AcDbBlockTableRecord
  2
*Model_Space
340
73
 70
     0
280
     1
281
     0
  0
BLOCK_RECORD
  5
6C
330
1
100
AcDbSymbolTableRecord
100
AcDbBlockTableRecord
  2
*Paper_Space
340
6F
 70
     0
280
     1
281
     0
  0
BLOCK_RECORD
  5
74
330
1
100
AcDbSymbolTableRecord
100
AcDbBlockTableRecord
  2
*Paper_Space0
340
77
 70
     0
280
     1
281
     0
  0
BLOCK_RECORD
  5
FE
330
1
100
AcDbSymbolTableRecord
100
AcDbBlockTableRecord
  2
Block_0
340
0
102
{BLKREFS
331
FF
102
}
 70
     0
280
     1
281
     0
  0
BLOCK_RECORD
  5
102
330
1
100
AcDbSymbolTableRecord
100
AcDbBlockTableRecord
  2
Block_1
340
0
102
{BLKREFS
331
103
102
}
 70
     0
280
     1
281
     0
  0
BLOCK_RECORD
  5
10A
330
1
100
AcDbSymbolTableRecord
100
AcDbBlockTableRecord
  2
Block_2
340
0
102
{BLKREFS
331
10B
102
}
 70
     0
280
     1
281
     0
  0
BLOCK_RECORD
  5
114
330
1
100
AcDbSymbolTableRecord
100
AcDbBlockTableRecord
  2
Block_3
340
0
102
{BLKREFS
331
115
102
}
 70
     0
280
     1
281
     0
  0
BLOCK_RECORD
  5
11C
330
1
100
AcDbSymbolTableRecord
100
AcDbBlockTableRecord
  2
Block_4
340
0
102
{BLKREFS
331
11D
102
}
 70
     0
280
     1
281
     0
  0
BLOCK_RECORD
  5
124
330
1
100
AcDbSymbolTableRecord
100
AcDbBlockTableRecord
  2
Block_5
340
0
102
{BLKREFS
331
125
102
}
 70
     0
280
     1
281
     0
  0
ENDTAB
  0
ENDSEC
  0
SECTION
  2
BLOCKS
  0
BLOCK
  5
71
330
70
100
AcDbEntity
  8
0
100
AcDbBlockBegin
  2
*Model_Space
 70
     0
 10
0.0
 20
0.0
 30
0.0
  3
*Model_Space
  1

  0
ENDBLK
  5
72
330
70
100
AcDbEntity
  8
0
100
AcDbBlockEnd
  0
BLOCK
  5
6D
330
6C
100
AcDbEntity
 67
     1
  8
0
100
AcDbBlockBegin
  2
*Paper_Space
 70
     0
 10
0.0
 20
0.0
 30
0.0
  3
*Paper_Space
  1

  0
ENDBLK
  5
6E
330
6C
100
AcDbEntity
 67
     1
  8
0
100
AcDbBlockEnd
  0
BLOCK
  5
75
330
74
100
AcDbEntity
 67
     1
  8
0
100
AcDbBlockBegin
  2
*Paper_Space0
 70
     0
 10
0.0
 20
0.0
 30
0.0
  3
*Paper_Space0
  1

  0
ENDBLK
  5
76
330
74
100
AcDbEntity
 67
     1
  8
0
100
AcDbBlockEnd
  0
BLOCK
  5
100
330
FE
100
AcDbEntity
  8
0
100
AcDbBlockBegin
  2
Block_0
 70
     0
 10
0.0
 20
0.0
 30
0.0
  3
Block_0
  1

  0
INSERT
  5
103
330
FE
100
AcDbEntity
  8
Layer 1
100
AcDbBlockReference
  2
Block_1
 10
0.0
 20
0.0
 30
0.0
  0
ENDBLK
  5
101
330
FE
100
AcDbEntity
  8
0
100
AcDbBlockEnd
  0
BLOCK
  5
104
330
102
100
AcDbEntity
  8
0
100
AcDbBlockBegin
  2
Block_1
 70
     0
 10
0.0
 20
0.0
 30
0.0
  3
Block_1
  1

  0
LWPOLYLINE
  5
106
330
102
100
AcDbEntity
  8
Layer 1
100
AcDbPolyline
 90
        6
 70
     1
 43
0.0
 10
-87.46384522529401
 20
442.031086895884
 10
-94.35031236444173
 20
442.031086895884
 10
-94.35031236444173
 20
456.7657055500574
 10
-112.7377624649852
 20
476.1215650920425
 10
-107.7455221268063
 20
480.8649780042951
 10
-87.46384522529401
 20
459.5151365221173
  0
HATCH
  5
107
330
102
100
AcDbEntity
  8
Layer 1
 62
   253
440
 33554687
100
AcDbHatch
 10
0.0
 20
0.0
 30
0.0
210
0.0
220
0.0
230
1.0
  2
SOLID
 70
     1
 71
     1
 91
        1
 92
        1
 93
        6
 72
     1
 10
-87.46384522529401
 20
442.031086895884
 11
-94.35031236444173
 21
442.031086895884
 72
     1
 10
-94.35031236444173
 20
442.031086895884
 11
-94.35031236444173
 21
456.7657055500574
 72
     1
 10
-94.35031236444173
 20
456.7657055500574
 11
-112.7377624649852
 21
476.1215650920425
 72
     1
 10
-112.7377624649852
 20
476.1215650920425
 11
-107.7455221268063
 21
480.8649780042951
 72
     1
 10
-107.7455221268063
 20
480.8649780042951
 11
-87.46384522529401
 21
459.5151365221173
 72
     1
 10
-87.46384522529401
 20
459.5151365221173
 11
-87.46384522529401
 21
442.031086895884
 97
        1
330
106
 75
     2
 76
     1
 98
        1
 10
0.0
 20
0.0
450
        0
451
        0
460
0.0
461
0.0
452
        0
462
0.0
453
        0
470

  0
LWPOLYLINE
  5
108
330
102
100
AcDbEntity
  8
Layer 1
100
AcDbPolyline
 90
        4
 70
     1
 43
0.0
 10
29.60609614023131
 20
442.031086895884
 10
22.71962900108038
 20
442.031086895884
 10
22.71962900108038
 20
474.2491947541605
 10
29.60609614023131
 20
474.2491947541605
  0
HATCH
  5
109
330
102
100
AcDbEntity
  8
Layer 1
 62
   253
440
 33554687
100
AcDbHatch
 10
0.0
 20
0.0
 30
0.0
210
0.0
220
0.0
230
1.0
  2
SOLID
 70
     1
 71
     1
 91
        1
 92
        1
 93
        4
 72
     1
 10
29.60609614023131
 20
442.031086895884
 11
22.71962900108038
 21
442.031086895884
 72
     1
 10
22.71962900108038
 20
442.031086895884
 11
22.71962900108038
 21
474.2491947541605
 72
     1
 10
22.71962900108038
 20
474.2491947541605
 11
29.60609614023131
 21
474.2491947541605
 72
     1
 10
29.60609614023131
 20
474.2491947541605
 11
29.60609614023131
 21
442.031086895884
 97
        1
330
108
 75
     2
 76
     1
 98
        1
 10
0.0
 20
0.0
450
        0
451
        0
460
0.0
461
0.0
452
        0
462
0.0
453
        0
470

  0
INSERT
  5
10B
330
102
100
AcDbEntity
  8
Layer 1
100
AcDbBlockReference
  2
Block_2
 10
0.0
 20
0.0
 30
0.0
  0
INSERT
  5
115
330
102
100
AcDbEntity
  8
Layer 1
100
AcDbBlockReference
  2
Block_3
 10
0.0
 20
0.0
 30
0.0
  0
INSERT
  5
11D
330
102
100
AcDbEntity
  8
Layer 1
100
AcDbBlockReference
  2
Block_4
 10
0.0
 20
0.0
 30
0.0
  0
INSERT
  5
125
330
102
100
AcDbEntity
  8
Layer 1
100
AcDbBlockReference
  2
Block_5
 10
0.0
 20
0.0
 30
0.0
  0
LWPOLYLINE
  5
12C
330
102
100
AcDbEntity
  8
Layer 1
100
AcDbPolyline
 90
        4
 70
     1
 43
0.0
 10
81.25446422935812
 20
474.2490701781389
 10
-139.11248422339
 20
474.2490701781389
 10
-139.11248422339
 20
442.0312573261488
 10
81.25446422935812
 20
442.0312573261488
  0
ENDBLK
  5
105
330
102
100
AcDbEntity
  8
0
100
AcDbBlockEnd
  0
BLOCK
  5
10C
330
10A
100
AcDbEntity
  8
0
100
AcDbBlockBegin
  2
Block_2
 70
     0
 10
0.0
 20
0.0
 30
0.0
  3
Block_2
  1

  0
SPLINE
  5
10E
330
10A
100
AcDbEntity
  8
Layer 1
100
AcDbSpline
210
0.0
220
0.0
230
1.0
 70
     9
 71
     3
 72
    29
 73
    25
 74
     0
 42
0.0000000001
 43
0.0000000001
 40
0.0
 40
0.0
 40
0.0
 40
0.0
 40
1.0
 40
1.0
 40
1.0
 40
2.0
 40
2.0
 40
2.0
 40
3.0
 40
3.0
 40
3.0
 40
4.0
 40
4.0
 40
4.0
 40
5.0
 40
5.0
 40
5.0
 40
6.0
 40
6.0
 40
6.0
 40
7.0
 40
7.0
 40
7.0
 40
8.0
 40
8.0
 40
8.0
 40
8.0
 10
-43.63336069406162
 20
462.2087439243955
 30
0.0
 10
-43.63336069406162
 20
462.2087439243955
 30
0.0
 10
-48.3951372442186
 20
467.3627276150128
 30
0.0
 10
-48.3951372442186
 20
467.3627276150128
 30
0.0
 10
-48.3951372442186
 20
467.3627276150128
 30
0.0
 10
-77.13414451657114
 20
467.3627276150128
 30
0.0
 10
-77.13414451657114
 20
467.3627276150128
 30
0.0
 10
-77.13414451657114
 20
467.3627276150128
 30
0.0
 10
-77.13414451657114
 20
474.2491947541605
 30
0.0
 10
-77.13414451657114
 20
474.2491947541605
 30
0.0
 10
-77.13414451657114
 20
474.2491947541605
 30
0.0
 10
-45.38118702657834
 20
474.2491947541605
 30
0.0
 10
-45.38118702657834
 20
474.2491947541605
 30
0.0
 10
-45.38118702657834
 20
474.2491947541605
 30
0.0
 10
-38.57507318656153
 20
466.8818238153583
 30
0.0
 10
-38.57507318656153
 20
466.8818238153583
 30
0.0
 10
-38.63779619646473
 20
465.2983352226085
 30
0.0
 10
-38.67296172221421
 20
464.4105556188086
 30
0.0
 10
-38.73568473211676
 20
462.8270670260594
 30
0.0
 10
-38.73568473211676
 20
462.8270670260594
 30
0.0
 10
-39.57878531334037
 20
462.0482311467963
 30
0.0
 10
-39.57878531334037
 20
462.0482311467963
 30
0.0
 10
-41.16217313278556
 20
462.1109144004171
 30
0.0
 10
-42.04997287461321
 20
462.1460606707744
 30
0.0
 10
-43.63336069406162
 20
462.2087439243955
 30
0.0
  0
HATCH
  5
10F
330
10A
100
AcDbEntity
  8
Layer 1
 62
   253
440
 33554687
100
AcDbHatch
 10
0.0
 20
0.0
 30
0.0
210
0.0
220
0.0
230
1.0
  2
SOLID
 70
     1
 71
     1
 91
        1
 92
        1
 93
        1
 72
     4
 94
        3
 73
     0
 74
     0
 95
       29
 96
       25
 40
0.0
 40
0.0
 40
0.0
 40
0.0
 40
1.0
 40
1.0
 40
1.0
 40
2.0
 40
2.0
 40
2.0
 40
3.0
 40
3.0
 40
3.0
 40
4.0
 40
4.0
 40
4.0
 40
5.0
 40
5.0
 40
5.0
 40
6.0
 40
6.0
 40
6.0
 40
7.0
 40
7.0
 40
7.0
 40
8.0
 40
8.0
 40
8.0
 40
8.0
 10
-43.63336069406162
 20
462.2087439243955
 10
-43.63336069406162
 20
462.2087439243955
 10
-48.3951372442186
 20
467.3627276150128
 10
-48.3951372442186
 20
467.3627276150128
 10
-48.3951372442186
 20
467.3627276150128
 10
-77.13414451657114
 20
467.3627276150128
 10
-77.13414451657114
 20
467.3627276150128
 10
-77.13414451657114
 20
467.3627276150128
 10
-77.13414451657114
 20
474.2491947541605
 10
-77.13414451657114
 20
474.2491947541605
 10
-77.13414451657114
 20
474.2491947541605
 10
-45.38118702657834
 20
474.2491947541605
 10
-45.38118702657834
 20
474.2491947541605
 10
-45.38118702657834
 20
474.2491947541605
 10
-38.57507318656153
 20
466.8818238153583
 10
-38.57507318656153
 20
466.8818238153583
 10
-38.63779619646473
 20
465.2983352226085
 10
-38.67296172221421
 20
464.4105556188086
 10
-38.73568473211676
 20
462.8270670260594
 10
-38.73568473211676
 20
462.8270670260594
 10
-39.57878531334037
 20
462.0482311467963
 10
-39.57878531334037
 20
462.0482311467963
 10
-41.16217313278556
 20
462.1109144004171
 10
-42.04997287461321
 20
462.1460606707744
 10
-43.63336069406162
 20
462.2087439243955
 97
        0
 97
        1
330
10E
 75
     2
 76
     1
 98
        1
 10
0.0
 20
0.0
450
        0
451
        0
460
0.0
461
0.0
452
        0
462
0.0
453
        0
470

  0
SPLINE
  5
110
330
10A
100
AcDbEntity
  8
Layer 1
100
AcDbSpline
210
0.0
220
0.0
230
1.0
 70
    11
 71
     3
 72
    29
 73
    25
 74
     0
 42
0.0000000001
 43
0.0000000001
 40
0.0
 40
0.0
 40
0.0
 40
0.0
 40
1.0
 40
1.0
 40
1.0
 40
2.0
 40
2.0
 40
2.0
 40
3.0
 40
3.0
 40
3.0
 40
4.0
 40
4.0
 40
4.0
 40
5.0
 40
5.0
 40
5.0
 40
6.0
 40
6.0
 40
6.0
 40
7.0
 40
7.0
 40
7.0
 40
8.0
 40
8.0
 40
8.0
 40
8.0
 10
-45.38118702657834
 20
442.031086895884
 30
0.0
 10
-45.38118702657834
 20
442.031086895884
 30
0.0
 10
-77.13414451657114
 20
442.031086895884
 30
0.0
 10
-77.13414451657114
 20
442.031086895884
 30
0.0
 10
-77.13414451657114
 20
442.031086895884
 30
0.0
 10
-77.13414451657114
 20
448.9175540350323
 30
0.0
 10
-77.13414451657114
 20
448.9175540350323
 30
0.0
 10
-77.13414451657114
 20
448.9175540350323
 30
0.0
 10
-48.3951372442186
 20
448.9175540350323
 30
0.0
 10
-48.3951372442186
 20
448.9175540350323
 30
0.0
 10
-48.3951372442186
 20
448.9175540350323
 30
0.0
 10
-43.63336069406162
 20
454.0715377256478
 30
0.0
 10
-43.63336069406162
 20
454.0715377256478
 30
0.0
 10
-42.04997287461321
 20
454.1342209792698
 30
0.0
 10
-41.16217313278877
 20
454.1693672496255
 30
0.0
 10
-39.57878531334037
 20
454.2320505032482
 30
0.0
 10
-39.57878531334037
 20
454.2320505032482
 30
0.0
 10
-38.73568473212061
 20
453.4532146239858
 30
0.0
 10
-38.73568473212061
 20
453.4532146239858
 30
0.0
 10
-38.67296172221421
 20
451.869726031236
 30
0.0
 10
-38.63779619646793
 20
450.9819464274366
 30
0.0
 10
-38.57507318656153
 20
449.3984578346849
 30
0.0
 10
-38.57507318656153
 20
449.3984578346849
 30
0.0
 10
-45.38118702657834
 20
442.031086895884
 30
0.0
 10
-45.38118702657834
 20
442.031086895884
 30
0.0
  0
HATCH
  5
111
330
10A
100
AcDbEntity
  8
Layer 1
 62
   253
440
 33554687
100
AcDbHatch
 10
0.0
 20
0.0
 30
0.0
210
0.0
220
0.0
230
1.0
  2
SOLID
 70
     1
 71
     1
 91
        1
 92
        1
 93
        1
 72
     4
 94
        3
 73
     0
 74
     0
 95
       29
 96
       25
 40
0.0
 40
0.0
 40
0.0
 40
0.0
 40
1.0
 40
1.0
 40
1.0
 40
2.0
 40
2.0
 40
2.0
 40
3.0
 40
3.0
 40
3.0
 40
4.0
 40
4.0
 40
4.0
 40
5.0
 40
5.0
 40
5.0
 40
6.0
 40
6.0
 40
6.0
 40
7.0
 40
7.0
 40
7.0
 40
8.0
 40
8.0
 40
8.0
 40
8.0
 10
-45.38118702657834
 20
442.031086895884
 10
-45.38118702657834
 20
442.031086895884
 10
-77.13414451657114
 20
442.031086895884
 10
-77.13414451657114
 20
442.031086895884
 10
-77.13414451657114
 20
442.031086895884
 10
-77.13414451657114
 20
448.9175540350323
 10
-77.13414451657114
 20
448.9175540350323
 10
-77.13414451657114
 20
448.9175540350323
 10
-48.3951372442186
 20
448.9175540350323
 10
-48.3951372442186
 20
448.9175540350323
 10
-48.3951372442186
 20
448.9175540350323
 10
-43.63336069406162
 20
454.0715377256478
 10
-43.63336069406162
 20
454.0715377256478
 10
-42.04997287461321
 20
454.1342209792698
 10
-41.16217313278877
 20
454.1693672496255
 10
-39.57878531334037
 20
454.2320505032482
 10
-39.57878531334037
 20
454.2320505032482
 10
-38.73568473212061
 20
453.4532146239858
 10
-38.73568473212061
 20
453.4532146239858
 10
-38.67296172221421
 20
451.869726031236
 10
-38.63779619646793
 20
450.9819464274366
 10
-38.57507318656153
 20
449.3984578346849
 10
-38.57507318656153
 20
449.3984578346849
 10
-45.38118702657834
 20
442.031086895884
 10
-45.38118702657834
 20
442.031086895884
 97
        0
 97
        1
330
110
 75
     2
 76
     1
 98
        1
 10
0.0
 20
0.0
450
        0
451
        0
460
0.0
461
0.0
452
        0
462
0.0
453
        0
470

  0
SPLINE
  5
112
330
10A
100
AcDbEntity
  8
Layer 1
100
AcDbSpline
210
0.0
220
0.0
230
1.0
 70
     9
 71
     3
 72
    23
 73
    19
 74
     0
 42
0.0000000001
 43
0.0000000001
 40
0.0
 40
0.0
 40
0.0
 40
0.0
 40
1.0
 40
1.0
 40
1.0
 40
2.0
 40
2.0
 40
2.0
 40
3.0
 40
3.0
 40
3.0
 40
4.0
 40
4.0
 40
4.0
 40
5.0
 40
5.0
 40
5.0
 40
6.0
 40
6.0
 40
6.0
 40
6.0
 10
-49.75752344337647
 20
454.6971874665128
 30
0.0
 10
-49.75752344337647
 20
454.6971874665128
 30
0.0
 10
-77.13414451657114
 20
454.6971874665128
 30
0.0
 10
-77.13414451657114
 20
454.6971874665128
 30
0.0
 10
-77.13414451657114
 20
454.6971874665128
 30
0.0
 10
-77.13414451657114
 20
461.5836546056619
 30
0.0
 10
-77.13414451657114
 20
461.5836546056619
 30
0.0
 10
-77.13414451657114
 20
461.5836546056619
 30
0.0
 10
-49.75752344337647
 20
461.5836546056619
 30
0.0
 10
-49.75752344337647
 20
461.5836546056619
 30
0.0
 10
-48.63696815079931
 20
460.4630993130847
 30
0.0
 10
-48.00871742797435
 20
459.8348485902597
 30
0.0
 10
-46.88816213539655
 20
458.7142932976832
 30
0.0
 10
-46.88816213539655
 20
458.7142932976832
 30
0.0
 10
-46.88816213539655
 20
457.5665487744915
 30
0.0
 10
-46.88816213539655
 20
457.5665487744915
 30
0.0
 10
-48.00871742797435
 20
456.4459934819144
 30
0.0
 10
-48.63696815079931
 20
455.8177427590893
 30
0.0
 10
-49.75752344337647
 20
454.6971874665128
 30
0.0
  0
HATCH
  5
113
330
10A
100
AcDbEntity
  8
Layer 1
 62
   253
440
 33554687
100
AcDbHatch
 10
0.0
 20
0.0
 30
0.0
210
0.0
220
0.0
230
1.0
  2
SOLID
 70
     1
 71
     1
 91
        1
 92
        1
 93
        1
 72
     4
 94
        3
 73
     0
 74
     0
 95
       23
 96
       19
 40
0.0
 40
0.0
 40
0.0
 40
0.0
 40
1.0
 40
1.0
 40
1.0
 40
2.0
 40
2.0
 40
2.0
 40
3.0
 40
3.0
 40
3.0
 40
4.0
 40
4.0
 40
4.0
 40
5.0
 40
5.0
 40
5.0
 40
6.0
 40
6.0
 40
6.0
 40
6.0
 10
-49.75752344337647
 20
454.6971874665128
 10
-49.75752344337647
 20
454.6971874665128
 10
-77.13414451657114
 20
454.6971874665128
 10
-77.13414451657114
 20
454.6971874665128
 10
-77.13414451657114
 20
454.6971874665128
 10
-77.13414451657114
 20
461.5836546056619
 10
-77.13414451657114
 20
461.5836546056619
 10
-77.13414451657114
 20
461.5836546056619
 10
-49.75752344337647
 20
461.5836546056619
 10
-49.75752344337647
 20
461.5836546056619
 10
-48.63696815079931
 20
460.4630993130847
 10
-48.00871742797435
 20
459.8348485902597
 10
-46.88816213539655
 20
458.7142932976832
 10
-46.88816213539655
 20
458.7142932976832
 10
-46.88816213539655
 20
457.5665487744915
 10
-46.88816213539655
 20
457.5665487744915
 10
-48.00871742797435
 20
456.4459934819144
 10
-48.63696815079931
 20
455.8177427590893
 10
-49.75752344337647
 20
454.6971874665128
 97
        0
 97
        1
330
112
 75
     2
 76
     1
 98
        1
 10
0.0
 20
0.0
450
        0
451
        0
460
0.0
461
0.0
452
        0
462
0.0
453
        0
470

  0
ENDBLK
  5
10D
330
10A
100
AcDbEntity
  8
0
100
AcDbBlockEnd
  0
BLOCK
  5
116
330
114
100
AcDbEntity
  8
0
100
AcDbBlockBegin
  2
Block_3
 70
     0
 10
0.0
 20
0.0
 30
0.0
  3
Block_3
  1

  0
SPLINE
  5
118
330
114
100
AcDbEntity
  8
Layer 1
100
AcDbSpline
210
0.0
220
0.0
230
1.0
 70
     9
 71
     3
 72
    29
 73
    25
 74
     0
 42
0.0000000001
 43
0.0000000001
 40
0.0
 40
0.0
 40
0.0
 40
0.0
 40
1.0
 40
1.0
 40
1.0
 40
2.0
 40
2.0
 40
2.0
 40
3.0
 40
3.0
 40
3.0
 40
4.0
 40
4.0
 40
4.0
 40
5.0
 40
5.0
 40
5.0
 40
6.0
 40
6.0
 40
6.0
 40
7.0
 40
7.0
 40
7.0
 40
8.0
 40
8.0
 40
8.0
 40
8.0
 10
73.4365806714669
 20
462.2087439243968
 30
0.0
 10
73.4365806714669
 20
462.2087439243968
 30
0.0
 10
68.67480412130671
 20
467.3627276150128
 30
0.0
 10
68.67480412130671
 20
467.3627276150128
 30
0.0
 10
68.67480412130671
 20
467.3627276150128
 30
0.0
 10
39.93579684895481
 20
467.3627276150128
 30
0.0
 10
39.93579684895481
 20
467.3627276150128
 30
0.0
 10
39.93579684895481
 20
467.3627276150128
 30
0.0
 10
39.93579684895481
 20
474.2491947541605
 30
0.0
 10
39.93579684895481
 20
474.2491947541605
 30
0.0
 10
39.93579684895481
 20
474.2491947541605
 30
0.0
 10
71.68875433894696
 20
474.2491947541605
 30
0.0
 10
71.68875433894696
 20
474.2491947541605
 30
0.0
 10
71.68875433894696
 20
474.2491947541605
 30
0.0
 10
78.49486817895993
 20
466.8818238153583
 30
0.0
 10
78.49486817895993
 20
466.8818238153583
 30
0.0
 10
78.43214516905738
 20
465.2983352226085
 30
0.0
 10
78.39697964330724
 20
464.4105556188086
 30
0.0
 10
78.33425663340854
 20
462.8270670260574
 30
0.0
 10
78.33425663340854
 20
462.8270670260574
 30
0.0
 10
77.49115605218431
 20
462.0482311467982
 30
0.0
 10
77.49115605218431
 20
462.0482311467982
 30
0.0
 10
75.90776823273653
 20
462.1109144004184
 30
0.0
 10
75.0199684909121
 20
462.1460606707747
 30
0.0
 10
73.4365806714669
 20
462.2087439243968
 30
0.0
  0
HATCH
  5
119
330
114
100
AcDbEntity
  8
Layer 1
 62
   253
440
 33554687
100
AcDbHatch
 10
0.0
 20
0.0
 30
0.0
210
0.0
220
0.0
230
1.0
  2
SOLID
 70
     1
 71
     1
 91
        1
 92
        1
 93
        1
 72
     4
 94
        3
 73
     0
 74
     0
 95
       29
 96
       25
 40
0.0
 40
0.0
 40
0.0
 40
0.0
 40
1.0
 40
1.0
 40
1.0
 40
2.0
 40
2.0
 40
2.0
 40
3.0
 40
3.0
 40
3.0
 40
4.0
 40
4.0
 40
4.0
 40
5.0
 40
5.0
 40
5.0
 40
6.0
 40
6.0
 40
6.0
 40
7.0
 40
7.0
 40
7.0
 40
8.0
 40
8.0
 40
8.0
 40
8.0
 10
73.4365806714669
 20
462.2087439243968
 10
73.4365806714669
 20
462.2087439243968
 10
68.67480412130671
 20
467.3627276150128
 10
68.67480412130671
 20
467.3627276150128
 10
68.67480412130671
 20
467.3627276150128
 10
39.93579684895481
 20
467.3627276150128
 10
39.93579684895481
 20
467.3627276150128
 10
39.93579684895481
 20
467.3627276150128
 10
39.93579684895481
 20
474.2491947541605
 10
39.93579684895481
 20
474.2491947541605
 10
39.93579684895481
 20
474.2491947541605
 10
71.68875433894696
 20
474.2491947541605
 10
71.68875433894696
 20
474.2491947541605
 10
71.68875433894696
 20
474.2491947541605
 10
78.49486817895993
 20
466.8818238153583
 10
78.49486817895993
 20
466.8818238153583
 10
78.43214516905738
 20
465.2983352226085
 10
78.39697964330724
 20
464.4105556188086
 10
78.33425663340854
 20
462.8270670260574
 10
78.33425663340854
 20
462.8270670260574
 10
77.49115605218431
 20
462.0482311467982
 10
77.49115605218431
 20
462.0482311467982
 10
75.90776823273653
 20
462.1109144004184
 10
75.0199684909121
 20
462.1460606707747
 10
73.4365806714669
 20
462.2087439243968
 97
        0
 97
        1
330
118
 75
     2
 76
     1
 98
        1
 10
0.0
 20
0.0
450
        0
451
        0
460
0.0
461
0.0
452
        0
462
0.0
453
        0
470

  0
SPLINE
  5
11A
330
114
100
AcDbEntity
  8
Layer 1
100
AcDbSpline
210
0.0
220
0.0
230
1.0
 70
    11
 71
     3
 72
    29
 73
    25
 74
     0
 42
0.0000000001
 43
0.0000000001
 40
0.0
 40
0.0
 40
0.0
 40
0.0
 40
1.0
 40
1.0
 40
1.0
 40
2.0
 40
2.0
 40
2.0
 40
3.0
 40
3.0
 40
3.0
 40
4.0
 40
4.0
 40
4.0
 40
5.0
 40
5.0
 40
5.0
 40
6.0
 40
6.0
 40
6.0
 40
7.0
 40
7.0
 40
7.0
 40
8.0
 40
8.0
 40
8.0
 40
8.0
 10
71.68875433894696
 20
442.031086895884
 30
0.0
 10
71.68875433894696
 20
442.031086895884
 30
0.0
 10
39.93579684895481
 20
442.031086895884
 30
0.0
 10
39.93579684895481
 20
442.031086895884
 30
0.0
 10
39.93579684895481
 20
442.031086895884
 30
0.0
 10
39.93579684895481
 20
448.9175540350323
 30
0.0
 10
39.93579684895481
 20
448.9175540350323
 30
0.0
 10
39.93579684895481
 20
448.9175540350323
 30
0.0
 10
68.67480412130671
 20
448.9175540350323
 30
0.0
 10
68.67480412130671
 20
448.9175540350323
 30
0.0
 10
68.67480412130671
 20
448.9175540350323
 30
0.0
 10
73.4365806714669
 20
454.0715377256478
 30
0.0
 10
73.4365806714669
 20
454.0715377256478
 30
0.0
 10
75.0199684909121
 20
454.1342209792679
 30
0.0
 10
75.90776823273653
 20
454.1693672496255
 30
0.0
 10
77.49115605218431
 20
454.2320505032476
 30
0.0
 10
77.49115605218431
 20
454.2320505032476
 30
0.0
 10
78.33425663340854
 20
453.4532146239858
 30
0.0
 10
78.33425663340854
 20
453.4532146239858
 30
0.0
 10
78.39697964330724
 20
451.869726031236
 30
0.0
 10
78.43214516905738
 20
450.9819464274366
 30
0.0
 10
78.49486817895993
 20
449.3984578346849
 30
0.0
 10
78.49486817895993
 20
449.3984578346849
 30
0.0
 10
71.68875433894696
 20
442.031086895884
 30
0.0
 10
71.68875433894696
 20
442.031086895884
 30
0.0
  0
HATCH
  5
11B
330
114
100
AcDbEntity
  8
Layer 1
 62
   253
440
 33554687
100
AcDbHatch
 10
0.0
 20
0.0
 30
0.0
210
0.0
220
0.0
230
1.0
  2
SOLID
 70
     1
 71
     1
 91
        1
 92
        1
 93
        1
 72
     4
 94
        3
 73
     0
 74
     0
 95
       29
 96
       25
 40
0.0
 40
0.0
 40
0.0
 40
0.0
 40
1.0
 40
1.0
 40
1.0
 40
2.0
 40
2.0
 40
2.0
 40
3.0
 40
3.0
 40
3.0
 40
4.0
 40
4.0
 40
4.0
 40
5.0
 40
5.0
 40
5.0
 40
6.0
 40
6.0
 40
6.0
 40
7.0
 40
7.0
 40
7.0
 40
8.0
 40
8.0
 40
8.0
 40
8.0
 10
71.68875433894696
 20
442.031086895884
 10
71.68875433894696
 20
442.031086895884
 10
39.93579684895481
 20
442.031086895884
 10
39.93579684895481
 20
442.031086895884
 10
39.93579684895481
 20
442.031086895884
 10
39.93579684895481
 20
448.9175540350323
 10
39.93579684895481
 20
448.9175540350323
 10
39.93579684895481
 20
448.9175540350323
 10
68.67480412130671
 20
448.9175540350323
 10
68.67480412130671
 20
448.9175540350323
 10
68.67480412130671
 20
448.9175540350323
 10
73.4365806714669
 20
454.0715377256478
 10
73.4365806714669
 20
454.0715377256478
 10
75.0199684909121
 20
454.1342209792679
 10
75.90776823273653
 20
454.1693672496255
 10
77.49115605218431
 20
454.2320505032476
 10
77.49115605218431
 20
454.2320505032476
 10
78.33425663340854
 20
453.4532146239858
 10
78.33425663340854
 20
453.4532146239858
 10
78.39697964330724
 20
451.869726031236
 10
78.43214516905738
 20
450.9819464274366
 10
78.49486817895993
 20
449.3984578346849
 10
78.49486817895993
 20
449.3984578346849
 10
71.68875433894696
 20
442.031086895884
 10
71.68875433894696
 20
442.031086895884
 97
        0
 97
        1
330
11A
 75
     2
 76
     1
 98
        1
 10
0.0
 20
0.0
450
        0
451
        0
460
0.0
461
0.0
452
        0
462
0.0
453
        0
470

  0
ENDBLK
  5
117
330
114
100
AcDbEntity
  8
0
100
AcDbBlockEnd
  0
BLOCK
  5
11E
330
11C
100
AcDbEntity
  8
0
100
AcDbBlockBegin
  2
Block_4
 70
     0
 10
0.0
 20
0.0
 30
0.0
  3
Block_4
  1

  0
SPLINE
  5
120
330
11C
100
AcDbEntity
  8
Layer 1
100
AcDbSpline
210
0.0
220
0.0
230
1.0
 70
     9
 71
     3
 72
    29
 73
    25
 74
     0
 42
0.0000000001
 43
0.0000000001
 40
0.0
 40
0.0
 40
0.0
 40
0.0
 40
1.0
 40
1.0
 40
1.0
 40
2.0
 40
2.0
 40
2.0
 40
3.0
 40
3.0
 40
3.0
 40
4.0
 40
4.0
 40
4.0
 40
5.0
 40
5.0
 40
5.0
 40
6.0
 40
6.0
 40
6.0
 40
7.0
 40
7.0
 40
7.0
 40
8.0
 40
8.0
 40
8.0
 40
8.0
 10
4.571909279976893
 20
462.2087439243968
 30
0.0
 10
4.571909279976893
 20
462.2087439243968
 30
0.0
 10
-0.1898672701762368
 20
467.3627276150128
 30
0.0
 10
-0.1898672701762368
 20
467.3627276150128
 30
0.0
 10
-0.1898672701762368
 20
467.3627276150128
 30
0.0
 10
-28.92887454253135
 20
467.3627276150128
 30
0.0
 10
-28.92887454253135
 20
467.3627276150128
 30
0.0
 10
-28.92887454253135
 20
467.3627276150128
 30
0.0
 10
-28.92887454253135
 20
474.2491947541605
 30
0.0
 10
-28.92887454253135
 20
474.2491947541605
 30
0.0
 10
-28.92887454253135
 20
474.2491947541605
 30
0.0
 10
2.824082947460166
 20
474.2491947541605
 30
0.0
 10
2.824082947460166
 20
474.2491947541605
 30
0.0
 10
2.824082947460166
 20
474.2491947541605
 30
0.0
 10
9.630196787476986
 20
466.8818238153583
 30
0.0
 10
9.630196787476986
 20
466.8818238153583
 30
0.0
 10
9.567473777574431
 20
465.2983352226069
 30
0.0
 10
9.532308251824307
 20
464.4105556188073
 30
0.0
 10
9.46958524192175
 20
462.8270670260574
 30
0.0
 10
9.46958524192175
 20
462.8270670260574
 30
0.0
 10
8.626484660698146
 20
462.0482311467957
 30
0.0
 10
8.626484660698146
 20
462.0482311467957
 30
0.0
 10
7.043096841253587
 20
462.1109144004171
 30
0.0
 10
6.155297099425302
 20
462.1460606707744
 30
0.0
 10
4.571909279976893
 20
462.2087439243968
 30
0.0
  0
HATCH
  5
121
330
11C
100
AcDbEntity
  8
Layer 1
 62
   253
440
 33554687
100
AcDbHatch
 10
0.0
 20
0.0
 30
0.0
210
0.0
220
0.0
230
1.0
  2
SOLID
 70
     1
 71
     1
 91
        1
 92
        1
 93
        1
 72
     4
 94
        3
 73
     0
 74
     0
 95
       29
 96
       25
 40
0.0
 40
0.0
 40
0.0
 40
0.0
 40
1.0
 40
1.0
 40
1.0
 40
2.0
 40
2.0
 40
2.0
 40
3.0
 40
3.0
 40
3.0
 40
4.0
 40
4.0
 40
4.0
 40
5.0
 40
5.0
 40
5.0
 40
6.0
 40
6.0
 40
6.0
 40
7.0
 40
7.0
 40
7.0
 40
8.0
 40
8.0
 40
8.0
 40
8.0
 10
4.571909279976893
 20
462.2087439243968
 10
4.571909279976893
 20
462.2087439243968
 10
-0.1898672701762368
 20
467.3627276150128
 10
-0.1898672701762368
 20
467.3627276150128
 10
-0.1898672701762368
 20
467.3627276150128
 10
-28.92887454253135
 20
467.3627276150128
 10
-28.92887454253135
 20
467.3627276150128
 10
-28.92887454253135
 20
467.3627276150128
 10
-28.92887454253135
 20
474.2491947541605
 10
-28.92887454253135
 20
474.2491947541605
 10
-28.92887454253135
 20
474.2491947541605
 10
2.824082947460166
 20
474.2491947541605
 10
2.824082947460166
 20
474.2491947541605
 10
2.824082947460166
 20
474.2491947541605
 10
9.630196787476986
 20
466.8818238153583
 10
9.630196787476986
 20
466.8818238153583
 10
9.567473777574431
 20
465.2983352226069
 10
9.532308251824307
 20
464.4105556188073
 10
9.46958524192175
 20
462.8270670260574
 10
9.46958524192175
 20
462.8270670260574
 10
8.626484660698146
 20
462.0482311467957
 10
8.626484660698146
 20
462.0482311467957
 10
7.043096841253587
 20
462.1109144004171
 10
6.155297099425302
 20
462.1460606707744
 10
4.571909279976893
 20
462.2087439243968
 97
        0
 97
        1
330
120
 75
     2
 76
     1
 98
        1
 10
0.0
 20
0.0
450
        0
451
        0
460
0.0
461
0.0
452
        0
462
0.0
453
        0
470

  0
SPLINE
  5
122
330
11C
100
AcDbEntity
  8
Layer 1
100
AcDbSpline
210
0.0
220
0.0
230
1.0
 70
    11
 71
     3
 72
    32
 73
    28
 74
     0
 42
0.0000000001
 43
0.0000000001
 40
0.0
 40
0.0
 40
0.0
 40
0.0
 40
1.0
 40
1.0
 40
1.0
 40
2.0
 40
2.0
 40
2.0
 40
3.0
 40
3.0
 40
3.0
 40
4.0
 40
4.0
 40
4.0
 40
5.0
 40
5.0
 40
5.0
 40
6.0
 40
6.0
 40
6.0
 40
7.0
 40
7.0
 40
7.0
 40
8.0
 40
8.0
 40
8.0
 40
9.0
 40
9.0
 40
9.0
 40
9.0
 10
12.32211721457249
 20
442.031086895884
 30
0.0
 10
12.32211721457249
 20
442.031086895884
 30
0.0
 10
8.305011383404696
 20
442.031086895884
 30
0.0
 10
8.305011383404696
 20
442.031086895884
 30
0.0
 10
7.184456090827533
 20
443.1516421884611
 30
0.0
 10
6.556205368002575
 20
443.7798929112848
 30
0.0
 10
5.435650075425412
 20
444.900448203862
 30
0.0
 10
5.435650075425412
 20
444.900448203862
 30
0.0
 10
5.435650075425412
 20
448.6082010190155
 30
0.0
 10
5.435650075425412
 20
448.6082010190155
 30
0.0
 10
5.435650075425412
 20
448.6082010190155
 30
0.0
 10
-0.1893068480479616
 20
454.6971874665128
 30
0.0
 10
-0.1893068480479616
 20
454.6971874665128
 30
0.0
 10
-0.1893068480479616
 20
454.6971874665128
 30
0.0
 10
-28.92887454253135
 20
454.6971874665128
 30
0.0
 10
-28.92887454253135
 20
454.6971874665128
 30
0.0
 10
-28.92887454253135
 20
454.6971874665128
 30
0.0
 10
-28.92887454253135
 20
461.5836546056619
 30
0.0
 10
-28.92887454253135
 20
461.5836546056619
 30
0.0
 10
-28.92887454253135
 20
461.5836546056619
 30
0.0
 10
2.823522525328683
 20
461.5836546056619
 30
0.0
 10
2.823522525328683
 20
461.5836546056619
 30
0.0
 10
2.823522525328683
 20
461.5836546056619
 30
0.0
 10
12.32211721457249
 20
451.3027106222889
 30
0.0
 10
12.32211721457249
 20
451.3027106222889
 30
0.0
 10
12.32211721457249
 20
451.3027106222889
 30
0.0
 10
12.32211721457249
 20
442.031086895884
 30
0.0
 10
12.32211721457249
 20
442.031086895884
 30
0.0
  0
HATCH
  5
123
330
11C
100
AcDbEntity
  8
Layer 1
 62
   253
440
 33554687
100
AcDbHatch
 10
0.0
 20
0.0
 30
0.0
210
0.0
220
0.0
230
1.0
  2
SOLID
 70
     1
 71
     1
 91
        1
 92
        1
 93
        1
 72
     4
 94
        3
 73
     0
 74
     0
 95
       32
 96
       28
 40
0.0
 40
0.0
 40
0.0
 40
0.0
 40
1.0
 40
1.0
 40
1.0
 40
2.0
 40
2.0
 40
2.0
 40
3.0
 40
3.0
 40
3.0
 40
4.0
 40
4.0
 40
4.0
 40
5.0
 40
5.0
 40
5.0
 40
6.0
 40
6.0
 40
6.0
 40
7.0
 40
7.0
 40
7.0
 40
8.0
 40
8.0
 40
8.0
 40
9.0
 40
9.0
 40
9.0
 40
9.0
 10
12.32211721457249
 20
442.031086895884
 10
12.32211721457249
 20
442.031086895884
 10
8.305011383404696
 20
442.031086895884
 10
8.305011383404696
 20
442.031086895884
 10
7.184456090827533
 20
443.1516421884611
 10
6.556205368002575
 20
443.7798929112848
 10
5.435650075425412
 20
444.900448203862
 10
5.435650075425412
 20
444.900448203862
 10
5.435650075425412
 20
448.6082010190155
 10
5.435650075425412
 20
448.6082010190155
 10
5.435650075425412
 20
448.6082010190155
 10
-0.1893068480479616
 20
454.6971874665128
 10
-0.1893068480479616
 20
454.6971874665128
 10
-0.1893068480479616
 20
454.6971874665128
 10
-28.92887454253135
 20
454.6971874665128
 10
-28.92887454253135
 20
454.6971874665128
 10
-28.92887454253135
 20
454.6971874665128
 10
-28.92887454253135
 20
461.5836546056619
 10
-28.92887454253135
 20
461.5836546056619
 10
-28.92887454253135
 20
461.5836546056619
 10
2.823522525328683
 20
461.5836546056619
 10
2.823522525328683
 20
461.5836546056619
 10
2.823522525328683
 20
461.5836546056619
 10
12.32211721457249
 20
451.3027106222889
 10
12.32211721457249
 20
451.3027106222889
 10
12.32211721457249
 20
451.3027106222889
 10
12.32211721457249
 20
442.031086895884
 10
12.32211721457249
 20
442.031086895884
 97
        0
 97
        1
330
122
 75
     2
 76
     1
 98
        1
 10
0.0
 20
0.0
450
        0
451
        0
460
0.0
461
0.0
452
        0
462
0.0
453
        0
470

  0
ENDBLK
  5
11F
330
11C
100
AcDbEntity
  8
0
100
AcDbBlockEnd
  0
BLOCK
  5
126
330
124
100
AcDbEntity
  8
0
100
AcDbBlockBegin
  2
Block_5
 70
     0
 10
0.0
 20
0.0
 30
0.0
  3
Block_5
  1

  0
LWPOLYLINE
  5
128
330
124
100
AcDbEntity
  8
Layer 1
100
AcDbPolyline
 90
        4
 70
     1
 43
0.0
 10
-111.5664802123136
 20
452.9918229235088
 10
-132.2258816297593
 20
452.9918229235088
 10
-132.2258816297593
 20
459.8782900626584
 10
-111.5664802123136
 20
459.8782900626584
  0
HATCH
  5
129
330
124
100
AcDbEntity
  8
Layer 1
 62
   253
440
 33554687
100
AcDbHatch
 10
0.0
 20
0.0
 30
0.0
210
0.0
220
0.0
230
1.0
  2
SOLID
 70
     1
 71
     1
 91
        1
 92
        1
 93
        4
 72
     1
 10
-111.5664802123136
 20
452.9918229235088
 11
-132.2258816297593
 21
452.9918229235088
 72
     1
 10
-132.2258816297593
 20
452.9918229235088
 11
-132.2258816297593
 21
459.8782900626584
 72
     1
 10
-132.2258816297593
 20
459.8782900626584
 11
-111.5664802123136
 21
459.8782900626584
 72
     1
 10
-111.5664802123136
 20
459.8782900626584
 11
-111.5664802123136
 21
452.9918229235088
 97
        1
330
128
 75
     2
 76
     1
 98
        1
 10
0.0
 20
0.0
450
        0
451
        0
460
0.0
461
0.0
452
        0
462
0.0
453
        0
470

  0
LWPOLYLINE
  5
12A
330
124
100
AcDbEntity
  8
Layer 1
100
AcDbPolyline
 90
        4
 70
     1
 43
0.0
 10
-132.2258816297593
 20
442.031086895884
 10
-139.1123487689083
 20
442.031086895884
 10
-139.1123487689083
 20
474.2491947541605
 10
-132.2258816297593
 20
474.2491947541605
  0
HATCH
  5
12B
330
124
100
AcDbEntity
  8
Layer 1
 62
   253
440
 33554687
100
AcDbHatch
 10
0.0
 20
0.0
 30
0.0
210
0.0
220
0.0
230
1.0
  2
SOLID
 70
     1
 71
     1
 91
        1
 92
        1
 93
        4
 72
     1
 10
-132.2258816297593
 20
442.031086895884
 11
-139.1123487689083
 21
442.031086895884
 72
     1
 10
-139.1123487689083
 20
442.031086895884
 11
-139.1123487689083
 21
474.2491947541605
 72
     1
 10
-139.1123487689083
 20
474.2491947541605
 11
-132.2258816297593
 21
474.2491947541605
 72
     1
 10
-132.2258816297593
 20
474.2491947541605
 11
-132.2258816297593
 21
442.031086895884
 97
        1
330
12A
 75
     2
 76
     1
 98
        1
 10
0.0
 20
0.0
450
        0
451
        0
460
0.0
461
0.0
452
        0
462
0.0
453
        0
470

  0
ENDBLK
  5
127
330
124
100
AcDbEntity
  8
0
100
AcDbBlockEnd
  0
ENDSEC
  0
SECTION
  2
ENTITIES
  0
LINE
  5
79
330
70
100
AcDbEntity
  8
Layer 1
 62
     7
370
    35
100
AcDbLine
 10
509.2894156772227
 20
458.1401637521438
 30
0.0
 11
-406.9909172100266
 21
458.1401637521438
 31
0.0
  0
LINE
  5
7A
330
70
100
AcDbEntity
  8
Layer 1
 62
     7
370
    35
100
AcDbLine
 10
478.8482074600066
 20
434.3135550154925
 30
0.0
 11
-359.2636140349061
 21
422.0721672062563
 31
0.0
  0
LINE
  5
7B
330
70
100
AcDbEntity
  8
Layer 1
 62
     7
370
    35
100
AcDbLine
 10
483.0709471236664
 20
446.226862075299
 30
0.0
 11
-367.740860910669
 21
440.1061654792001
 31
0.0
  0
LINE
  5
7C
330
70
100
AcDbEntity
  8
Layer 1
 62
     7
370
    35
100
AcDbLine
 10
487.2972180101966
 20
458.1401637521438
 30
0.0
 11
-376.2181104779127
 21
458.1401637521438
 31
0.0
  0
LINE
  5
7D
330
70
100
AcDbEntity
  8
Layer 1
 62
     7
370
    35
100
AcDbLine
 10
491.5199576738526
 20
470.0534708119503
 30
0.0
 11
-384.6953613908969
 21
476.1741647165684
 31
0.0
  0
LINE
  5
7E
330
70
100
AcDbEntity
  8
Layer 1
 62
     7
370
    35
100
AcDbLine
 10
495.7426973375124
 20
481.9667778717568
 30
0.0
 11
-393.1726123038811
 21
494.208165680993
 31
0.0
  0
LINE
  5
7F
330
70
100
AcDbEntity
  8
Layer 1
 62
     7
370
    35
100
AcDbLine
 10
478.0014891171212
 20
431.9323050160878
 30
0.0
 11
-358.1453037426238
 21
419.6909172068516
 31
0.0
  0
LINE
  5
80
330
70
100
AcDbEntity
  8
Layer 1
 62
     7
370
    35
100
AcDbLine
 10
496.5894156803977
 20
484.3480278711616
 30
0.0
 11
-394.2909172132016
 21
496.5894156803977
 31
0.0
  0
LINE
  5
81
330
70
100
AcDbEntity
  8
Layer 1
 62
     7
370
    35
100
AcDbLine
 10
478.0014891171212
 20
431.9323050160878
 30
0.0
 11
480.9578116803994
 21
440.2719714653511
 31
0.0
  0
LINE
  5
82
330
70
100
AcDbEntity
  8
Layer 1
 62
     7
370
    35
100
AcDbLine
 10
431.1244193588753
 20
431.2479152660961
 30
0.0
 11
433.562082796849
 21
439.7569135414212
 31
0.0
  0
LINE
  5
83
330
70
100
AcDbEntity
  8
Layer 1
 62
     7
370
    35
100
AcDbLine
 10
386.8719955960669
 20
430.5988054470581
 30
0.0
 11
388.8263982648491
 21
439.2700838686235
 31
0.0
  0
LINE
  5
84
330
70
100
AcDbEntity
  8
Layer 1
 62
     7
370
    35
100
AcDbLine
 10
345.0924613725708
 20
429.9885013988844
 30
0.0
 11
346.6023605963667
 21
438.8114716810347
 31
0.0
  0
LINE
  5
85
330
70
100
AcDbEntity
  8
Layer 1
 62
     7
370
    35
100
AcDbLine
 10
305.6554628879633
 20
429.4099460587919
 30
0.0
 11
306.7490653860629
 21
438.3775565217058
 31
0.0
  0
LINE
  5
86
330
70
100
AcDbEntity
  8
Layer 1
 62
     7
370
    35
100
AcDbLine
 10
268.4268136730925
 20
428.8666652666915
 30
0.0
 11
269.1288810692942
 21
437.968333007675
 31
0.0
  0
LINE
  5
87
330
70
100
AcDbEntity
  8
Layer 1
 62
     7
370
    35
100
AcDbLine
 10
233.2830931822071
 20
428.3516127257232
 30
0.0
 11
233.6217891321001
 21
437.5802752990319
 31
0.0
  0
LINE
  5
88
330
70
100
AcDbEntity
  8
Layer 1
 62
     7
370
    35
100
AcDbLine
 10
200.1079002515897
 20
427.8647776699639
 30
0.0
 11
200.1079002515897
 21
437.2169146186485
 31
0.0
  0
LINE
  5
89
330
70
100
AcDbEntity
  8
Layer 1
 62
     7
370
    35
100
AcDbLine
 10
168.7918100358944
 20
427.4061654823751
 30
0.0
 11
168.4743014232357
 21
436.8747197436526
 31
0.0
  0
LINE
  5
8A
330
70
100
AcDbEntity
  8
Layer 1
 62
     7
370
    35
100
AcDbLine
 10
139.2325462629023
 20
426.9722503230461
 30
0.0
 11
138.6187163748153
 21
436.5501648341337
 31
0.0
  0
LINE
  5
8B
330
70
100
AcDbEntity
  8
Layer 1
 62
     7
370
    35
100
AcDbLine
 10
111.331363883268
 20
426.5665526489261
 30
0.0
 11
110.4352945475545
 21
436.2432498900914
 31
0.0
  0
LINE
  5
8C
330
70
100
AcDbEntity
  8
Layer 1
 62
     7
370
    35
100
AcDbLine
 10
84.99296294312886
 20
426.1785003232446
 30
0.0
 11
83.83584149701801
 21
435.9539695285644
 31
0.0
  0
LINE
  5
8D
330
70
100
AcDbEntity
  8
Layer 1
 62
     7
370
    35
100
AcDbLine
 10
60.129192061758
 20
425.8151396428613
 30
0.0
 11
58.72867461961424
 21
435.6788032926035
 31
0.0
  0
LINE
  5
8E
330
70
100
AcDbEntity
  8
Layer 1
 62
     7
370
    35
100
AcDbLine
 10
36.6624073996553
 20
425.4729447678654
 30
0.0
 11
35.03257578927653
 21
435.4212770221193
 31
0.0
  0
LINE
  5
8F
330
70
100
AcDbEntity
  8
Layer 1
 62
     7
370
    35
100
AcDbLine
 10
14.51152002183734
 20
425.1483898583463
 30
0.0
 11
12.6629248481452
 21
435.1778594942397
 31
0.0
  0
LINE
  5
90
330
70
100
AcDbEntity
  8
Layer 1
 62
     7
370
    35
100
AcDbLine
 10
-6.397625752015231
 20
424.8414695313425
 30
0.0
 11
-8.450816533835078
 21
434.9485560919261
 31
0.0
  0
LINE
  5
91
330
70
100
AcDbEntity
  8
Layer 1
 62
     7
370
    35
100
AcDbLine
 10
-26.1355682519642
 20
424.5521945527771
 30
0.0
 11
-28.37569852755178
 21
434.7333614322169
 31
0.0
  0
LINE
  5
92
330
70
100
AcDbEntity
  8
Layer 1
 62
     7
370
    35
100
AcDbLine
 10
-44.76574029862788
 20
424.2805541567268
 30
0.0
 11
-47.18581221778261
 21
434.5287496752016
 31
0.0
  0
LINE
  5
93
330
70
100
AcDbEntity
  8
Layer 1
 62
     7
370
    35
100
AcDbLine
 10
-62.34819421269122
 20
424.0230278862427
 30
0.0
 11
-64.94110226597094
 21
434.33472082088
 31
0.0
  0
LINE
  5
94
330
70
100
AcDbEntity
  8
Layer 1
 62
     7
370
    35
100
AcDbLine
 10
-78.94638434661676
 20
423.7796103583631
 30
0.0
 11
-81.69804670622616
 21
434.1548060921245
 31
0.0
  0
LINE
  5
95
330
70
100
AcDbEntity
  8
Layer 1
 62
     7
370
    35
100
AcDbLine
 10
-94.61325751164535
 20
423.5503069560495
 30
0.0
 11
-97.51308050896728
 21
433.9819430431904
 31
0.0
  0
LINE
  5
96
330
70
100
AcDbEntity
  8
Layer 1
 62
     7
370
    35
100
AcDbLine
 10
-109.4016959234756
 20
423.331581073468
 30
0.0
 11
-112.442638644612
 21
433.8196682799118
 31
0.0
  0
LINE
  5
97
330
70
100
AcDbEntity
  8
Layer 1
 62
     7
370
    35
100
AcDbLine
 10
-123.361115170474
 20
423.1269693164526
 30
0.0
 11
-126.5325839468079
 21
433.6644451964544
 31
0.0
  0
LINE
  5
98
330
70
100
AcDbEntity
  8
Layer 1
 62
     7
370
    35
100
AcDbLine
 10
-136.5338253315688
 20
422.9364716850034
 30
0.0
 11
-139.8323104720745
 21
433.5198050156909
 31
0.0
  0
LINE
  5
99
330
70
100
AcDbEntity
  8
Layer 1
 62
     7
370
    35
100
AcDbLine
 10
-148.972773217999
 20
422.7530257333756
 30
0.0
 11
-152.3876595222126
 21
433.3857477376212
 31
0.0
  0
LINE
  5
9A
330
70
100
AcDbEntity
  8
Layer 1
 62
     7
370
    35
100
AcDbLine
 10
480.9578116803994
 20
440.2719714653511
 30
0.0
 11
485.1840825669296
 21
452.1852785251576
 31
0.0
  0
LINE
  5
9B
330
70
100
AcDbEntity
  8
Layer 1
 62
     7
370
    35
100
AcDbLine
 10
433.562082796849
 20
439.7569135414212
 30
0.0
 11
437.0757356822553
 21
452.0124154762235
 31
0.0
  0
LINE
  5
9C
330
70
100
AcDbEntity
  8
Layer 1
 62
     7
370
    35
100
AcDbLine
 10
388.8263982648491
 20
439.2700838686235
 30
0.0
 11
391.6661904733406
 21
451.8501353299831
 31
0.0
  0
LINE
  5
9D
330
70
100
AcDbEntity
  8
Layer 1
 62
     7
370
    35
100
AcDbLine
 10
346.6023605963667
 20
438.8114716810347
 30
0.0
 11
348.8072217069266
 21
451.6984434693982
 31
0.0
  0
LINE
  5
9E
330
70
100
AcDbEntity
  8
Layer 1
 62
     7
370
    35
100
AcDbLine
 10
306.7490653860629
 20
438.3775565217058
 30
0.0
 11
308.3506902771556
 21
451.5538032886347
 31
0.0
  0
LINE
  5
9F
330
70
100
AcDbEntity
  8
Layer 1
 62
     7
370
    35
100
AcDbLine
 10
269.1288810692942
 20
437.968333007675
 30
0.0
 11
270.1660270651286
 21
451.4162201706542
 31
0.0
  0
LINE
  5
A0
330
70
100
AcDbEntity
  8
Layer 1
 62
     7
370
    35
100
AcDbLine
 10
233.6217891321001
 20
437.5802752990319
 30
0.0
 11
234.1262372385253
 21
451.2856941154568
 31
0.0
  0
LINE
  5
A1
330
70
100
AcDbEntity
  8
Layer 1
 62
     7
370
    35
100
AcDbLine
 10
200.1079002515897
 20
437.2169146186485
 30
0.0
 11
200.1079002515897
 21
451.1657509629531
 31
0.0
  0
LINE
  5
A2
330
70
100
AcDbEntity
  8
Layer 1
 62
     7
370
    35
100
AcDbLine
 10
168.4743014232357
 20
436.8747197436526
 30
0.0
 11
167.9980600360928
 21
451.0528594902709
 31
0.0
  0
LINE
  5
A3
330
70
100
AcDbEntity
  8
Layer 1
 62
     7
370
    35
100
AcDbLine
 10
138.6187163748153
 20
436.5501648341337
 30
0.0
 11
137.6944403198196
 21
450.943499240461
 31
0.0
  0
LINE
  5
A4
330
70
100
AcDbEntity
  8
Layer 1
 62
     7
370
    35
100
AcDbLine
 10
110.4352945475545
 20
436.2432498900914
 30
0.0
 11
109.0877023848022
 21
450.8411960534342
 31
0.0
  0
LINE
  5
A5
330
70
100
AcDbEntity
  8
Layer 1
 62
     7
370
    35
100
AcDbLine
 10
83.83584149701801
 20
435.9539695285644
 30
0.0
 11
82.08607750005961
 21
450.7459445462287
 31
0.0
  0
LINE
  5
A6
330
70
100
AcDbEntity
  8
Layer 1
 62
     7
370
    35
100
AcDbLine
 10
58.72867461961424
 20
435.6788032926035
 30
0.0
 11
56.60141428486216
 21
450.6542188789339
 31
0.0
  0
LINE
  5
A7
330
70
100
AcDbEntity
  8
Layer 1
 62
     7
370
    35
100
AcDbLine
 10
35.03257578927653
 20
435.4212770221193
 30
0.0
 11
32.54900645395992
 21
450.5660244345115
 31
0.0
  0
LINE
  5
A8
330
70
100
AcDbEntity
  8
Layer 1
 62
     7
370
    35
100
AcDbLine
 10
12.6629248481452
 20
435.1778594942397
 30
0.0
 11
9.844233849502202
 21
450.4848870528722
 31
0.0
  0
LINE
  5
A9
330
70
100
AcDbEntity
  8
Layer 1
 62
     7
370
    35
100
AcDbLine
 10
-8.450816533835078
 20
434.9485560919261
 30
0.0
 11
-11.58701614513998
 21
450.4108067340159
 31
0.0
  0
LINE
  5
AA
330
70
100
AcDbEntity
  8
Layer 1
 62
     7
370
    35
100
AcDbLine
 10
-28.37569852755178
 20
434.7333614322169
 30
0.0
 11
-31.81528186002521
 21
450.336721032198
 31
0.0
  0
LINE
  5
AB
330
70
100
AcDbEntity
  8
Layer 1
 62
     7
370
    35
100
AcDbLine
 10
-47.18581221778261
 20
434.5287496752016
 30
0.0
 11
-50.9040822431679
 21
450.2696923931631
 31
0.0
  0
LINE
  5
AC
330
70
100
AcDbEntity
  8
Layer 1
 62
     7
370
    35
100
AcDbLine
 10
-64.94110226597094
 20
434.33472082088
 30
0.0
 11
-68.92750837934066
 21
450.2061949770006
 31
0.0
  0
LINE
  5
AD
330
70
100
AcDbEntity
  8
Layer 1
 62
     7
370
    35
100
AcDbLine
 10
-81.69804670622616
 20
434.1548060921245
 30
0.0
 11
-85.93491126137353
 21
450.1462234007488
 31
0.0
  0
LINE
  5
AE
330
70
100
AcDbEntity
  8
Layer 1
 62
     7
370
    35
100
AcDbLine
 10
-97.51308050896728
 20
433.9819430431904
 30
0.0
 11
-101.9898313691219
 21
450.0862464415352
 31
0.0
  0
LINE
  5
AF
330
70
100
AcDbEntity
  8
Layer 1
 62
     7
370
    35
100
AcDbLine
 10
-112.442638644612
 20
433.8196682799118
 30
0.0
 11
-117.1416412272589
 21
450.0333319280665
 31
0.0
  0
LINE
  5
B0
330
70
100
AcDbEntity
  8
Layer 1
 62
     7
370
    35
100
AcDbLine
 10
-126.5325839468079
 20
433.6644451964544
 30
0.0
 11
-131.4467758062021
 21
449.9804174145977
 31
0.0
  0
LINE
  5
B1
330
70
100
AcDbEntity
  8
Layer 1
 62
     7
370
    35
100
AcDbLine
 10
-139.8323104720745
 20
433.5198050156909
 30
0.0
 11
-144.9475882485734
 21
449.9345545809503
 31
0.0
  0
LINE
  5
B2
330
70
100
AcDbEntity
  8
Layer 1
 62
     7
370
    35
100
AcDbLine
 10
-152.3876595222126
 20
433.3857477376212
 30
0.0
 11
-157.6899198561735
 21
449.8886917473029
 31
0.0
  0
LINE
  5
B3
330
70
100
AcDbEntity
  8
Layer 1
 62
     7
370
    35
100
AcDbLine
 10
485.1840825669296
 20
452.1852785251576
 30
0.0
 11
489.4068222305894
 21
464.0950543620918
 31
0.0
  0
LINE
  5
B4
330
70
100
AcDbEntity
  8
Layer 1
 62
     7
370
    35
100
AcDbLine
 10
437.0757356822553
 20
452.0124154762235
 30
0.0
 11
440.5859434721763
 21
464.267914719545
 31
0.0
  0
LINE
  5
B5
330
70
100
AcDbEntity
  8
Layer 1
 62
     7
370
    35
100
AcDbLine
 10
391.6661904733406
 20
451.8501353299831
 30
0.0
 11
394.5060688092172
 21
464.4301921743045
 31
0.0
  0
LINE
  5
B6
330
70
100
AcDbEntity
  8
Layer 1
 62
     7
370
    35
100
AcDbLine
 10
348.8072217069266
 20
451.6984434693982
 30
0.0
 11
351.0085515946161
 21
464.5818867263702
 31
0.0
  0
LINE
  5
B7
330
70
100
AcDbEntity
  8
Layer 1
 62
     7
370
    35
100
AcDbLine
 10
308.3506902771556
 20
451.5538032886347
 30
0.0
 11
309.9558463911187
 21
464.7265269071338
 31
0.0
  0
LINE
  5
B8
330
70
100
AcDbEntity
  8
Layer 1
 62
     7
370
    35
100
AcDbLine
 10
270.1660270651286
 20
451.4162201706542
 30
0.0
 11
271.2067042838374
 21
464.8641100251142
 31
0.0
  0
LINE
  5
B9
330
70
100
AcDbEntity
  8
Layer 1
 62
     7
370
    35
100
AcDbLine
 10
234.1262372385253
 20
451.2856941154568
 30
0.0
 11
234.6307284086478
 21
464.9946387717925
 31
0.0
  0
LINE
  5
BA
330
70
100
AcDbEntity
  8
Layer 1
 62
     7
370
    35
100
AcDbLine
 10
200.1079002515897
 20
451.1657509629531
 30
0.0
 11
200.1079002515897
 21
465.1145819242961
 31
0.0
  0
LINE
  5
BB
330
70
100
AcDbEntity
  8
Layer 1
 62
     7
370
    35
100
AcDbLine
 10
167.9980600360928
 20
451.0528594902709
 30
0.0
 11
167.5253498718236
 21
465.2274707054976
 31
0.0
  0
LINE
  5
BC
330
70
100
AcDbEntity
  8
Layer 1
 62
     7
370
    35
100
AcDbLine
 10
137.6944403198196
 20
450.943499240461
 30
0.0
 11
136.766633041945
 21
465.3368336467884
 31
0.0
  0
LINE
  5
BD
330
70
100
AcDbEntity
  8
Layer 1
 62
     7
370
    35
100
AcDbLine
 10
109.0877023848022
 20
450.8411960534342
 30
0.0
 11
107.7400671583622
 21
465.4391368338152
 31
0.0
  0
LINE
  5
BE
330
70
100
AcDbEntity
  8
Layer 1
 62
     7
370
    35
100
AcDbLine
 10
82.08607750005961
 20
450.7459445462287
 30
0.0
 11
80.33984472597616
 21
465.5343883410206
 31
0.0
  0
LINE
  5
BF
330
70
100
AcDbEntity
  8
Layer 1
 62
     7
370
    35
100
AcDbLine
 10
56.60141428486216
 20
450.6542188789339
 30
0.0
 11
54.47768517297991
 21
465.6261113168346
 31
0.0
  0
LINE
  5
C0
330
70
100
AcDbEntity
  8
Layer 1
 62
     7
370
    35
100
AcDbLine
 10
32.54900645395992
 20
450.5660244345115
 30
0.0
 11
30.06548018233623
 21
465.714305761257
 31
0.0
  0
LINE
  5
C1
330
70
100
AcDbEntity
  8
Layer 1
 62
     7
370
    35
100
AcDbLine
 10
9.844233849502202
 20
450.4848870528722
 30
0.0
 11
7.025542850856633
 21
465.7954431428962
 31
0.0
  0
LINE
  5
C2
330
70
100
AcDbEntity
  8
Layer 1
 62
     7
370
    35
100
AcDbLine
 10
-11.58701614513998
 20
450.4108067340159
 30
0.0
 11
-14.72321575644425
 21
465.8695261532334
 31
0.0
  0
LINE
  5
C3
330
70
100
AcDbEntity
  8
Layer 1
 62
     7
370
    35
100
AcDbLine
 10
-31.81528186002521
 20
450.336721032198
 30
0.0
 11
-35.25133396962819
 21
465.9436091635705
 31
0.0
  0
LINE
  5
C4
330
70
100
AcDbEntity
  8
Layer 1
 62
     7
370
    35
100
AcDbLine
 10
-50.9040822431679
 20
450.2696923931631
 30
0.0
 11
-54.62588349142301
 21
466.0106378026054
 31
0.0
  0
LINE
  5
C5
330
70
100
AcDbEntity
  8
Layer 1
 62
     7
370
    35
100
AcDbLine
 10
-68.92750837934066
 20
450.2061949770006
 30
0.0
 11
-72.91389296086359
 21
466.0741379102487
 31
0.0
  0
LINE
  5
C6
330
70
100
AcDbEntity
  8
Layer 1
 62
     7
370
    35
100
AcDbLine
 10
-85.93491126137353
 20
450.1462234007488
 30
0.0
 11
-90.1753070393933
 21
466.1341094865006
 31
0.0
  0
LINE
  5
C7
330
70
100
AcDbEntity
  8
Layer 1
 62
     7
370
    35
100
AcDbLine
 10
-101.9898313691219
 20
450.0862464415352
 30
0.0
 11
-106.4665822292766
 21
466.1940810627524
 31
0.0
  0
LINE
  5
C8
330
70
100
AcDbEntity
  8
Layer 1
 62
     7
370
    35
100
AcDbLine
 10
-117.1416412272589
 20
450.0333319280665
 30
0.0
 11
-121.8441750327782
 21
466.2469982677023
 31
0.0
  0
LINE
  5
C9
330
70
100
AcDbEntity
  8
Layer 1
 62
     7
370
    35
100
AcDbLine
 10
-131.4467758062021
 20
449.9804174145977
 30
0.0
 11
-136.357436442724
 21
466.2999154726517
 31
0.0
  0
LINE
  5
CA
330
70
100
AcDbEntity
  8
Layer 1
 62
     7
370
    35
100
AcDbLine
 10
-144.9475882485734
 20
449.9345545809503
 30
0.0
 11
-150.0593348022001
 21
466.3457756148182
 31
0.0
  0
LINE
  5
CB
330
70
100
AcDbEntity
  8
Layer 1
 62
     7
370
    35
100
AcDbLine
 10
-157.6899198561735
 20
449.8886917473029
 30
0.0
 11
-162.988648967262
 21
466.3916384484656
 31
0.0
  0
LINE
  5
CC
330
70
100
AcDbEntity
  8
Layer 1
 62
     7
370
    35
100
AcDbLine
 10
489.4068222305894
 20
464.0950543620918
 30
0.0
 11
493.6330931171196
 21
476.0083614218983
 31
0.0
  0
LINE
  5
CD
330
70
100
AcDbEntity
  8
Layer 1
 62
     7
370
    35
100
AcDbLine
 10
440.5859434721763
 20
464.267914719545
 30
0.0
 11
444.0960651347122
 21
476.5234166543473
 31
0.0
  0
LINE
  5
CE
330
70
100
AcDbEntity
  8
Layer 1
 62
     7
370
    35
100
AcDbLine
 10
394.5060688092172
 20
464.4301921743045
 30
0.0
 11
397.3424159222234
 21
477.0102490186259
 31
0.0
  0
LINE
  5
CF
330
70
100
AcDbEntity
  8
Layer 1
 62
     7
370
    35
100
AcDbLine
 10
351.0085515946161
 20
464.5818867263702
 30
0.0
 11
353.213412705176
 21
477.4688612062147
 31
0.0
  0
LINE
  5
D0
330
70
100
AcDbEntity
  8
Layer 1
 62
     7
370
    35
100
AcDbLine
 10
309.9558463911187
 20
464.7265269071338
 30
0.0
 11
311.5609594413888
 21
477.9027763655435
 31
0.0
  0
LINE
  5
D1
330
70
100
AcDbEntity
  8
Layer 1
 62
     7
370
    35
100
AcDbLine
 10
271.2067042838374
 20
464.8641100251142
 30
0.0
 11
272.2438933433647
 21
478.3119998795743
 31
0.0
  0
LINE
  5
D2
330
70
100
AcDbEntity
  8
Layer 1
 62
     7
370
    35
100
AcDbLine
 10
234.6307284086478
 20
464.9946387717925
 30
0.0
 11
235.1351765150774
 21
478.7000548967366
 31
0.0
  0
LINE
  5
D3
330
70
100
AcDbEntity
  8
Layer 1
 62
     7
370
    35
100
AcDbLine
 10
200.1079002515897
 20
465.1145819242961
 30
0.0
 11
200.1079002515897
 21
479.06341557712
 31
0.0
  0
LINE
  5
D4
330
70
100
AcDbEntity
  8
Layer 1
 62
     7
370
    35
100
AcDbLine
 10
167.5253498718236
 20
465.2274707054976
 30
0.0
 11
167.0490654209879
 21
479.4056104521159
 31
0.0
  0
LINE
  5
D5
330
70
100
AcDbEntity
  8
Layer 1
 62
     7
370
    35
100
AcDbLine
 10
136.766633041945
 20
465.3368336467884
 30
0.0
 11
135.8423569869493
 21
479.7301653616348
 31
0.0
  0
LINE
  5
D6
330
70
100
AcDbEntity
  8
Layer 1
 62
     7
370
    35
100
AcDbLine
 10
107.7400671583622
 20
465.4391368338152
 30
0.0
 11
106.3889437727395
 21
480.0370829971578
 31
0.0
  0
LINE
  5
D7
330
70
100
AcDbEntity
  8
Layer 1
 62
     7
370
    35
100
AcDbLine
 10
80.33984472597616
 20
465.5343883410206
 30
0.0
 11
78.59003766532485
 21
480.3263606672041
 31
0.0
  0
LINE
  5
D8
330
70
100
AcDbEntity
  8
Layer 1
 62
     7
370
    35
100
AcDbLine
 10
54.47768517297991
 20
465.6261113168346
 30
0.0
 11
52.35042483822269
 21
480.601526903165
 31
0.0
  0
LINE
  5
D9
330
70
100
AcDbEntity
  8
Layer 1
 62
     7
370
    35
100
AcDbLine
 10
30.06548018233623
 20
465.714305761257
 30
0.0
 11
27.58191084701963
 21
480.85905586513
 31
0.0
  0
LINE
  5
DA
330
70
100
AcDbEntity
  8
Layer 1
 62
     7
370
    35
100
AcDbLine
 10
7.025542850856633
 20
465.7954431428962
 30
0.0
 11
4.203320629339967
 21
481.1024707015288
 31
0.0
  0
LINE
  5
DB
330
70
100
AcDbEntity
  8
Layer 1
 62
     7
370
    35
100
AcDbLine
 10
-14.72321575644425
 20
465.8695261532334
 30
0.0
 11
-17.85937230405238
 21
481.3317767953233
 31
0.0
  0
LINE
  5
DC
330
70
100
AcDbEntity
  8
Layer 1
 62
     7
370
    35
100
AcDbLine
 10
-35.25133396962819
 20
465.9436091635705
 30
0.0
 11
-38.68738607922733
 21
481.5469714550324
 31
0.0
  0
LINE
  5
DD
330
70
100
AcDbEntity
  8
Layer 1
 62
     7
370
    35
100
AcDbLine
 10
-54.62588349142301
 20
466.0106378026054
 30
0.0
 11
-58.34417504865316
 21
481.7515832120477
 31
0.0
  0
LINE
  5
DE
330
70
100
AcDbEntity
  8
Layer 1
 62
     7
370
    35
100
AcDbLine
 10
-72.91389296086359
 20
466.0741379102487
 30
0.0
 11
-76.90027754238653
 21
481.9456093748885
 31
0.0
  0
LINE
  5
DF
330
70
100
AcDbEntity
  8
Layer 1
 62
     7
370
    35
100
AcDbLine
 10
-90.1753070393933
 20
466.1341094865006
 30
0.0
 11
-94.41217159454067
 21
482.1255267951248
 31
0.0
  0
LINE
  5
E0
330
70
100
AcDbEntity
  8
Layer 1
 62
     7
370
    35
100
AcDbLine
 10
-106.4665822292766
 20
466.1940810627524
 30
0.0
 11
-110.9433330894313
 21
482.2983871525781
 31
0.0
  0
LINE
  5
E1
330
70
100
AcDbEntity
  8
Layer 1
 62
     7
370
    35
100
AcDbLine
 10
-121.8441750327782
 20
466.2469982677023
 30
0.0
 11
-126.543177615425
 21
482.4606646073376
 31
0.0
  0
LINE
  5
E2
330
70
100
AcDbEntity
  8
Layer 1
 62
     7
370
    35
100
AcDbLine
 10
-136.357436442724
 20
466.2999154726517
 30
0.0
 11
-141.2716498339651
 21
482.6158876907948
 31
0.0
  0
LINE
  5
E3
330
70
100
AcDbEntity
  8
Layer 1
 62
     7
370
    35
100
AcDbLine
 10
-150.0593348022001
 20
466.3457756148182
 30
0.0
 11
-155.1710813558266
 21
482.7605278715584
 31
0.0
  0
LINE
  5
E4
330
70
100
AcDbEntity
  8
Layer 1
 62
     7
370
    35
100
AcDbLine
 10
-162.988648967262
 20
466.3916384484656
 30
0.0
 11
-168.2908877693761
 21
482.8945824581473
 31
0.0
  0
LINE
  5
E5
330
70
100
AcDbEntity
  8
Layer 1
 62
     7
370
    35
100
AcDbLine
 10
493.6330931171196
 20
476.0083614218983
 30
0.0
 11
496.5894156803977
 21
484.3480278711616
 31
0.0
  0
LINE
  5
E6
330
70
100
AcDbEntity
  8
Layer 1
 62
     7
370
    35
100
AcDbLine
 10
444.0960651347122
 20
476.5234166543473
 30
0.0
 11
446.5372597955602
 21
485.0359434610639
 31
0.0
  0
LINE
  5
E7
330
70
100
AcDbEntity
  8
Layer 1
 62
     7
370
    35
100
AcDbLine
 10
397.3424159222234
 20
477.0102490186259
 30
0.0
 11
399.3003498138799
 21
485.6850532801018
 31
0.0
  0
LINE
  5
E8
330
70
100
AcDbEntity
  8
Layer 1
 62
     7
370
    35
100
AcDbLine
 10
353.213412705176
 20
477.4688612062147
 30
0.0
 11
354.7233119289719
 21
486.2953600197564
 31
0.0
  0
LINE
  5
E9
330
70
100
AcDbEntity
  8
Layer 1
 62
     7
370
    35
100
AcDbLine
 10
311.5609594413888
 20
477.9027763655435
 30
0.0
 11
312.6510737803116
 21
486.8739153598489
 31
0.0
  0
LINE
  5
EA
330
70
100
AcDbEntity
  8
Layer 1
 62
     7
370
    35
100
AcDbLine
 10
272.2438933433647
 20
478.3119998795743
 30
0.0
 11
272.9459176758689
 21
487.4207206461197
 31
0.0
  0
LINE
  5
EB
330
70
100
AcDbEntity
  8
Layer 1
 62
     7
370
    35
100
AcDbLine
 10
235.1351765150774
 20
478.7000548967366
 30
0.0
 11
235.4738724649704
 21
487.9357772243092
 31
0.0
  0
LINE
  5
EC
330
70
100
AcDbEntity
  8
Layer 1
 62
     7
370
    35
100
AcDbLine
 10
200.1079002515897
 20
479.06341557712
 30
0.0
 11
200.1079002515897
 21
488.4226095885876
 31
0.0
  0
LINE
  5
ED
330
70
100
AcDbEntity
  8
Layer 1
 62
     7
370
    35
100
AcDbLine
 10
167.0490654209879
 20
479.4056104521159
 30
0.0
 11
166.7315998720221
 21
488.8812217761765
 31
0.0
  0
LINE
  5
EE
330
70
100
AcDbEntity
  8
Layer 1
 62
     7
370
    35
100
AcDbLine
 10
135.8423569869493
 20
479.7301653616348
 30
0.0
 11
135.2285270988629
 21
489.3116097498543
 31
0.0
  0
LINE
  5
EF
330
70
100
AcDbEntity
  8
Layer 1
 62
     7
370
    35
100
AcDbLine
 10
106.3889437727395
 20
480.0370829971578
 30
0.0
 11
105.4964056599003
 21
489.7208319181446
 31
0.0
  0
LINE
  5
F0
330
70
100
AcDbEntity
  8
Layer 1
 62
     7
370
    35
100
AcDbLine
 10
78.59003766532485
 20
480.3263606672041
 30
0.0
 11
77.43295928290692
 21
490.1053597496559
 31
0.0
  0
LINE
  5
F1
330
70
100
AcDbEntity
  8
Layer 1
 62
     7
370
    35
100
AcDbLine
 10
52.35042483822269
 20
480.601526903165
 30
0.0
 11
50.94637617320912
 21
490.4722489614307
 31
0.0
  0
LINE
  5
F2
330
70
100
AcDbEntity
  8
Layer 1
 62
     7
370
    35
100
AcDbLine
 10
27.58191084701963
 20
480.85905586513
 30
0.0
 11
25.94854801376976
 21
490.8144438364266
 31
0.0
  0
LINE
  5
F3
330
70
100
AcDbEntity
  8
Layer 1
 62
     7
370
    35
100
AcDbLine
 10
4.203320629339967
 20
481.1024707015288
 30
0.0
 11
2.354768519343318
 21
491.1389987459456
 31
0.0
  0
LINE
  5
F4
330
70
100
AcDbEntity
  8
Layer 1
 62
     7
370
    35
100
AcDbLine
 10
-17.85937230405238
 20
481.3317767953233
 30
0.0
 11
-19.91256308587608
 21
491.4459150357282
 31
0.0
  0
LINE
  5
F5
330
70
100
AcDbEntity
  8
Layer 1
 62
     7
370
    35
100
AcDbLine
 10
-38.68738607922733
 20
481.5469714550324
 30
0.0
 11
-40.93104757769242
 21
491.7316655201233
 31
0.0
  0
LINE
  5
F6
330
70
100
AcDbEntity
  8
Layer 1
 62
     7
370
    35
100
AcDbLine
 10
-58.34417504865316
 20
481.7515832120477
 30
0.0
 11
-60.76775665883285
 21
492.0068317560843
 31
0.0
  0
LINE
  5
F7
330
70
100
AcDbEntity
  8
Layer 1
 62
     7
370
    35
100
AcDbLine
 10
-76.90027754238653
 20
481.9456093748885
 30
0.0
 11
-79.48967590464066
 21
492.2643607180492
 31
0.0
  0
LINE
  5
F8
330
70
100
AcDbEntity
  8
Layer 1
 62
     7
370
    35
100
AcDbLine
 10
-94.41217159454067
 20
482.1255267951248
 30
0.0
 11
-97.16383395415007
 21
492.5077769001885
 31
0.0
  0
LINE
  5
F9
330
70
100
AcDbEntity
  8
Layer 1
 62
     7
370
    35
100
AcDbLine
 10
-110.9433330894313
 20
482.2983871525781
 30
0.0
 11
-113.8431776186
 21
492.7370829939828
 31
0.0
  0
LINE
  5
FA
330
70
100
AcDbEntity
  8
Layer 1
 62
     7
370
    35
100
AcDbLine
 10
-126.543177615425
 20
482.4606646073376
 30
0.0
 11
-129.5876300275871
 21
492.9522763079516
 31
0.0
  0
LINE
  5
FB
330
70
100
AcDbEntity
  8
Layer 1
 62
     7
370
    35
100
AcDbLine
 10
-141.2716498339651
 20
482.6158876907948
 30
0.0
 11
-144.4466498331714
 21
493.156888064967
 31
0.0
  0
LINE
  5
FC
330
70
100
AcDbEntity
  8
Layer 1
 62
     7
370
    35
100
AcDbLine
 10
-155.1710813558266
 20
482.7605278715584
 30
0.0
 11
-158.4695664963323
 21
493.347388387897
 31
0.0
  0
LINE
  5
FD
330
70
100
AcDbEntity
  8
Layer 1
 62
     7
370
    35
100
AcDbLine
 10
-168.2908877693761
 20
482.8945824581473
 30
0.0
 11
-171.709305296462
 21
493.5308329937845
 31
0.0
  0
INSERT
  5
FF
330
70
100
AcDbEntity
  8
Layer 1
100
AcDbBlockReference
  2
Block_0
 10
0.0
 20
0.0
 30
0.0
  0
ENDSEC
  0
SECTION
  2
OBJECTS
  0
DICTIONARY
  5
C
330
0
100
AcDbDictionary
281
     1
  3
ACAD_COLOR
350
63
  3
ACAD_DETAILVIEWSTYLE
350
6A
  3
ACAD_GROUP
350
D
  3
ACAD_LAYOUT
350
62
  3
ACAD_MATERIAL
350
10
  3
ACAD_MLEADERSTYLE
350
66
  3
ACAD_MLINESTYLE
350
5F
  3
ACAD_PLOTSETTINGS
350
61
  3
ACAD_PLOTSTYLENAME
350
E
  3
ACAD_SCALELIST
350
42
  3
ACAD_SECTIONVIEWSTYLE
350
68
  3
ACAD_TABLESTYLE
350
64
  3
ACAD_VISUALSTYLE
350
29
  3
ACDB_RECOMPOSE_DATA
350
135
  3
AcDbVariableDictionary
350
12D
  0
DICTIONARY
  5
63
102
{ACAD_REACTORS
330
C
102
}
330
C
100
AcDbDictionary
281
     1
  0
DICTIONARY
  5
6A
102
{ACAD_REACTORS
330
C
102
}
330
C
100
AcDbDictionary
281
     1
  3
Imperial24
350
6B
  0
DICTIONARY
  5
D
102
{ACAD_REACTORS
330
C
102
}
330
C
100
AcDbDictionary
281
     1
  0
DICTIONARY
  5
62
102
{ACAD_REACTORS
330
C
102
}
330
C
100
AcDbDictionary
281
     1
  3
Layout1
350
6F
  3
Layout2
350
77
  3
Model
350
73
  0
DICTIONARY
  5
10
102
{ACAD_REACTORS
330
C
102
}
330
C
100
AcDbDictionary
281
     1
  3
ByBlock
350
19
  3
ByLayer
350
11
  3
Global
350
21
  0
DICTIONARY
  5
66
102
{ACAD_REACTORS
330
C
102
}
330
C
100
AcDbDictionary
281
     1
  3
Standard
350
67
  0
DICTIONARY
  5
5F
102
{ACAD_REACTORS
330
C
102
}
330
C
100
AcDbDictionary
281
     1
  3
Standard
350
60
  0
DICTIONARY
  5
61
102
{ACAD_REACTORS
330
C
102
}
330
C
100
AcDbDictionary
281
     1
  0
ACDBDICTIONARYWDFLT
  5
E
102
{ACAD_REACTORS
330
C
102
}
330
C
100
AcDbDictionary
281
     1
  3
Normal
350
F
100
AcDbDictionaryWithDefault
340
F
  0
DICTIONARY
  5
42
102
{ACAD_REACTORS
330
C
102
}
330
C
100
AcDbDictionary
281
     1
  3
A0
350
43
  3
A1
350
44
  3
A2
350
45
  3
A3
350
46
  3
A4
350
47
  3
A5
350
48
  3
A6
350
49
  3
A7
350
4A
  3
A8
350
4B
  3
A9
350
4C
  3
B0
350
4D
  3
B1
350
4E
  3
B2
350
4F
  3
B3
350
50
  3
B4
350
51
  3
B5
350
52
  3
B6
350
53
  0
DICTIONARY
  5
68
102
{ACAD_REACTORS
330
C
102
}
330
C
100
AcDbDictionary
281
     1
  3
Imperial24
350
69
  0
DICTIONARY
  5
64
102
{ACAD_REACTORS
330
C
102
}
330
C
100
AcDbDictionary
281
     1
  3
Standard
350
65
  0
DICTIONARY
  5
29
102
{ACAD_REACTORS
330
C
102
}
330
C
100
AcDbDictionary
281
     1
  3
2dWireframe
350
2F
  3
Basic
350
2E
  3
Brighten
350
35
  3
ColorChange
350
39
  3
Conceptual
350
32
  3
Dim
350
34
  3
EdgeColorOff
350
41
  3
Facepattern
350
38
  3
Flat
350
2A
  3
FlatWithEdges
350
2B
  3
Gouraud
350
2C
  3
GouraudWithEdges
350
2D
  3
Hidden
350
31
  3
JitterOff
350
3F
  3
Linepattern
350
37
  3
OverhangOff
350
40
  3
Realistic
350
33
  3
Shaded
350
3E
  3
Shaded with edges
350
3D
  3
Shades of Gray
350
3A
  3
Sketchy
350
3B
  3
Thicken
350
36
  3
Wireframe
350
30
  3
X-Ray
350
3C
  0
XRECORD
  5
135
102
{ACAD_REACTORS
330
C
102
}
330
C
100
AcDbXrecord
280
     1
 90
        1
330
65
  0
DICTIONARY
  5
12D
102
{ACAD_REACTORS
330
C
102
}
330
C
100
AcDbDictionary
281
     1
  3
CANNOSCALE
350
132
  3
CMLEADERSTYLE
350
12F
  3
CTABLESTYLE
350
12E
  3
CVIEWDETAILSTYLE
350
130
  3
CVIEWSECTIONSTYLE
350
131
  0
ACDBDETAILVIEWSTYLE
  5
6B
102
{ACAD_REACTORS
330
6A
102
}
330
6A
100
AcDbModelDocViewStyle
 70
     0
  3
Imperial24
290
     1
300
Imperial24
 90
        0
100
AcDbDetailViewStyle
 70
     0
 71
     0
 90
        3
 71
     1
340
55
 62
   256
 40
0.24
340
0
 62
   256
 40
0.24
300

 40
0.36
280
     3
 71
     2
340
5D
 90
       25
 62
   256
 71
     3
340
55
 62
   256
 40
0.24
 90
        1
 40
0.75
 90
        1
300
%<\AcVar ViewType \f "%tc1">% %<\AcVar ViewDetailId>%\PSCALE %<\AcVar ViewScale \f "%sn">%
 71
     4
340
5D
 90
       25
 62
   256
340
5D
 90
       25
 62
   256
280
     0
  0
LAYOUT
  5
6F
102
{ACAD_REACTORS
330
62
102
}
330
62
100
AcDbPlotSettings
  1

  2

  4

  6

 40
0.0
 41
0.0
 42
0.0
 43
0.0
 44
0.0
 45
0.0
 46
0.0
 47
0.0
 48
0.0
 49
0.0
140
0.0
141
0.0
142
1.0
143
1.0
 70
   688
 72
     0
 73
     0
 74
     5
  7

 75
    16
147
1.0
 76
     0
 77
     2
 78
   300
148
0.0
149
0.0
100
AcDbLayout
  1
Layout1
 70
     1
 71
     1
 10
0.0
 20
0.0
 11
12.0
 21
9.0
 12
0.0
 22
0.0
 32
0.0
 14
0.0
 24
0.0
 34
0.0
 15
0.0
 25
0.0
 35
0.0
146
0.0
 13
0.0
 23
0.0
 33
0.0
 16
1.0
 26
0.0
 36
0.0
 17
0.0
 27
1.0
 37
0.0
 76
     0
330
6C
  0
LAYOUT
  5
77
102
{ACAD_REACTORS
330
62
102
}
330
62
100
AcDbPlotSettings
  1

  2

  4

  6

 40
0.0
 41
0.0
 42
0.0
 43
0.0
 44
0.0
 45
0.0
 46
0.0
 47
0.0
 48
0.0
 49
0.0
140
0.0
141
0.0
142
1.0
143
1.0
 70
   688
 72
     0
 73
     0
 74
     5
  7

 75
    16
147
1.0
 76
     0
 77
     2
 78
   300
148
0.0
149
0.0
100
AcDbLayout
  1
Layout2
 70
     1
 71
     2
 10
0.0
 20
0.0
 11
12.0
 21
9.0
 12
0.0
 22
0.0
 32
0.0
 14
0.0
 24
0.0
 34
0.0
 15
0.0
 25
0.0
 35
0.0
146
0.0
 13
0.0
 23
0.0
 33
0.0
 16
1.0
 26
0.0
 36
0.0
 17
0.0
 27
1.0
 37
0.0
 76
     0
330
74
  0
LAYOUT
  5
73
102
{ACAD_REACTORS
330
62
102
}
330
62
100
AcDbPlotSettings
  1

  2

  4

  6

 40
0.0
 41
0.0
 42
0.0
 43
0.0
 44
0.0
 45
0.0
 46
0.0
 47
0.0
 48
0.0
 49
0.0
140
0.0
141
0.0
142
1.0
143
1.0
 70
  1712
 72
     0
 73
     0
 74
     0
  7

 75
     0
147
1.0
 76
     0
 77
     2
 78
   300
148
0.0
149
0.0
100
AcDbLayout
  1
Model
 70
     1
 71
     0
 10
0.0
 20
0.0
 11
12.0
 21
9.0
 12
0.0
 22
0.0
 32
0.0
 14
0.0
 24
0.0
 34
0.0
 15
0.0
 25
0.0
 35
0.0
146
0.0
 13
0.0
 23
0.0
 33
0.0
 16
1.0
 26
0.0
 36
0.0
 17
0.0
 27
1.0
 37
0.0
 76
     0
330
70
  0
MATERIAL
  5
19
102
{ACAD_XDICTIONARY
360
1A
102
}
102
{ACAD_REACTORS
330
10
102
}
330
10
100
AcDbMaterial
  1
ByBlock
 72
     0
 43
0.0208333333333333
 43
0.0
 43
0.0
 43
0.0
 43
0.0
 43
0.0208333333333333
 43
0.0
 43
0.0
 43
0.0
 43
0.0
 43
1.0
 43
0.0
 43
0.0
 43
0.0
 43
0.0
 43
1.0
 77
     0
 47
0.0208333333333333
 47
0.0
 47
0.0
 47
0.0
 47
0.0
 47
0.0208333333333333
 47
0.0
 47
0.0
 47
0.0
 47
0.0
 47
1.0
 47
0.0
 47
0.0
 47
0.0
 47
0.0
 47
1.0
171
     0
 49
0.0208333333333333
 49
0.0
 49
0.0
 49
0.0
 49
0.0
 49
0.0208333333333333
 49
0.0
 49
0.0
 49
0.0
 49
0.0
 49
1.0
 49
0.0
 49
0.0
 49
0.0
 49
0.0
 49
1.0
175
     0
142
0.0208333333333333
142
0.0
142
0.0
142
0.0
142
0.0
142
0.0208333333333333
142
0.0
142
0.0
142
0.0
142
0.0
142
1.0
142
0.0
142
0.0
142
0.0
142
0.0
142
1.0
179
     0
144
0.0208333333333333
144
0.0
144
0.0
144
0.0
144
0.0
144
0.0208333333333333
144
0.0
144
0.0
144
0.0
144
0.0
144
1.0
144
0.0
144
0.0
144
0.0
144
0.0
144
1.0
147
0.0208333333333333
147
0.0
147
0.0
147
0.0
147
0.0
147
0.0208333333333333
147
0.0
147
0.0
147
0.0
147
0.0
147
1.0
147
0.0
147
0.0
147
0.0
147
0.0
147
1.0
  0
MATERIAL
  5
11
102
{ACAD_XDICTIONARY
360
12
102
}
102
{ACAD_REACTORS
330
10
102
}
330
10
100
AcDbMaterial
  1
ByLayer
 72
     0
 43
0.0208333333333333
 43
0.0
 43
0.0
 43
0.0
 43
0.0
 43
0.0208333333333333
 43
0.0
 43
0.0
 43
0.0
 43
0.0
 43
1.0
 43
0.0
 43
0.0
 43
0.0
 43
0.0
 43
1.0
 77
     0
 47
0.0208333333333333
 47
0.0
 47
0.0
 47
0.0
 47
0.0
 47
0.0208333333333333
 47
0.0
 47
0.0
 47
0.0
 47
0.0
 47
1.0
 47
0.0
 47
0.0
 47
0.0
 47
0.0
 47
1.0
171
     0
 49
0.0208333333333333
 49
0.0
 49
0.0
 49
0.0
 49
0.0
 49
0.0208333333333333
 49
0.0
 49
0.0
 49
0.0
 49
0.0
 49
1.0
 49
0.0
 49
0.0
 49
0.0
 49
0.0
 49
1.0
175
     0
142
0.0208333333333333
142
0.0
142
0.0
142
0.0
142
0.0
142
0.0208333333333333
142
0.0
142
0.0
142
0.0
142
0.0
142
1.0
142
0.0
142
0.0
142
0.0
142
0.0
142
1.0
179
     0
144
0.0208333333333333
144
0.0
144
0.0
144
0.0
144
0.0
144
0.0208333333333333
144
0.0
144
0.0
144
0.0
144
0.0
144
1.0
144
0.0
144
0.0
144
0.0
144
0.0
144
1.0
147
0.0208333333333333
147
0.0
147
0.0
147
0.0
147
0.0
147
0.0208333333333333
147
0.0
147
0.0
147
0.0
147
0.0
147
1.0
147
0.0
147
0.0
147
0.0
147
0.0
147
1.0
  0
MATERIAL
  5
21
102
{ACAD_XDICTIONARY
360
22
102
}
102
{ACAD_REACTORS
330
10
102
}
330
10
100
AcDbMaterial
  1
Global
 72
     0
 43
0.0208333333333333
 43
0.0
 43
0.0
 43
0.0
 43
0.0
 43
0.0208333333333333
 43
0.0
 43
0.0
 43
0.0
 43
0.0
 43
1.0
 43
0.0
 43
0.0
 43
0.0
 43
0.0
 43
1.0
 77
     0
 47
0.0208333333333333
 47
0.0
 47
0.0
 47
0.0
 47
0.0
 47
0.0208333333333333
 47
0.0
 47
0.0
 47
0.0
 47
0.0
 47
1.0
 47
0.0
 47
0.0
 47
0.0
 47
0.0
 47
1.0
171
     0
 49
0.0208333333333333
 49
0.0
 49
0.0
 49
0.0
 49
0.0
 49
0.0208333333333333
 49
0.0
 49
0.0
 49
0.0
 49
0.0
 49
1.0
 49
0.0
 49
0.0
 49
0.0
 49
0.0
 49
1.0
175
     0
142
0.0208333333333333
142
0.0
142
0.0
142
0.0
142
0.0
142
0.0208333333333333
142
0.0
142
0.0
142
0.0
142
0.0
142
1.0
142
0.0
142
0.0
142
0.0
142
0.0
142
1.0
179
     0
144
0.0208333333333333
144
0.0
144
0.0
144
0.0
144
0.0
144
0.0208333333333333
144
0.0
144
0.0
144
0.0
144
0.0
144
1.0
144
0.0
144
0.0
144
0.0
144
0.0
144
1.0
147
0.0208333333333333
147
0.0
147
0.0
147
0.0
147
0.0
147
0.0208333333333333
147
0.0
147
0.0
147
0.0
147
0.0
147
1.0
147
0.0
147
0.0
147
0.0
147
0.0
147
1.0
  0
MLEADERSTYLE
  5
67
102
{ACAD_REACTORS
330
66
102
}
330
66
100
AcDbMLeaderStyle
179
     2
170
     2
171
     1
172
     0
 90
        2
 40
0.0
 41
0.0
173
     1
 91
-1056964608
340
5B
 92
       -2
290
     1
 42
0.09
291
     1
 43
0.36
  3
Standard
 44
0.18
300

342
55
174
     1
178
     6
175
     1
176
     0
 93
-1056964608
 45
0.18
292
     0
297
     0
 46
0.18
 94
-1056964608
 47
1.0
 49
1.0
140
1.0
293
     1
141
0.0
294
     1
177
     0
142
1.0
295
     1
296
     0
143
0.125
271
     0
272
     9
273
     9
298
     1
  0
MLINESTYLE
  5
60
102
{ACAD_REACTORS
330
5F
102
}
330
5F
100
AcDbMlineStyle
  2
STANDARD
 70
     0
  3

 62
   256
 51
90.0
 52
90.0
 71
     2
 49
0.5
 62
   256
  6
BYLAYER
 49
-0.5
 62
   256
  6
BYLAYER
  0
ACDBPLACEHOLDER
  5
F
102
{ACAD_REACTORS
330
E
102
}
330
E
  0
SCALE
  5
43
102
{ACAD_REACTORS
330
42
102
}
330
42
100
AcDbScale
 70
     0
300
1:1
140
1.0
141
1.0
290
     1
  0
SCALE
  5
44
102
{ACAD_REACTORS
330
42
102
}
330
42
100
AcDbScale
 70
     0
300
1/128" = 1'-0"
140
0.0078125
141
12.0
290
     0
  0
SCALE
  5
45
102
{ACAD_REACTORS
330
42
102
}
330
42
100
AcDbScale
 70
     0
300
1/64" = 1'-0"
140
0.015625
141
12.0
290
     0
  0
SCALE
  5
46
102
{ACAD_REACTORS
330
42
102
}
330
42
100
AcDbScale
 70
     0
300
1/32" = 1'-0"
140
0.03125
141
12.0
290
     0
  0
SCALE
  5
47
102
{ACAD_REACTORS
330
42
102
}
330
42
100
AcDbScale
 70
     0
300
1/16" = 1'-0"
140
0.0625
141
12.0
290
     0
  0
SCALE
  5
48
102
{ACAD_REACTORS
330
42
102
}
330
42
100
AcDbScale
 70
     0
300
3/32" = 1'-0"
140
0.09375
141
12.0
290
     0
  0
SCALE
  5
49
102
{ACAD_REACTORS
330
42
102
}
330
42
100
AcDbScale
 70
     0
300
1/8" = 1'-0"
140
0.125
141
12.0
290
     0
  0
SCALE
  5
4A
102
{ACAD_REACTORS
330
42
102
}
330
42
100
AcDbScale
 70
     0
300
3/16" = 1'-0"
140
0.1875
141
12.0
290
     0
  0
SCALE
  5
4B
102
{ACAD_REACTORS
330
42
102
}
330
42
100
AcDbScale
 70
     0
300
1/4" = 1'-0"
140
0.25
141
12.0
290
     0
  0
SCALE
  5
4C
102
{ACAD_REACTORS
330
42
102
}
330
42
100
AcDbScale
 70
     0
300
3/8" = 1'-0"
140
0.375
141
12.0
290
     0
  0
SCALE
  5
4D
102
{ACAD_REACTORS
330
42
102
}
330
42
100
AcDbScale
 70
     0
300
1/2" = 1'-0"
140
0.5
141
12.0
290
     0
  0
SCALE
  5
4E
102
{ACAD_REACTORS
330
42
102
}
330
42
100
AcDbScale
 70
     0
300
3/4" = 1'-0"
140
0.75
141
12.0
290
     0
  0
SCALE
  5
4F
102
{ACAD_REACTORS
330
42
102
}
330
42
100
AcDbScale
 70
     0
300
1" = 1'-0"
140
1.0
141
12.0
290
     0
  0
SCALE
  5
50
102
{ACAD_REACTORS
330
42
102
}
330
42
100
AcDbScale
 70
     0
300
1-1/2" = 1'-0"
140
1.5
141
12.0
290
     0
  0
SCALE
  5
51
102
{ACAD_REACTORS
330
42
102
}
330
42
100
AcDbScale
 70
     0
300
3" = 1'-0"
140
3.0
141
12.0
290
     0
  0
SCALE
  5
52
102
{ACAD_REACTORS
330
42
102
}
330
42
100
AcDbScale
 70
     0
300
6" = 1'-0"
140
6.0
141
12.0
290
     0
  0
SCALE
  5
53
102
{ACAD_REACTORS
330
42
102
}
330
42
100
AcDbScale
 70
     0
300
1'-0" = 1'-0"
140
12.0
141
12.0
290
     0
  0
ACDBSECTIONVIEWSTYLE
  5
69
102
{ACAD_REACTORS
330
68
102
}
330
68
100
AcDbModelDocViewStyle
 70
     0
  3
Imperial24
290
     1
300
Imperial24
 90
        0
100
AcDbSectionViewStyle
 70
     0
 71
     0
 90
       78
 71
     1
340
55
 62
   256
 40
0.24
340
0
340
0
 62
   256
 40
0.24
300
I, O, Q, S, X, Z
 40
0.48
 90
        3
 40
0.18
 90
        1
 71
     2
340
5D
 90
       25
 62
   256
340
5D
 90
       50
 62
   256
 40
0.24
 40
0.0
 40
0.24
 71
     3
340
55
 62
   256
 40
0.24
 90
        1
 40
0.75
 90
        1
300
%<\AcVar ViewType \f "%tc1">% %<\AcVar ViewSectionStartId>%-%<\AcVar ViewSectionEndId>%\PSCALE %<\AcVar ViewScale \f "%sn">%
 71
     4
 62
   256
 62
   257
300
ANSI31
 40
1.0
 90
        0
290
     0
290
     0
 90
        6
 40
0.0
 40
1.570796326794896
 40
0.2617993877991494
 40
1.308996938995747
 40
-0.2617993877991494
 40
1.832595714594046
  0
TABLESTYLE
  5
65
102
{ACAD_XDICTIONARY
360
133
102
}
102
{ACAD_REACTORS
330
64
102
}
330
64
100
AcDbTableStyle
280
     0
  3
Standard
 70
     0
 71
     0
 40
0.06
 41
0.06
280
     0
281
     0
  7
Standard
140
0.18
170
     2
 62
     0
 63
     7
283
     0
 90
      512
 91
        0
  1

274
    -2
284
     1
 64
     0
275
    -2
285
     1
 65
     0
276
    -2
286
     1
 66
     0
277
    -2
287
     1
 67
     0
278
    -2
288
     1
 68
     0
279
    -2
289
     1
 69
     0
  7
Standard
140
0.25
170
     5
 62
     0
 63
     7
283
     0
 90
      512
 91
        0
  1

274
    -2
284
     1
 64
     0
275
    -2
285
     1
 65
     0
276
    -2
286
     1
 66
     0
277
    -2
287
     1
 67
     0
278
    -2
288
     1
 68
     0
279
    -2
289
     1
 69
     0
  7
Standard
140
0.18
170
     5
 62
     0
 63
     7
283
     0
 90
      512
 91
        0
  1

274
    -2
284
     1
 64
     0
275
    -2
285
     1
 65
     0
276
    -2
286
     1
 66
     0
277
    -2
287
     1
 67
     0
278
    -2
288
     1
 68
     0
279
    -2
289
     1
 69
     0
  0
VISUALSTYLE
  5
2F
102
{ACAD_REACTORS
330
29
102
}
330
29
100
AcDbVisualStyle
  2
2dWireframe
 70
     4
177
     3
291
     0
 70
    58
 90
        0
176
     1
 90
        2
176
     1
 90
        0
176
     1
 90
        0
176
     1
 40
0.6
176
     1
 40
30.0
176
     1
 62
     7
420
 16777215
176
     1
 90
        1
176
     1
 90
        4
176
     1
 62
     7
176
     1
 62
   257
176
     1
 90
        1
176
     1
 90
        1
176
     1
 40
1.0
176
     1
 90
        0
176
     1
 62
   257
176
     1
 40
1.0
176
     1
 90
        1
176
     1
 90
        6
176
     1
 90
        2
176
     1
 62
     7
176
     1
 90
        5
176
     1
 90
        0
176
     1
 90
        0
176
     1
290
     0
176
     1
 90
        1
176
     1
 40
0.0
176
     1
 90
        0
176
     1
290
     1
176
     1
290
     1
176
     1
290
     0
176
     1
290
     0
176
     1
290
     0
176
     1
290
     0
176
     1
290
     0
176
     1
290
     0
176
     1
290
     0
176
     1
 90
       50
176
     1
 40
0.0
176
     1
 40
1.0
176
     1
 90
        0
176
     1
 62
    18
420
        0
176
     1
 90
       50
176
     1
 90
        3
176
     1
 62
     5
420
      255
176
     1
290
     0
176
     1
 90
       50
176
     1
 90
       50
176
     1
 90
       50
176
     1
290
     0
176
     1
 90
       50
176
     1
 62
   256
176
     0
 40
1.0
176
     0
 90
        2
176
     1
  1
strokes_ogs.tif
176
     1
290
     0
176
     1
 40
1.0
176
     1
 40
1.0
176
     1
  0
VISUALSTYLE
  5
2E
102
{ACAD_REACTORS
330
29
102
}
330
29
100
AcDbVisualStyle
  2
Basic
 70
     7
177
     3
291
     1
 70
    58
 90
        1
176
     1
 90
        0
176
     1
 90
        1
176
     1
 90
        0
176
     1
 40
0.6
176
     1
 40
30.0
176
     1
 62
     7
420
 16777215
176
     1
 90
        0
176
     1
 90
        4
176
     1
 62
     7
176
     1
 62
   257
176
     1
 90
        1
176
     1
 90
        1
176
     1
 40
1.0
176
     1
 90
        8
176
     1
 62
     7
176
     1
 40
1.0
176
     1
 90
        1
176
     1
 90
        6
176
     1
 90
        2
176
     1
 62
     7
176
     1
 90
        5
176
     1
 90
        0
176
     1
 90
        0
176
     1
290
     0
176
     1
 90
        1
176
     1
 40
0.0
176
     1
 90
        0
176
     1
290
     0
176
     1
290
     1
176
     1
290
     1
176
     1
290
     0
176
     1
290
     0
176
     1
290
     0
176
     1
290
     0
176
     1
290
     0
176
     1
290
     0
176
     1
 90
       50
176
     1
 40
0.0
176
     1
 40
1.0
176
     1
 90
        0
176
     1
 62
    18
420
        0
176
     1
 90
       50
176
     1
 90
        3
176
     1
 62
     5
420
      255
176
     1
290
     0
176
     1
 90
       50
176
     1
 90
       50
176
     1
 90
       50
176
     1
290
     0
176
     1
 90
       50
176
     1
 62
   256
176
     0
 40
1.0
176
     0
 90
        2
176
     1
  1
strokes_ogs.tif
176
     1
290
     0
176
     1
 40
1.0
176
     1
 40
1.0
176
     1
  0
VISUALSTYLE
  5
35
102
{ACAD_REACTORS
330
29
102
}
330
29
100
AcDbVisualStyle
  2
Brighten
 70
    12
177
     3
291
     1
 70
    58
 90
        2
176
     1
 90
        2
176
     1
 90
        0
176
     1
 90
        0
176
     1
 40
0.6
176
     1
 40
30.0
176
     1
 62
     7
420
 16777215
176
     1
 90
        1
176
     1
 90
        4
176
     1
 62
     7
176
     1
 62
   257
176
     1
 90
        1
176
     1
 90
        1
176
     1
 40
1.0
176
     1
 90
        8
176
     1
 62
     7
176
     1
 40
1.0
176
     1
 90
        1
176
     1
 90
        6
176
     1
 90
        2
176
     1
 62
     7
176
     1
 90
        5
176
     1
 90
        0
176
     1
 90
        0
176
     1
290
     0
176
     1
 90
        1
176
     1
 40
50.0
176
     1
 90
        0
176
     1
290
     0
176
     1
290
     1
176
     1
290
     1
176
     1
290
     0
176
     1
290
     0
176
     1
290
     0
176
     1
290
     0
176
     1
290
     0
176
     1
290
     0
176
     1
 90
       50
176
     1
 40
0.0
176
     1
 40
1.0
176
     1
 90
        0
176
     1
 62
    18
420
        0
176
     1
 90
       50
176
     1
 90
        3
176
     1
 62
     5
420
      255
176
     1
290
     0
176
     1
 90
       50
176
     1
 90
       50
176
     1
 90
       50
176
     1
290
     0
176
     1
 90
       50
176
     1
 62
   256
176
     0
 40
1.0
176
     0
 90
        2
176
     1
  1
strokes_ogs.tif
176
     1
290
     0
176
     1
 40
1.0
176
     1
 40
1.0
176
     1
  0
VISUALSTYLE
  5
39
102
{ACAD_REACTORS
330
29
102
}
330
29
100
AcDbVisualStyle
  2
ColorChange
 70
    16
177
     3
291
     1
 70
    58
 90
        2
176
     1
 90
        2
176
     1
 90
        3
176
     1
 90
        0
176
     1
 40
0.6
176
     1
 40
30.0
176
     1
 62
     8
420
  8421504
176
     1
 90
        1
176
     1
 90
        4
176
     1
 62
     7
176
     1
 62
   257
176
     1
 90
        1
176
     1
 90
        1
176
     1
 40
1.0
176
     1
 90
        8
176
     1
 62
     8
420
  8421504
176
     1
 40
1.0
176
     1
 90
        1
176
     1
 90
        6
176
     1
 90
        2
176
     1
 62
     7
176
     1
 90
        5
176
     1
 90
        0
176
     1
 90
        0
176
     1
290
     0
176
     1
 90
        1
176
     1
 40
0.0
176
     1
 90
        0
176
     1
290
     0
176
     1
290
     1
176
     1
290
     1
176
     1
290
     0
176
     1
290
     0
176
     1
290
     0
176
     1
290
     0
176
     1
290
     0
176
     1
290
     0
176
     1
 90
       50
176
     1
 40
0.0
176
     1
 40
1.0
176
     1
 90
        0
176
     1
 62
    18
420
        0
176
     1
 90
       50
176
     1
 90
        3
176
     1
 62
     5
420
      255
176
     1
290
     0
176
     1
 90
       50
176
     1
 90
       50
176
     1
 90
       50
176
     1
290
     0
176
     1
 90
       50
176
     1
 62
   256
176
     0
 40
1.0
176
     0
 90
        2
176
     1
  1
strokes_ogs.tif
176
     1
290
     0
176
     1
 40
1.0
176
     1
 40
1.0
176
     1
  0
VISUALSTYLE
  5
32
102
{ACAD_REACTORS
330
29
102
}
330
29
100
AcDbVisualStyle
  2
Conceptual
 70
     9
177
     3
291
     0
 70
    58
 90
        3
176
     1
 90
        2
176
     1
 90
        0
176
     1
 90
        0
176
     1
 40
0.6
176
     1
 40
30.0
176
     1
 62
     7
420
 16777215
176
     1
 90
        2
176
     1
 90
        2
176
     1
 62
     7
176
     1
 62
   257
176
     1
 90
        1
176
     1
 90
        1
176
     1
 40
179.0
176
     1
 90
        8
176
     1
 62
     7
176
     1
 40
1.0
176
     1
 90
        1
176
     1
 90
        6
176
     1
 90
        2
176
     1
 62
     7
176
     1
 90
        3
176
     1
 90
        0
176
     1
 90
        0
176
     1
290
     0
176
     1
 90
        1
176
     1
 40
0.0
176
     1
 90
        0
176
     1
290
     0
176
     1
290
     1
176
     1
290
     1
176
     1
290
     0
176
     1
290
     0
176
     1
290
     0
176
     1
290
     0
176
     1
290
     0
176
     1
290
     0
176
     1
 90
       50
176
     1
 40
0.0
176
     1
 40
1.0
176
     1
 90
        0
176
     1
 62
    18
420
        0
176
     1
 90
       50
176
     1
 90
        3
176
     1
 62
     5
420
      255
176
     1
290
     0
176
     1
 90
       50
176
     1
 90
       50
176
     1
 90
       50
176
     1
290
     0
176
     1
 90
       50
176
     1
 62
   256
176
     0
 40
1.0
176
     0
 90
        2
176
     1
  1
strokes_ogs.tif
176
     1
290
     0
176
     1
 40
1.0
176
     1
 40
1.0
176
     1
  0
VISUALSTYLE
  5
34
102
{ACAD_REACTORS
330
29
102
}
330
29
100
AcDbVisualStyle
  2
Dim
 70
    11
177
     3
291
     1
 70
    58
 90
        2
176
     1
 90
        2
176
     1
 90
        0
176
     1
 90
        0
176
     1
 40
0.6
176
     1
 40
30.0
176
     1
 62
     7
420
 16777215
176
     1
 90
        1
176
     1
 90
        4
176
     1
 62
     7
176
     1
 62
   257
176
     1
 90
        1
176
     1
 90
        1
176
     1
 40
1.0
176
     1
 90
        8
176
     1
 62
     7
176
     1
 40
1.0
176
     1
 90
        1
176
     1
 90
        6
176
     1
 90
        2
176
     1
 62
     7
176
     1
 90
        5
176
     1
 90
        0
176
     1
 90
        0
176
     1
290
     0
176
     1
 90
        1
176
     1
 40
-50.0
176
     1
 90
        0
176
     1
290
     0
176
     1
290
     1
176
     1
290
     1
176
     1
290
     0
176
     1
290
     0
176
     1
290
     0
176
     1
290
     0
176
     1
290
     0
176
     1
290
     0
176
     1
 90
       50
176
     1
 40
0.0
176
     1
 40
1.0
176
     1
 90
        0
176
     1
 62
    18
420
        0
176
     1
 90
       50
176
     1
 90
        3
176
     1
 62
     5
420
      255
176
     1
290
     0
176
     1
 90
       50
176
     1
 90
       50
176
     1
 90
       50
176
     1
290
     0
176
     1
 90
       50
176
     1
 62
   256
176
     0
 40
1.0
176
     0
 90
        2
176
     1
  1
strokes_ogs.tif
176
     1
290
     0
176
     1
 40
1.0
176
     1
 40
1.0
176
     1
  0
VISUALSTYLE
  5
41
102
{ACAD_REACTORS
330
29
102
}
330
29
100
AcDbVisualStyle
  2
EdgeColorOff
 70
    22
177
     3
291
     1
 70
    58
 90
        2
176
     0
 90
        2
176
     0
 90
        0
176
     0
 90
        0
176
     0
 40
0.6
176
     0
 40
30.0
176
     0
 62
     7
420
 16777215
176
     0
 90
        1
176
     0
 90
        4
176
     0
 62
     7
176
     0
 62
   257
176
     0
 90
        1
176
     0
 90
        1
176
     0
 40
1.0
176
     0
 90
        8
176
     2
 62
     7
176
     0
 40
1.0
176
     0
 90
        1
176
     0
 90
        6
176
     0
 90
        2
176
     0
 62
     7
176
     0
 90
        5
176
     0
 90
        0
176
     0
 90
        0
176
     0
290
     0
176
     0
 90
        1
176
     0
 40
0.0
176
     0
 90
        0
176
     0
290
     0
176
     0
290
     1
176
     0
290
     1
176
     0
290
     0
176
     0
290
     0
176
     0
290
     0
176
     0
290
     0
176
     0
290
     0
176
     0
290
     0
176
     0
 90
       50
176
     0
 40
0.0
176
     0
 40
1.0
176
     0
 90
        0
176
     0
 62
    18
420
        0
176
     0
 90
       50
176
     0
 90
        3
176
     0
 62
     5
420
      255
176
     0
290
     0
176
     0
 90
       50
176
     0
 90
       50
176
     0
 90
       50
176
     0
290
     0
176
     0
 90
       50
176
     0
 62
   256
176
     0
 40
1.0
176
     0
 90
        2
176
     0
  1
strokes_ogs.tif
176
     0
290
     0
176
     0
 40
1.0
176
     0
 40
1.0
176
     0
  0
VISUALSTYLE
  5
38
102
{ACAD_REACTORS
330
29
102
}
330
29
100
AcDbVisualStyle
  2
Facepattern
 70
    15
177
     3
291
     1
 70
    58
 90
        2
176
     1
 90
        2
176
     1
 90
        0
176
     1
 90
        0
176
     1
 40
0.6
176
     1
 40
30.0
176
     1
 62
     7
420
 16777215
176
     1
 90
        1
176
     1
 90
        4
176
     1
 62
     7
176
     1
 62
   257
176
     1
 90
        1
176
     1
 90
        1
176
     1
 40
1.0
176
     1
 90
        8
176
     1
 62
     7
176
     1
 40
1.0
176
     1
 90
        1
176
     1
 90
        6
176
     1
 90
        2
176
     1
 62
     7
176
     1
 90
        5
176
     1
 90
        0
176
     1
 90
        0
176
     1
290
     0
176
     1
 90
        1
176
     1
 40
0.0
176
     1
 90
        0
176
     1
290
     0
176
     1
290
     1
176
     1
290
     1
176
     1
290
     0
176
     1
290
     0
176
     1
290
     0
176
     1
290
     0
176
     1
290
     0
176
     1
290
     0
176
     1
 90
       50
176
     1
 40
0.0
176
     1
 40
1.0
176
     1
 90
        0
176
     1
 62
    18
420
        0
176
     1
 90
       50
176
     1
 90
        3
176
     1
 62
     5
420
      255
176
     1
290
     0
176
     1
 90
       50
176
     1
 90
       50
176
     1
 90
       50
176
     1
290
     0
176
     1
 90
       50
176
     1
 62
   256
176
     0
 40
1.0
176
     0
 90
        2
176
     1
  1
strokes_ogs.tif
176
     1
290
     0
176
     1
 40
1.0
176
     1
 40
1.0
176
     1
  0
VISUALSTYLE
  5
2A
102
{ACAD_REACTORS
330
29
102
}
330
29
100
AcDbVisualStyle
  2
Flat
 70
     0
177
     3
291
     1
 70
    58
 90
        2
176
     1
 90
        1
176
     1
 90
        1
176
     1
 90
        2
176
     1
 40
0.6
176
     1
 40
30.0
176
     1
 62
     7
420
 16777215
176
     1
 90
        0
176
     1
 90
        0
176
     1
 62
     7
176
     1
 62
   257
176
     1
 90
        1
176
     1
 90
        1
176
     1
 40
1.0
176
     1
 90
        8
176
     1
 62
     7
176
     1
 40
1.0
176
     1
 90
        1
176
     1
 90
        6
176
     1
 90
        2
176
     1
 62
     7
176
     1
 90
        5
176
     1
 90
        0
176
     1
 90
        0
176
     1
290
     0
176
     1
 90
       13
176
     1
 40
0.0
176
     1
 90
        0
176
     1
290
     0
176
     1
290
     1
176
     1
290
     1
176
     1
290
     0
176
     1
290
     0
176
     1
290
     0
176
     1
290
     0
176
     1
290
     0
176
     1
290
     0
176
     1
 90
       50
176
     1
 40
0.0
176
     1
 40
1.0
176
     1
 90
        0
176
     1
 62
    18
420
        0
176
     1
 90
       50
176
     1
 90
        3
176
     1
 62
     5
420
      255
176
     1
290
     0
176
     1
 90
       50
176
     1
 90
       50
176
     1
 90
       50
176
     1
290
     0
176
     1
 90
       50
176
     1
 62
   256
176
     0
 40
1.0
176
     0
 90
        2
176
     1
  1
strokes_ogs.tif
176
     1
290
     0
176
     1
 40
1.0
176
     1
 40
1.0
176
     1
  0
VISUALSTYLE
  5
2B
102
{ACAD_REACTORS
330
29
102
}
330
29
100
AcDbVisualStyle
  2
FlatWithEdges
 70
     1
177
     3
291
     1
 70
    58
 90
        2
176
     1
 90
        1
176
     1
 90
        1
176
     1
 90
        2
176
     1
 40
0.6
176
     1
 40
30.0
176
     1
 62
     7
420
 16777215
176
     1
 90
        1
176
     1
 90
        0
176
     1
 62
     7
176
     1
 62
   257
176
     1
 90
        1
176
     1
 90
        1
176
     1
 40
1.0
176
     1
 90
        0
176
     1
 62
   257
176
     1
 40
1.0
176
     1
 90
        1
176
     1
 90
        6
176
     1
 90
        2
176
     1
 62
     7
176
     1
 90
        5
176
     1
 90
        0
176
     1
 90
        0
176
     1
290
     0
176
     1
 90
       13
176
     1
 40
0.0
176
     1
 90
        0
176
     1
290
     0
176
     1
290
     1
176
     1
290
     1
176
     1
290
     0
176
     1
290
     0
176
     1
290
     0
176
     1
290
     0
176
     1
290
     0
176
     1
290
     0
176
     1
 90
       50
176
     1
 40
0.0
176
     1
 40
1.0
176
     1
 90
        0
176
     1
 62
    18
420
        0
176
     1
 90
       50
176
     1
 90
        3
176
     1
 62
     5
420
      255
176
     1
290
     0
176
     1
 90
       50
176
     1
 90
       50
176
     1
 90
       50
176
     1
290
     0
176
     1
 90
       50
176
     1
 62
   256
176
     0
 40
1.0
176
     0
 90
        2
176
     1
  1
strokes_ogs.tif
176
     1
290
     0
176
     1
 40
1.0
176
     1
 40
1.0
176
     1
  0
VISUALSTYLE
  5
2C
102
{ACAD_REACTORS
330
29
102
}
330
29
100
AcDbVisualStyle
  2
Gouraud
 70
     2
177
     3
291
     1
 70
    58
 90
        2
176
     1
 90
        2
176
     1
 90
        1
176
     1
 90
        2
176
     1
 40
0.6
176
     1
 40
30.0
176
     1
 62
     7
420
 16777215
176
     1
 90
        0
176
     1
 90
        0
176
     1
 62
     7
176
     1
 62
   257
176
     1
 90
        1
176
     1
 90
        1
176
     1
 40
1.0
176
     1
 90
        0
176
     1
 62
     7
176
     1
 40
1.0
176
     1
 90
        1
176
     1
 90
        6
176
     1
 90
        2
176
     1
 62
     7
176
     1
 90
        5
176
     1
 90
        0
176
     1
 90
        0
176
     1
290
     0
176
     1
 90
       13
176
     1
 40
0.0
176
     1
 90
        0
176
     1
290
     0
176
     1
290
     1
176
     1
290
     1
176
     1
290
     0
176
     1
290
     0
176
     1
290
     0
176
     1
290
     0
176
     1
290
     0
176
     1
290
     0
176
     1
 90
       50
176
     1
 40
0.0
176
     1
 40
1.0
176
     1
 90
        0
176
     1
 62
    18
420
        0
176
     1
 90
       50
176
     1
 90
        3
176
     1
 62
     5
420
      255
176
     1
290
     0
176
     1
 90
       50
176
     1
 90
       50
176
     1
 90
       50
176
     1
290
     0
176
     1
 90
       50
176
     1
 62
   256
176
     0
 40
1.0
176
     0
 90
        2
176
     1
  1
strokes_ogs.tif
176
     1
290
     0
176
     1
 40
1.0
176
     1
 40
1.0
176
     1
  0
VISUALSTYLE
  5
2D
102
{ACAD_REACTORS
330
29
102
}
330
29
100
AcDbVisualStyle
  2
GouraudWithEdges
 70
     3
177
     3
291
     1
 70
    58
 90
        2
176
     1
 90
        2
176
     1
 90
        1
176
     1
 90
        2
176
     1
 40
0.6
176
     1
 40
30.0
176
     1
 62
     7
420
 16777215
176
     1
 90
        1
176
     1
 90
        0
176
     1
 62
     7
176
     1
 62
   257
176
     1
 90
        1
176
     1
 90
        1
176
     1
 40
1.0
176
     1
 90
        0
176
     1
 62
   257
176
     1
 40
1.0
176
     1
 90
        1
176
     1
 90
        6
176
     1
 90
        2
176
     1
 62
     7
176
     1
 90
        5
176
     1
 90
        0
176
     1
 90
        0
176
     1
290
     0
176
     1
 90
       13
176
     1
 40
0.0
176
     1
 90
        0
176
     1
290
     0
176
     1
290
     1
176
     1
290
     1
176
     1
290
     0
176
     1
290
     0
176
     1
290
     0
176
     1
290
     0
176
     1
290
     0
176
     1
290
     0
176
     1
 90
       50
176
     1
 40
0.0
176
     1
 40
1.0
176
     1
 90
        0
176
     1
 62
    18
420
        0
176
     1
 90
       50
176
     1
 90
        3
176
     1
 62
     5
420
      255
176
     1
290
     0
176
     1
 90
       50
176
     1
 90
       50
176
     1
 90
       50
176
     1
290
     0
176
     1
 90
       50
176
     1
 62
   256
176
     0
 40
1.0
176
     0
 90
        2
176
     1
  1
strokes_ogs.tif
176
     1
290
     0
176
     1
 40
1.0
176
     1
 40
1.0
176
     1
  0
VISUALSTYLE
  5
31
102
{ACAD_REACTORS
330
29
102
}
330
29
100
AcDbVisualStyle
  2
Hidden
 70
     6
177
     3
291
     0
 70
    58
 90
        1
176
     1
 90
        2
176
     1
 90
        2
176
     1
 90
        0
176
     1
 40
0.6
176
     1
 40
30.0
176
     1
 62
     7
420
 16777215
176
     1
 90
        2
176
     1
 90
        2
176
     1
 62
     7
176
     1
 62
   257
176
     1
 90
        2
176
     1
 90
        1
176
     1
 40
40.0
176
     1
 90
        0
176
     1
 62
   257
176
     1
 40
1.0
176
     1
 90
        1
176
     1
 90
        6
176
     1
 90
        2
176
     1
 62
     7
176
     1
 90
        3
176
     1
 90
        0
176
     1
 90
        0
176
     1
290
     0
176
     1
 90
        1
176
     1
 40
0.0
176
     1
 90
        0
176
     1
290
     0
176
     1
290
     1
176
     1
290
     1
176
     1
290
     0
176
     1
290
     0
176
     1
290
     0
176
     1
290
     0
176
     1
290
     0
176
     1
290
     0
176
     1
 90
       50
176
     1
 40
0.0
176
     1
 40
1.0
176
     1
 90
        0
176
     1
 62
    18
420
        0
176
     1
 90
       50
176
     1
 90
        3
176
     1
 62
     5
420
      255
176
     1
290
     0
176
     1
 90
       50
176
     1
 90
       50
176
     1
 90
       50
176
     1
290
     0
176
     1
 90
       50
176
     1
 62
   256
176
     0
 40
1.0
176
     0
 90
        2
176
     1
  1
strokes_ogs.tif
176
     1
290
     0
176
     1
 40
1.0
176
     1
 40
1.0
176
     1
  0
VISUALSTYLE
  5
3F
102
{ACAD_REACTORS
330
29
102
}
330
29
100
AcDbVisualStyle
  2
JitterOff
 70
    20
177
     3
291
     1
 70
    58
 90
        2
176
     0
 90
        2
176
     0
 90
        0
176
     0
 90
        0
176
     0
 40
0.6
176
     0
 40
30.0
176
     0
 62
     7
420
 16777215
176
     0
 90
        1
176
     0
 90
        4
176
     0
 62
     7
176
     0
 62
   257
176
     0
 90
        1
176
     0
 90
        1
176
     0
 40
1.0
176
     0
 90
       10
176
     2
 62
     7
176
     0
 40
1.0
176
     0
 90
        1
176
     0
 90
        6
176
     0
 90
        2
176
     0
 62
     7
176
     0
 90
        5
176
     0
 90
        0
176
     0
 90
        0
176
     0
290
     0
176
     0
 90
        1
176
     0
 40
0.0
176
     0
 90
        0
176
     0
290
     0
176
     0
290
     1
176
     0
290
     1
176
     0
290
     0
176
     0
290
     0
176
     0
290
     0
176
     0
290
     0
176
     0
290
     0
176
     0
290
     0
176
     0
 90
       50
176
     0
 40
0.0
176
     0
 40
1.0
176
     0
 90
        0
176
     0
 62
    18
420
        0
176
     0
 90
       50
176
     0
 90
        3
176
     0
 62
     5
420
      255
176
     0
290
     0
176
     0
 90
       50
176
     0
 90
       50
176
     0
 90
       50
176
     0
290
     0
176
     0
 90
       50
176
     0
 62
   256
176
     0
 40
1.0
176
     0
 90
        2
176
     0
  1
strokes_ogs.tif
176
     0
290
     0
176
     0
 40
1.0
176
     0
 40
1.0
176
     0
  0
VISUALSTYLE
  5
37
102
{ACAD_REACTORS
330
29
102
}
330
29
100
AcDbVisualStyle
  2
Linepattern
 70
    14
177
     3
291
     1
 70
    58
 90
        2
176
     1
 90
        2
176
     1
 90
        0
176
     1
 90
        0
176
     1
 40
0.6
176
     1
 40
30.0
176
     1
 62
     7
420
 16777215
176
     1
 90
        1
176
     1
 90
        4
176
     1
 62
     7
176
     1
 62
   257
176
     1
 90
        7
176
     1
 90
        7
176
     1
 40
1.0
176
     1
 90
        8
176
     1
 62
     7
176
     1
 40
1.0
176
     1
 90
        1
176
     1
 90
        6
176
     1
 90
        2
176
     1
 62
     7
176
     1
 90
        5
176
     1
 90
        0
176
     1
 90
        0
176
     1
290
     0
176
     1
 90
        1
176
     1
 40
0.0
176
     1
 90
        0
176
     1
290
     0
176
     1
290
     1
176
     1
290
     1
176
     1
290
     0
176
     1
290
     0
176
     1
290
     0
176
     1
290
     0
176
     1
290
     0
176
     1
290
     0
176
     1
 90
       50
176
     1
 40
0.0
176
     1
 40
1.0
176
     1
 90
        0
176
     1
 62
    18
420
        0
176
     1
 90
       50
176
     1
 90
        3
176
     1
 62
     5
420
      255
176
     1
290
     0
176
     1
 90
       50
176
     1
 90
       50
176
     1
 90
       50
176
     1
290
     0
176
     1
 90
       50
176
     1
 62
   256
176
     0
 40
1.0
176
     0
 90
        2
176
     1
  1
strokes_ogs.tif
176
     1
290
     0
176
     1
 40
1.0
176
     1
 40
1.0
176
     1
  0
VISUALSTYLE
  5
40
102
{ACAD_REACTORS
330
29
102
}
330
29
100
AcDbVisualStyle
  2
OverhangOff
 70
    21
177
     3
291
     1
 70
    58
 90
        2
176
     0
 90
        2
176
     0
 90
        0
176
     0
 90
        0
176
     0
 40
0.6
176
     0
 40
30.0
176
     0
 62
     7
420
 16777215
176
     0
 90
        1
176
     0
 90
        4
176
     0
 62
     7
176
     0
 62
   257
176
     0
 90
        1
176
     0
 90
        1
176
     0
 40
1.0
176
     0
 90
        9
176
     2
 62
     7
176
     0
 40
1.0
176
     0
 90
        1
176
     0
 90
        6
176
     0
 90
        2
176
     0
 62
     7
176
     0
 90
        5
176
     0
 90
        0
176
     0
 90
        0
176
     0
290
     0
176
     0
 90
        1
176
     0
 40
0.0
176
     0
 90
        0
176
     0
290
     0
176
     0
290
     1
176
     0
290
     1
176
     0
290
     0
176
     0
290
     0
176
     0
290
     0
176
     0
290
     0
176
     0
290
     0
176
     0
290
     0
176
     0
 90
       50
176
     0
 40
0.0
176
     0
 40
1.0
176
     0
 90
        0
176
     0
 62
    18
420
        0
176
     0
 90
       50
176
     0
 90
        3
176
     0
 62
     5
420
      255
176
     0
290
     0
176
     0
 90
       50
176
     0
 90
       50
176
     0
 90
       50
176
     0
290
     0
176
     0
 90
       50
176
     0
 62
   256
176
     0
 40
1.0
176
     0
 90
        2
176
     0
  1
strokes_ogs.tif
176
     0
290
     0
176
     0
 40
1.0
176
     0
 40
1.0
176
     0
  0
VISUALSTYLE
  5
33
102
{ACAD_REACTORS
330
29
102
}
330
29
100
AcDbVisualStyle
  2
Realistic
 70
     8
177
     3
291
     0
 70
    58
 90
        2
176
     1
 90
        3
176
     1
 90
        0
176
     1
 90
        2
176
     1
 40
0.6
176
     1
 40
30.0
176
     1
 62
     7
420
 16777215
176
     1
 90
        0
176
     1
 90
        0
176
     1
 62
     7
176
     1
 62
   257
176
     1
 90
        1
176
     1
 90
        1
176
     1
 40
1.0
176
     1
 90
        8
176
     1
 62
   257
176
     1
 40
1.0
176
     1
 90
        1
176
     1
 90
        6
176
     1
 90
        2
176
     1
 62
     7
176
     1
 90
        3
176
     1
 90
        0
176
     1
 90
        0
176
     1
290
     0
176
     1
 90
       13
176
     1
 40
0.0
176
     1
 90
        0
176
     1
290
     0
176
     1
290
     1
176
     1
290
     1
176
     1
290
     0
176
     1
290
     0
176
     1
290
     0
176
     1
290
     0
176
     1
290
     0
176
     1
290
     0
176
     1
 90
       50
176
     1
 40
0.0
176
     1
 40
1.0
176
     1
 90
        0
176
     1
 62
    18
420
        0
176
     1
 90
       50
176
     1
 90
        3
176
     1
 62
     5
420
      255
176
     1
290
     0
176
     1
 90
       50
176
     1
 90
       50
176
     1
 90
       50
176
     1
290
     0
176
     1
 90
       50
176
     1
 62
   256
176
     0
 40
1.0
176
     0
 90
        2
176
     1
  1
strokes_ogs.tif
176
     1
290
     0
176
     1
 40
1.0
176
     1
 40
1.0
176
     1
  0
VISUALSTYLE
  5
3E
102
{ACAD_REACTORS
330
29
102
}
330
29
100
AcDbVisualStyle
  2
Shaded
 70
    27
177
     3
291
     0
 70
    58
 90
        2
176
     1
 90
        2
176
     1
 90
        1
176
     1
 90
        2
176
     1
 40
0.6
176
     1
 40
30.0
176
     1
 62
     7
420
 16777215
176
     1
 90
        0
176
     1
 90
        4
176
     1
 62
     7
176
     1
 62
   257
176
     1
 90
        1
176
     1
 90
        1
176
     1
 40
1.0
176
     1
 90
        8
176
     1
 62
   257
176
     1
 40
1.0
176
     1
 90
        1
176
     1
 90
        6
176
     1
 90
        2
176
     1
 62
     8
420
  7895160
176
     1
 90
        3
176
     1
 90
        0
176
     1
 90
        0
176
     1
290
     0
176
     1
 90
        5
176
     1
 40
0.0
176
     1
 90
        0
176
     1
290
     0
176
     1
290
     1
176
     1
290
     1
176
     1
290
     0
176
     1
290
     0
176
     1
290
     0
176
     1
290
     0
176
     1
290
     0
176
     1
290
     0
176
     1
 90
       50
176
     1
 40
0.0
176
     1
 40
1.0
176
     1
 90
        0
176
     1
 62
    18
420
        0
176
     1
 90
       50
176
     1
 90
        3
176
     1
 62
     5
420
      255
176
     1
290
     0
176
     1
 90
       50
176
     1
 90
       50
176
     1
 90
       50
176
     1
290
     0
176
     1
 90
       50
176
     1
 62
   256
176
     0
 40
1.0
176
     0
 90
        2
176
     1
  1
strokes_ogs.tif
176
     1
290
     0
176
     1
 40
1.0
176
     1
 40
1.0
176
     1
  0
VISUALSTYLE
  5
3D
102
{ACAD_REACTORS
330
29
102
}
330
29
100
AcDbVisualStyle
  2
Shaded with edges
 70
    26
177
     3
291
     0
 70
    58
 90
        2
176
     1
 90
        2
176
     1
 90
        1
176
     1
 90
        2
176
     1
 40
0.6
176
     1
 40
30.0
176
     1
 62
     7
420
 16777215
176
     1
 90
        1
176
     1
 90
        2
176
     1
 62
     7
176
     1
 62
   257
176
     1
 90
        2
176
     1
 90
        1
176
     1
 40
1.0
176
     1
 90
        8
176
     1
 62
   257
176
     1
 40
1.0
176
     1
 90
        1
176
     1
 90
        6
176
     1
 90
        2
176
     1
 62
     7
176
     1
 90
        3
176
     1
 90
        0
176
     1
 90
        0
176
     1
290
     0
176
     1
 90
        5
176
     1
 40
0.0
176
     1
 90
        0
176
     1
290
     0
176
     1
290
     1
176
     1
290
     1
176
     1
290
     0
176
     1
290
     0
176
     1
290
     0
176
     1
290
     0
176
     1
290
     0
176
     1
290
     0
176
     1
 90
       50
176
     1
 40
0.0
176
     1
 40
1.0
176
     1
 90
        0
176
     1
 62
    18
420
        0
176
     1
 90
       50
176
     1
 90
        3
176
     1
 62
     5
420
      255
176
     1
290
     0
176
     1
 90
       50
176
     1
 90
       50
176
     1
 90
       50
176
     1
290
     0
176
     1
 90
       50
176
     1
 62
   256
176
     0
 40
1.0
176
     0
 90
        2
176
     1
  1
strokes_ogs.tif
176
     1
290
     0
176
     1
 40
1.0
176
     1
 40
1.0
176
     1
  0
VISUALSTYLE
  5
3A
102
{ACAD_REACTORS
330
29
102
}
330
29
100
AcDbVisualStyle
  2
Shades of Gray
 70
    23
177
     3
291
     0
 70
    58
 90
        2
176
     1
 90
        2
176
     1
 90
        3
176
     1
 90
        0
176
     1
 40
0.6
176
     1
 40
30.0
176
     1
 62
     7
420
 16777215
176
     1
 90
        2
176
     1
 90
        2
176
     1
 62
     7
176
     1
 62
     7
176
     1
 90
        1
176
     1
 90
        1
176
     1
 40
40.0
176
     1
 90
        8
176
     1
 62
     7
176
     1
 40
1.0
176
     1
 90
        1
176
     1
 90
        6
176
     1
 90
        2
176
     1
 62
     7
176
     1
 90
        3
176
     1
 90
        0
176
     1
 90
        0
176
     1
290
     0
176
     1
 90
        1
176
     1
 40
0.0
176
     1
 90
        0
176
     1
290
     0
176
     1
290
     1
176
     1
290
     1
176
     1
290
     0
176
     1
290
     0
176
     1
290
     0
176
     1
290
     0
176
     1
290
     0
176
     1
290
     0
176
     1
 90
       50
176
     1
 40
0.0
176
     1
 40
1.0
176
     1
 90
        0
176
     1
 62
    18
420
        0
176
     1
 90
       50
176
     1
 90
        3
176
     1
 62
     5
420
      255
176
     1
290
     0
176
     1
 90
       50
176
     1
 90
       50
176
     1
 90
       50
176
     1
290
     0
176
     1
 90
       50
176
     1
 62
   256
176
     0
 40
1.0
176
     0
 90
        2
176
     1
  1
strokes_ogs.tif
176
     1
290
     0
176
     1
 40
1.0
176
     1
 40
1.0
176
     1
  0
VISUALSTYLE
  5
3B
102
{ACAD_REACTORS
330
29
102
}
330
29
100
AcDbVisualStyle
  2
Sketchy
 70
    24
177
     3
291
     0
 70
    58
 90
        1
176
     1
 90
        2
176
     1
 90
        2
176
     1
 90
        0
176
     1
 40
0.6
176
     1
 40
30.0
176
     1
 62
     7
420
 16777215
176
     1
 90
        2
176
     1
 90
        2
176
     1
 62
     7
176
     1
 62
     7
176
     1
 90
        1
176
     1
 90
        1
176
     1
 40
40.0
176
     1
 90
       11
176
     1
 62
     7
176
     1
 40
1.0
176
     1
 90
        1
176
     1
 90
        6
176
     1
 90
        2
176
     1
 62
     7
176
     1
 90
        6
176
     1
 90
        0
176
     1
 90
        0
176
     1
290
     0
176
     1
 90
        1
176
     1
 40
0.0
176
     1
 90
        0
176
     1
290
     0
176
     1
290
     1
176
     1
290
     1
176
     1
290
     0
176
     1
290
     0
176
     1
290
     0
176
     1
290
     0
176
     1
290
     0
176
     1
290
     0
176
     1
 90
       50
176
     1
 40
0.0
176
     1
 40
1.0
176
     1
 90
        0
176
     1
 62
    18
420
        0
176
     1
 90
       50
176
     1
 90
        3
176
     1
 62
     5
420
      255
176
     1
290
     0
176
     1
 90
       50
176
     1
 90
       50
176
     1
 90
       50
176
     1
290
     0
176
     1
 90
       50
176
     1
 62
   256
176
     0
 40
1.0
176
     0
 90
        2
176
     1
  1
strokes_ogs.tif
176
     1
290
     0
176
     1
 40
1.0
176
     1
 40
1.0
176
     1
  0
VISUALSTYLE
  5
36
102
{ACAD_REACTORS
330
29
102
}
330
29
100
AcDbVisualStyle
  2
Thicken
 70
    13
177
     3
291
     1
 70
    58
 90
        2
176
     1
 90
        2
176
     1
 90
        0
176
     1
 90
        0
176
     1
 40
0.6
176
     1
 40
30.0
176
     1
 62
     7
420
 16777215
176
     1
 90
        1
176
     1
 90
        4
176
     1
 62
     7
176
     1
 62
   257
176
     1
 90
        1
176
     1
 90
        1
176
     1
 40
1.0
176
     1
 90
       12
176
     1
 62
     7
176
     1
 40
1.0
176
     1
 90
        1
176
     1
 90
        6
176
     1
 90
        2
176
     1
 62
     7
176
     1
 90
        5
176
     1
 90
        0
176
     1
 90
        0
176
     1
290
     0
176
     1
 90
        1
176
     1
 40
0.0
176
     1
 90
        0
176
     1
290
     0
176
     1
290
     1
176
     1
290
     1
176
     1
290
     0
176
     1
290
     0
176
     1
290
     0
176
     1
290
     0
176
     1
290
     0
176
     1
290
     0
176
     1
 90
       50
176
     1
 40
0.0
176
     1
 40
1.0
176
     1
 90
        0
176
     1
 62
    18
420
        0
176
     1
 90
       50
176
     1
 90
        3
176
     1
 62
     5
420
      255
176
     1
290
     0
176
     1
 90
       50
176
     1
 90
       50
176
     1
 90
       50
176
     1
290
     0
176
     1
 90
       50
176
     1
 62
   256
176
     0
 40
1.0
176
     0
 90
        2
176
     1
  1
strokes_ogs.tif
176
     1
290
     0
176
     1
 40
1.0
176
     1
 40
1.0
176
     1
  0
VISUALSTYLE
  5
30
102
{ACAD_REACTORS
330
29
102
}
330
29
100
AcDbVisualStyle
  2
Wireframe
 70
     5
177
     3
291
     0
 70
    58
 90
        0
176
     1
 90
        2
176
     1
 90
        0
176
     1
 90
        0
176
     1
 40
0.6
176
     1
 40
30.0
176
     1
 62
     7
420
 16777215
176
     1
 90
        1
176
     1
 90
        4
176
     1
 62
     7
176
     1
 62
   257
176
     1
 90
        1
176
     1
 90
        1
176
     1
 40
1.0
176
     1
 90
        0
176
     1
 62
   257
176
     1
 40
1.0
176
     1
 90
        1
176
     1
 90
        6
176
     1
 90
        2
176
     1
 62
     7
176
     1
 90
        3
176
     1
 90
        0
176
     1
 90
        0
176
     1
290
     0
176
     1
 90
        1
176
     1
 40
0.0
176
     1
 90
        0
176
     1
290
     0
176
     1
290
     1
176
     1
290
     1
176
     1
290
     0
176
     1
290
     0
176
     1
290
     0
176
     1
290
     0
176
     1
290
     0
176
     1
290
     0
176
     1
 90
       50
176
     1
 40
0.0
176
     1
 40
1.0
176
     1
 90
        0
176
     1
 62
    18
420
        0
176
     1
 90
       50
176
     1
 90
        3
176
     1
 62
     5
420
      255
176
     1
290
     0
176
     1
 90
       50
176
     1
 90
       50
176
     1
 90
       50
176
     1
290
     0
176
     1
 90
       50
176
     1
 62
   256
176
     0
 40
1.0
176
     0
 90
        2
176
     1
  1
strokes_ogs.tif
176
     1
290
     0
176
     1
 40
1.0
176
     1
 40
1.0
176
     1
  0
VISUALSTYLE
  5
3C
102
{ACAD_REACTORS
330
29
102
}
330
29
100
AcDbVisualStyle
  2
X-Ray
 70
    25
177
     3
291
     0
 70
    58
 90
        2
176
     1
 90
        2
176
     1
 90
        1
176
     1
 90
        1
176
     1
 40
0.5
176
     1
 40
30.0
176
     1
 62
     7
420
 16777215
176
     1
 90
        1
176
     1
 90
        0
176
     1
 62
     7
176
     1
 62
   257
176
     1
 90
        1
176
     1
 90
        1
176
     1
 40
1.0
176
     1
 90
        8
176
     1
 62
     7
176
     1
 40
1.0
176
     1
 90
        1
176
     1
 90
        6
176
     1
 90
        2
176
     1
 62
     7
176
     1
 90
        3
176
     1
 90
        0
176
     1
 90
        0
176
     1
290
     0
176
     1
 90
       13
176
     1
 40
0.0
176
     1
 90
        0
176
     1
290
     0
176
     1
290
     1
176
     1
290
     1
176
     1
290
     0
176
     1
290
     0
176
     1
290
     0
176
     1
290
     0
176
     1
290
     0
176
     1
290
     0
176
     1
 90
       50
176
     1
 40
0.0
176
     1
 40
1.0
176
     1
 90
        0
176
     1
 62
    18
420
        0
176
     1
 90
       50
176
     1
 90
        3
176
     1
 62
     5
420
      255
176
     1
290
     0
176
     1
 90
       50
176
     1
 90
       50
176
     1
 90
       50
176
     1
290
     0
176
     1
 90
       50
176
     1
 62
   256
176
     0
 40
1.0
176
     0
 90
        2
176
     1
  1
strokes_ogs.tif
176
     1
290
     0
176
     1
 40
1.0
176
     1
 40
1.0
176
     1
  0
DICTIONARYVAR
  5
132
102
{ACAD_REACTORS
330
12D
102
}
330
12D
100
DictionaryVariables
280
     0
  1
1:1
  0
DICTIONARYVAR
  5
12F
102
{ACAD_REACTORS
330
12D
102
}
330
12D
100
DictionaryVariables
280
     0
  1
STANDARD
  0
DICTIONARYVAR
  5
12E
102
{ACAD_REACTORS
330
12D
102
}
330
12D
100
DictionaryVariables
280
     0
  1
STANDARD
  0
DICTIONARYVAR
  5
130
102
{ACAD_REACTORS
330
12D
102
}
330
12D
100
DictionaryVariables
280
     0
  1
Imperial24
  0
DICTIONARYVAR
  5
131
102
{ACAD_REACTORS
330
12D
102
}
330
12D
100
DictionaryVariables
280
     0
  1
Imperial24
  0
DICTIONARY
  5
1A
330
19
100
AcDbDictionary
280
     1
281
     1
  3
BUMPTILE
360
1C
  3
DIFFUSETILE
360
1B
  3
OPACITYTILE
360
1F
  3
REFLECTIONTILE
360
1E
  3
REFRACTIONTILE
360
20
  3
SPECULARTILE
360
1D
  0
DICTIONARY
  5
12
330
11
100
AcDbDictionary
280
     1
281
     1
  3
BUMPTILE
360
14
  3
DIFFUSETILE
360
13
  3
OPACITYTILE
360
17
  3
REFLECTIONTILE
360
16
  3
REFRACTIONTILE
360
18
  3
SPECULARTILE
360
15
  0
DICTIONARY
  5
22
330
21
100
AcDbDictionary
280
     1
281
     1
  3
BUMPTILE
360
24
  3
DIFFUSETILE
360
23
  3
OPACITYTILE
360
27
  3
REFLECTIONTILE
360
26
  3
REFRACTIONTILE
360
28
  3
SPECULARTILE
360
25
  0
DICTIONARY
  5
133
330
65
100
AcDbDictionary
280
     1
281
     1
  3
ACAD_ROUNDTRIP_2008_TABLESTYLE_CELLSTYLEMAP
360
134
  0
XRECORD
  5
1C
102
{ACAD_REACTORS
330
1A
102
}
330
1A
100
AcDbXrecord
280
     1
270
     1
271
     1
  0
XRECORD
  5
1B
102
{ACAD_REACTORS
330
1A
102
}
330
1A
100
AcDbXrecord
280
     1
270
     1
271
     1
  0
XRECORD
  5
1F
102
{ACAD_REACTORS
330
1A
102
}
330
1A
100
AcDbXrecord
280
     1
270
     1
271
     1
  0
XRECORD
  5
1E
102
{ACAD_REACTORS
330
1A
102
}
330
1A
100
AcDbXrecord
280
     1
270
     1
271
     1
  0
XRECORD
  5
20
102
{ACAD_REACTORS
330
1A
102
}
330
1A
100
AcDbXrecord
280
     1
270
     1
271
     1
  0
XRECORD
  5
1D
102
{ACAD_REACTORS
330
1A
102
}
330
1A
100
AcDbXrecord
280
     1
270
     1
271
     1
  0
XRECORD
  5
14
102
{ACAD_REACTORS
330
12
102
}
330
12
100
AcDbXrecord
280
     1
270
     1
271
     1
  0
XRECORD
  5
13
102
{ACAD_REACTORS
330
12
102
}
330
12
100
AcDbXrecord
280
     1
270
     1
271
     1
  0
XRECORD
  5
17
102
{ACAD_REACTORS
330
12
102
}
330
12
100
AcDbXrecord
280
     1
270
     1
271
     1
  0
XRECORD
  5
16
102
{ACAD_REACTORS
330
12
102
}
330
12
100
AcDbXrecord
280
     1
270
     1
271
     1
  0
XRECORD
  5
18
102
{ACAD_REACTORS
330
12
102
}
330
12
100
AcDbXrecord
280
     1
270
     1
271
     1
  0
XRECORD
  5
15
102
{ACAD_REACTORS
330
12
102
}
330
12
100
AcDbXrecord
280
     1
270
     1
271
     1
  0
XRECORD
  5
24
102
{ACAD_REACTORS
330
22
102
}
330
22
100
AcDbXrecord
280
     1
270
     1
271
     1
  0
XRECORD
  5
23
102
{ACAD_REACTORS
330
22
102
}
330
22
100
AcDbXrecord
280
     1
270
     1
271
     1
  0
XRECORD
  5
27
102
{ACAD_REACTORS
330
22
102
}
330
22
100
AcDbXrecord
280
     1
270
     1
271
     1
  0
XRECORD
  5
26
102
{ACAD_REACTORS
330
22
102
}
330
22
100
AcDbXrecord
280
     1
270
     1
271
     1
  0
XRECORD
  5
28
102
{ACAD_REACTORS
330
22
102
}
330
22
100
AcDbXrecord
280
     1
270
     1
271
     1
  0
XRECORD
  5
25
102
{ACAD_REACTORS
330
22
102
}
330
22
100
AcDbXrecord
280
     1
270
     1
271
     1
  0
CELLSTYLEMAP
  5
134
102
{ACAD_REACTORS
330
133
102
}
330
133
100
AcDbCellStyleMap
 90
        3
300
CELLSTYLE
  1
TABLEFORMAT_BEGIN
 90
        5
170
     1
 91
        0
 92
    32768
 62
   257
 93
        1
300
CONTENTFORMAT
  1
CONTENTFORMAT_BEGIN
 90
        0
 91
        0
 92
      512
 93
        0
300

 40
0.0
140
1.0
 94
        5
 62
     0
340
55
144
0.25
309
CONTENTFORMAT_END
171
     0
 94
        0
309
TABLEFORMAT_END
  1
CELLSTYLE_BEGIN
 90
        1
 91
        1
300
_TITLE
309
CELLSTYLE_END
300
CELLSTYLE
  1
TABLEFORMAT_BEGIN
 90
        5
170
     1
 91
        0
 92
        0
 62
   257
 93
        1
300
CONTENTFORMAT
  1
CONTENTFORMAT_BEGIN
 90
        0
 91
        0
 92
      512
 93
        0
300

 40
0.0
140
1.0
 94
        5
 62
     0
340
55
144
0.18
309
CONTENTFORMAT_END
171
     0
 94
        0
309
TABLEFORMAT_END
  1
CELLSTYLE_BEGIN
 90
        2
 91
        1
300
_HEADER
309
CELLSTYLE_END
300
CELLSTYLE
  1
TABLEFORMAT_BEGIN
 90
        5
170
     1
 91
        0
 92
        0
 62
   257
 93
        1
300
CONTENTFORMAT
  1
CONTENTFORMAT_BEGIN
 90
        0
 91
        0
 92
      512
 93
        0
300

 40
0.0
140
1.0
 94
        2
 62
     0
340
55
144
0.18
309
CONTENTFORMAT_END
171
     0
 94
        0
309
TABLEFORMAT_END
  1
CELLSTYLE_BEGIN
 90
        3
 91
        2
300
_DATA
309
CELLSTYLE_END
  0
ENDSEC
  0
EOF
