<?xml version="1.0" encoding="utf-8"?>
<!-- Generator: Adobe Illustrator 23.0.3, SVG Export Plug-In . SVG Version: 6.00 Build 0)  -->
<svg version="1.1" xmlns="http://www.w3.org/2000/svg" xmlns:xlink="http://www.w3.org/1999/xlink" x="0px" y="0px"
	 viewBox="0 0 4851.81 2057.81" style="enable-background:new 0 0 4851.81 2057.81;" xml:space="preserve">
<style type="text/css">
	.st0{fill:none;stroke:#000000;stroke-width:5.8586;stroke-linecap:round;stroke-linejoin:round;stroke-miterlimit:10;}
	.st1{fill:none;stroke:#FF0068;stroke-width:5.8586;stroke-linecap:round;stroke-linejoin:round;stroke-miterlimit:10;}
	.st2{fill:none;stroke:#8C8C8C;stroke-width:5.8586;stroke-linecap:round;stroke-linejoin:round;stroke-miterlimit:10;}
	.st3{clip-path:url(#SVGID_2_);}
	
		.st4{clip-path:url(#SVGID_4_);fill:none;stroke:#000000;stroke-width:5.8586;stroke-linecap:round;stroke-linejoin:round;stroke-miterlimit:10;stroke-dasharray:24.7897,24.7897;}
	.st5{clip-path:url(#SVGID_6_);}
	
		.st6{clip-path:url(#SVGID_8_);fill:none;stroke:#000000;stroke-width:5.8586;stroke-linecap:round;stroke-linejoin:round;stroke-miterlimit:10;stroke-dasharray:24.7897,24.7897;}
	
		.st7{clip-path:url(#SVGID_10_);fill:none;stroke:#000000;stroke-width:5.8586;stroke-linecap:round;stroke-linejoin:round;stroke-miterlimit:10;}
	.st8{fill:none;stroke:#00EAEA;stroke-width:5.8586;stroke-linecap:round;stroke-linejoin:round;stroke-miterlimit:10;}
	.st9{fill:none;}
	.st10{clip-path:url(#SVGID_12_);fill:#8E8E8E;}
	.st11{clip-path:url(#SVGID_14_);}
	
		.st12{clip-path:url(#SVGID_16_);fill:none;stroke:#000000;stroke-width:5.8586;stroke-linecap:round;stroke-linejoin:round;stroke-miterlimit:10;stroke-dasharray:24.7897,24.7897;}
	
		.st13{clip-path:url(#SVGID_18_);fill:none;stroke:#000000;stroke-width:5.8586;stroke-linecap:round;stroke-linejoin:round;stroke-miterlimit:10;}
	
		.st14{opacity:0.2;fill:none;stroke:#000000;stroke-width:5.8586;stroke-linecap:round;stroke-linejoin:round;stroke-miterlimit:10;}
	.st15{fill:#FFFFFF;}
	.st16{fill:#8E8E8E;}
	.st17{opacity:0.12;clip-path:url(#SVGID_20_);}
	
		.st18{clip-path:url(#SVGID_24_);fill:none;stroke:#CECECE;stroke-width:8.8427;stroke-linecap:round;stroke-miterlimit:10;stroke-dasharray:2.9476,17.6854;}
	.st19{clip-path:url(#SVGID_30_);fill:#8E8E8E;}
</style>
<g id="Layer_2">
	<polygon class="st0" points="1260.98,938.89 1089.8,1110.06 1089.8,1412.32 1300.02,1412.32 1300.02,977.94 	"/>
	<polygon class="st0" points="4566.47,1060.66 4492.64,1218.98 4634.88,1218.98 4708.71,1060.66 	"/>
	<polygon class="st0" points="2060.33,1494.14 2090.1,1430.29 2069.7,1401.16 1917.4,1401.16 1657.86,1669.93 1654.36,1693.35 
		1724.7,1703.86 	"/>
	
		<rect x="1551.94" y="951.47" transform="matrix(0.9703 -0.2419 0.2419 0.9703 -229.7067 423.2856)" class="st1" width="113.79" height="391.15"/>
	
		<rect x="1842.83" y="947.41" transform="matrix(0.9925 -0.1219 0.1219 0.9925 -125.1345 240.0378)" class="st1" width="113.79" height="391.15"/>
	<polyline class="st0" points="4566.47,1060.66 2114.4,1002.18 2009.21,1227.78 2049.33,1285.09 2147.14,1282.44 4492.64,1218.98 	
		"/>
	<polyline class="st0" points="2465.89,644.96 2157.44,909.64 2209.2,1004.45 	"/>
	<polyline class="st0" points="2606.78,524.05 2228.49,524.05 1844.52,853.55 1764.51,853.55 1295.93,500.44 1203.54,553.78 
		1490.84,832.21 1490.84,867.77 1367.65,938.89 	"/>
	<polyline class="st0" points="2465.89,644.96 2545.9,644.96 2988.17,921.32 2951.47,1022.15 	"/>
	<polyline class="st0" points="1260.98,938.89 858.67,1341.2 858.67,1447.88 1445.4,1447.88 1577.91,1547.73 1480.23,1757.21 
		1743.99,1796.63 2211.41,1504.56 2451.3,1654.45 2504.81,1539.69 2558.78,1493.38 2370.3,1375.61 2400.36,1311.15 2400.36,1275.59 
			"/>
	<polyline class="st0" points="1300.02,977.94 1300.02,1412.32 1089.8,1412.32 1089.8,1110.06 1260.98,938.89 	"/>
	<polyline class="st0" points="4566.47,1060.66 4708.71,1060.66 4634.88,1218.98 4492.64,1218.98 	"/>
	<polyline class="st0" points="2606.78,524.05 2630.46,524.05 2630.46,559.61 3289.06,971.15 3322.29,971.15 	"/>
	<line class="st0" x1="1367.65" y1="938.89" x2="1260.98" y2="938.89"/>
	<line class="st0" x1="3322.29" y1="971.15" x2="3320.86" y2="1030.96"/>
	<line class="st2" x1="2131.25" y1="1002.18" x2="2222.41" y2="1282.42"/>
	<line class="st2" x1="2180.44" y1="1004.26" x2="2265.4" y2="1280.74"/>
	<line class="st2" x1="2230.74" y1="1004.88" x2="2312.84" y2="1278.84"/>
	<line class="st2" x1="2282.63" y1="1006.11" x2="2361.81" y2="1274.14"/>
	<line class="st2" x1="2339.31" y1="1007.47" x2="2413.18" y2="1274.14"/>
	<line class="st2" x1="2396.58" y1="1008.83" x2="2470.42" y2="1273.56"/>
	<line class="st2" x1="2460.29" y1="1010.35" x2="2527.19" y2="1272.02"/>
	<line class="st2" x1="2528.19" y1="1011.97" x2="2587.09" y2="1270.4"/>
	<line class="st2" x1="2597.76" y1="1013.63" x2="2653.99" y2="1268.59"/>
	<line class="st2" x1="2672.12" y1="1015.4" x2="2724.62" y2="1266.68"/>
	<line class="st2" x1="2751.58" y1="1017.3" x2="2796.82" y2="1264.73"/>
	<line class="st2" x1="2835.31" y1="1019.29" x2="2874.95" y2="1262.62"/>
	<line class="st2" x1="2921.43" y1="1021.35" x2="2958.91" y2="1260.35"/>
	<line class="st2" x1="3015.28" y1="1023.59" x2="3044.55" y2="1258.03"/>
	<line class="st2" x1="3135.46" y1="1255.57" x2="3114.64" y2="1025.96"/>
	<line class="st2" x1="3232.89" y1="1252.93" x2="3217.37" y2="1028.41"/>
	<line class="st2" x1="3335.62" y1="1250.15" x2="3329.68" y2="1035.64"/>
	<line class="st2" x1="3447.93" y1="1033.91" x2="3446.32" y2="1247.16"/>
	<line class="st2" x1="3572.03" y1="1036.87" x2="3563" y2="1244"/>
	<line class="st2" x1="3702.58" y1="1039.98" x2="3684.43" y2="1240.72"/>
	<line class="st2" x1="3841.68" y1="1043.3" x2="3813.91" y2="1237.21"/>
	<line class="st2" x1="3989.36" y1="1046.82" x2="3950.89" y2="1233.51"/>
	<line class="st2" x1="4143.46" y1="1047.77" x2="4094.24" y2="1229.32"/>
	<line class="st2" x1="4308.22" y1="1054.42" x2="4246.71" y2="1225.51"/>
	<g>
		<defs>
			<rect id="SVGID_1_" x="-2756.64" y="-1982.88" width="11287.58" height="6346.16"/>
		</defs>
		<clipPath id="SVGID_2_">
			<use xlink:href="#SVGID_1_"  style="overflow:visible;"/>
		</clipPath>
		<g class="st3">
			<defs>
				<rect id="SVGID_3_" x="2984.97" y="918.32" width="235.64" height="11.28"/>
			</defs>
			<clipPath id="SVGID_4_">
				<use xlink:href="#SVGID_3_"  style="overflow:visible;"/>
			</clipPath>
			<line class="st4" x1="3217.69" y1="926.67" x2="2987.9" y2="921.24"/>
		</g>
	</g>
	<g>
		<defs>
			<rect id="SVGID_5_" x="-2756.64" y="-1982.88" width="11287.58" height="6346.16"/>
		</defs>
		<clipPath id="SVGID_6_">
			<use xlink:href="#SVGID_5_"  style="overflow:visible;"/>
		</clipPath>
		<g class="st5">
			<defs>
				<rect id="SVGID_7_" x="2542.77" y="556.67" width="90.4" height="91.18"/>
			</defs>
			<clipPath id="SVGID_8_">
				<use xlink:href="#SVGID_7_"  style="overflow:visible;"/>
			</clipPath>
			<line class="st6" x1="2545.7" y1="644.93" x2="2630.25" y2="559.6"/>
		</g>
	</g>
	<polyline class="st0" points="3217.69,926.67 3132.53,873.46 3043.85,876.75 2660.07,636.92 2650.84,572.47 2630.25,559.6 	"/>
	<g>
		<defs>
			<rect id="SVGID_9_" x="2647.91" y="569.54" width="487.55" height="310.14"/>
		</defs>
		<clipPath id="SVGID_10_">
			<use xlink:href="#SVGID_9_"  style="overflow:visible;"/>
		</clipPath>
		<polygon class="st7" points="3132.53,873.46 2650.84,572.46 2660.07,636.92 3043.86,876.74 		"/>
	</g>
	<path class="st8" d="M1543.22,1466.92c2.78,19.43,20.79,32.92,40.23,30.14c19.44-2.78,32.94-20.79,30.15-40.22
		c-2.78-19.43-20.79-32.91-40.23-30.13C1553.93,1429.49,1540.43,1447.5,1543.22,1466.92z"/>
	<path class="st8" d="M1586.88,1617.85c2.78,19.43,20.79,32.92,40.23,30.14c19.44-2.78,32.94-20.79,30.15-40.22
		c-2.78-19.42-20.79-32.91-40.23-30.13C1597.59,1580.42,1584.09,1598.43,1586.88,1617.85z"/>
	<path class="st8" d="M1657.72,1515.6c2.78,19.43,20.79,32.92,40.23,30.14c19.44-2.78,32.94-20.79,30.15-40.22
		c-2.78-19.43-20.79-32.91-40.23-30.13C1668.43,1478.17,1654.93,1496.17,1657.72,1515.6z"/>
	<path class="st8" d="M2156.43,1416.12c2.78,19.43,20.79,32.92,40.23,30.14c19.44-2.78,32.94-20.79,30.15-40.22
		c-2.78-19.42-20.79-32.91-40.23-30.13C2167.14,1378.68,2153.64,1396.69,2156.43,1416.12z"/>
	<polyline class="st0" points="485.04,1394.39 485.04,977.86 485.04,942.63 485.04,938.82 367.71,938.82 367.71,942.92 
		462.65,942.92 462.65,1109.96 485.04,1109.96 	"/>
	<polygon class="st0" points="485.04,1341.06 485.04,1109.97 462.65,1109.97 462.65,942.92 367.71,942.92 367.71,1341.06 	"/>
	<polyline class="st0" points="485.04,1447.72 485.04,1341.06 367.71,1341.06 367.71,1447.72 371.82,1547.56 480.94,1547.56 
		485.04,1447.72 485.04,1341.06 	"/>
	<polygon class="st0" points="480.94,1547.56 371.82,1547.56 378.06,1740.9 474.7,1740.9 	"/>
	<polygon class="st0" points="474.7,1740.9 378.06,1740.9 378.76,1759.64 474.01,1759.64 	"/>
	<polygon class="st0" points="474,1759.64 378.76,1759.64 381.25,1796.42 471.52,1796.42 	"/>
	<polyline class="st0" points="485.04,1341.06 485.04,1109.97 462.65,1109.97 462.65,942.92 367.71,942.92 	"/>
	<polyline class="st0" points="485.04,942.63 485.04,977.86 485.04,1394.39 	"/>
	<polyline class="st0" points="378.76,1759.64 381.25,1796.42 471.51,1796.42 474,1759.64 	"/>
	<polyline class="st0" points="485.04,921.25 474.13,644.93 470.54,559.6 468.99,524.05 468.34,524.05 381.08,524.05 380.56,524.05 
		379.32,559.6 367.71,873.46 367.71,881.19 367.71,921.25 	"/>
	<polyline class="st0" points="381.37,553.77 467.98,553.77 465.8,500.44 383.11,500.44 370.19,853.49 	"/>
	<line class="st0" x1="462.65" y1="942.63" x2="485.04" y2="942.63"/>
	<line class="st0" x1="485.04" y1="938.82" x2="485.04" y2="909.57"/>
	<line class="st0" x1="367.72" y1="909.58" x2="367.72" y2="938.82"/>
	<line class="st0" x1="370.04" y1="867.71" x2="482.14" y2="867.71"/>
	<line class="st0" x1="371.28" y1="832.16" x2="480.59" y2="832.16"/>
	<rect x="2204.15" y="806.21" class="st9" width="1366" height="768"/>
	<g>
		<defs>
			<rect id="SVGID_11_" x="2272.05" y="1082.5" width="667.21" height="97.55"/>
		</defs>
		<clipPath id="SVGID_12_">
			<use xlink:href="#SVGID_11_"  style="overflow:visible;"/>
		</clipPath>
		<polygon class="st10" points="2428.43,1180.05 2407.58,1180.05 2407.58,1135.44 2351.91,1076.84 2367.02,1062.47 2428.43,1127.12 
					"/>
		<rect x="2762.03" y="1082.5" class="st10" width="20.85" height="97.55"/>
		<path class="st10" d="M2561.13,1118.96l-14.42-15.6h-87.01v-20.86h96.14l20.6,22.31c-0.19,4.79-0.29,7.48-0.49,12.27l-2.54,2.36
			C2568.61,1119.26,2565.92,1119.15,2561.13,1118.96"/>
		<path class="st10" d="M2555.84,1180.05h-96.13v-20.85h87.01l14.41-15.61c4.8-0.19,7.49-0.3,12.28-0.48l2.55,2.35
			c0.19,4.79,0.3,7.48,0.49,12.28L2555.84,1180.05z"/>
		<path class="st10" d="M2542.59,1141.7h-82.89v-20.85h82.89c3.4,3.39,5.3,5.3,8.68,8.68v3.48
			C2547.89,1136.41,2545.99,1138.31,2542.59,1141.7"/>
		<path class="st10" d="M2915.58,1118.96l-14.42-15.6h-87.01v-20.86h96.14l20.6,22.31c-0.19,4.79-0.29,7.48-0.48,12.27l-2.55,2.36
			C2923.06,1119.26,2920.37,1119.15,2915.58,1118.96"/>
		<path class="st10" d="M2910.29,1180.05h-96.13v-20.85h87.01l14.41-15.61c4.8-0.19,7.49-0.3,12.28-0.48l2.55,2.35
			c0.19,4.79,0.3,7.48,0.49,12.28L2910.29,1180.05z"/>
		<path class="st10" d="M2707.08,1118.96l-14.42-15.6h-87.01v-20.86h96.14l20.6,22.31c-0.19,4.79-0.29,7.48-0.49,12.27l-2.54,2.36
			C2714.56,1119.26,2711.87,1119.15,2707.08,1118.96"/>
		<path class="st10" d="M2730.55,1180.05h-12.16c-3.39-3.4-5.3-5.3-8.68-8.68v-11.23l-17.03-18.44h-87.02v-20.85h96.14l28.76,31.13
			V1180.05z"/>
		<rect x="2292.9" y="1126.02" class="st10" width="62.55" height="20.85"/>
		<rect x="2272.05" y="1082.5" class="st10" width="20.85" height="97.55"/>
	</g>
	<g>
		<path d="M1169.52,183.71h-20.31v-7.34h49.45v7.34h-20.42v59.46h-8.72V183.71z"/>
		<path d="M1263.2,209.08c0,22.99-13.97,35.18-31.02,35.18c-17.64,0-30.03-13.67-30.03-33.89c0-21.21,13.19-35.08,31.02-35.08
			C1251.41,175.29,1263.2,189.26,1263.2,209.08z M1211.37,210.17c0,14.27,7.73,27.05,21.31,27.05c13.68,0,21.41-12.58,21.41-27.75
			c0-13.28-6.94-27.15-21.31-27.15C1218.51,182.32,1211.37,195.5,1211.37,210.17z"/>
		<path d="M1274.43,177.17c4.16-0.69,9.62-1.29,16.55-1.29c8.53,0,14.77,1.98,18.74,5.55c3.66,3.17,5.84,8.03,5.84,13.97
			c0,6.04-1.78,10.8-5.16,14.27c-4.55,4.85-11.99,7.33-20.41,7.33c-2.58,0-4.96-0.1-6.94-0.59v26.76h-8.63V177.17z M1283.06,209.38
			c1.88,0.5,4.26,0.69,7.13,0.69c10.41,0,16.75-5.06,16.75-14.27c0-8.82-6.25-13.08-15.76-13.08c-3.77,0-6.64,0.3-8.13,0.69V209.38z
			"/>
	</g>
	<g>
		<path d="M293.73,176.37h35.97v7.23h-27.35v22.2h25.27v7.13h-25.27v30.23h-8.63V176.37z"/>
		<path d="M342.02,177.27c4.37-0.89,10.6-1.39,16.55-1.39c9.22,0,15.16,1.69,19.33,5.45c3.37,2.97,5.25,7.53,5.25,12.69
			c0,8.82-5.55,14.67-12.59,17.05v0.29c5.16,1.79,8.23,6.54,9.81,13.48c2.18,9.32,3.77,15.76,5.16,18.33h-8.92
			c-1.1-1.88-2.58-7.63-4.46-15.96c-1.99-9.22-5.55-12.69-13.38-12.98h-8.13v28.94h-8.63V177.27z M350.65,207.69h8.82
			c9.22,0,15.07-5.06,15.07-12.69c0-8.62-6.25-12.39-15.36-12.49c-4.16,0-7.13,0.4-8.52,0.79V207.69z"/>
		<path d="M452.45,209.08c0,22.99-13.97,35.18-31.02,35.18c-17.64,0-30.03-13.67-30.03-33.89c0-21.21,13.19-35.08,31.02-35.08
			C440.66,175.29,452.45,189.26,452.45,209.08z M400.62,210.17c0,14.27,7.73,27.05,21.31,27.05c13.68,0,21.41-12.58,21.41-27.75
			c0-13.28-6.94-27.15-21.31-27.15C407.76,182.32,400.62,195.5,400.62,210.17z"/>
		<path d="M463.68,243.17v-66.8h9.42l21.41,33.8c4.95,7.83,8.82,14.86,11.99,21.7l0.19-0.1c-0.79-8.92-0.98-17.04-0.98-27.45v-27.94
			h8.13v66.8h-8.72l-21.21-33.89c-4.66-7.44-9.12-15.07-12.49-22.3l-0.3,0.1c0.5,8.42,0.69,16.45,0.69,27.55v28.54H463.68z"/>
		<path d="M541.62,183.71h-20.31v-7.34h49.45v7.34h-20.42v59.46h-8.72V183.71z"/>
	</g>
	<g>
		<defs>
			<rect id="SVGID_13_" x="-2756.64" y="-1982.88" width="11287.58" height="6346.16"/>
		</defs>
		<clipPath id="SVGID_14_">
			<use xlink:href="#SVGID_13_"  style="overflow:visible;"/>
		</clipPath>
		<g class="st11">
			<defs>
				<rect id="SVGID_15_" x="4489.2" y="1057.64" width="79.67" height="164.16"/>
			</defs>
			<clipPath id="SVGID_16_">
				<use xlink:href="#SVGID_15_"  style="overflow:visible;"/>
			</clipPath>
			<line class="st12" x1="4565.94" y1="1060.57" x2="4492.13" y2="1218.87"/>
		</g>
		<g class="st11">
			<defs>
				<rect id="SVGID_17_" x="1748.56" y="1518.72" width="387.77" height="267.04"/>
			</defs>
			<clipPath id="SVGID_18_">
				<use xlink:href="#SVGID_17_"  style="overflow:visible;"/>
			</clipPath>
			<polygon class="st13" points="1761.37,1710.05 1751.5,1736.47 1765.67,1782.84 2133.41,1553.04 2062.89,1521.64 			"/>
		</g>
	</g>
	<rect x="2204.15" y="806.21" class="st9" width="1366" height="768"/>
	<g>
		<g id="POLYLINE">
			<path class="st1" d="M1539.32,1335.63l4.29,16.47c1.98,7.58,9.72,12.12,17.3,10.14l8.23-2.15c7.58-1.98,12.12-9.72,10.14-17.3
				l-4.29-16.47"/>
		</g>
		<g id="POLYLINE_1_">
			<polyline class="st1" points="1575,1326.33 1551.22,1235.13 1515.78,1099.19 1492,1007.99 			"/>
		</g>
		<g id="POLYLINE_2_">
			<polyline class="st1" points="1456.32,1017.29 1480.1,1108.49 1515.54,1244.43 1539.32,1335.63 			"/>
		</g>
		<g id="POLYLINE_3_">
			<path class="st1" d="M1492,1007.99l-4.29-16.47c-1.98-7.58-9.72-12.12-17.3-10.14l-8.23,2.15c-7.58,1.98-12.12,9.72-10.14,17.3
				l4.29,16.47"/>
		</g>
		<g id="POLYLINE_4_">
			<path class="st1" d="M1539.32,1335.63l4.29,16.47c1.98,7.58,9.72,12.12,17.3,10.14l8.23-2.15c7.58-1.98,12.12-9.72,10.14-17.3
				l-4.29-16.47"/>
		</g>
		<g id="POLYLINE_5_">
			<path class="st1" d="M1492,1007.99l-4.29-16.47c-1.98-7.58-9.72-12.12-17.3-10.14l-8.23,2.15c-7.58,1.98-12.12,9.72-10.14,17.3
				l4.29,16.47"/>
		</g>
		<g id="POLYLINE_6_">
			<polyline class="st1" points="1456.32,1017.29 1480.1,1108.49 1515.54,1244.43 1539.32,1335.63 			"/>
		</g>
		<g id="POLYLINE_7_">
			<polyline class="st1" points="1575,1326.33 1551.22,1235.13 1515.78,1099.19 1492,1007.99 			"/>
		</g>
		<g id="CIRCLE">
			<path class="st1" d="M1560.38,1343.33c2.27-0.59,4.6,0.77,5.19,3.04s-0.77,4.6-3.04,5.19c-2.27,0.59-4.6-0.77-5.19-3.04
				C1556.74,1346.24,1558.11,1343.92,1560.38,1343.33L1560.38,1343.33z"/>
		</g>
		<g id="SPLINE">
			<path class="st1" d="M1542.78,1337.66c-0.34,0.09-0.73,0.12-1.1,0.06s-0.74-0.18-1.05-0.36c-0.31-0.18-0.6-0.43-0.83-0.74
				s-0.39-0.65-0.48-1"/>
		</g>
		<g id="LINE">
			<line class="st1" x1="1572.97" y1="1329.79" x2="1542.78" y2="1337.66"/>
		</g>
		<g id="SPLINE_1_">
			<path class="st1" d="M1575,1326.33c0.09,0.34,0.12,0.73,0.06,1.1s-0.18,0.74-0.36,1.05c-0.18,0.31-0.43,0.6-0.74,0.83
				c-0.3,0.23-0.65,0.39-1,0.48"/>
		</g>
		<g id="CIRCLE_1_">
			<path class="st1" d="M1468.8,992.06c2.27-0.59,4.6,0.77,5.19,3.04c0.59,2.27-0.77,4.6-3.04,5.19c-2.27,0.59-4.6-0.77-5.19-3.04
				C1465.16,994.97,1466.52,992.65,1468.8,992.06L1468.8,992.06z"/>
		</g>
		<g id="SPLINE_2_">
			<path class="st1" d="M1456.32,1017.29c-0.09-0.34-0.12-0.73-0.06-1.1c0.05-0.37,0.18-0.74,0.36-1.05
				c0.18-0.31,0.43-0.6,0.74-0.83c0.3-0.23,0.65-0.39,1-0.48"/>
		</g>
		<g id="LINE_1_">
			<line class="st1" x1="1458.35" y1="1013.83" x2="1488.54" y2="1005.96"/>
		</g>
		<g id="SPLINE_3_">
			<path class="st1" d="M1488.54,1005.96c0.34-0.09,0.73-0.12,1.1-0.06c0.37,0.05,0.74,0.18,1.05,0.36c0.31,0.18,0.6,0.43,0.83,0.74
				c0.23,0.3,0.39,0.65,0.48,1"/>
		</g>
	</g>
	<g>
		<rect x="1088.98" y="990.7" class="st8" width="271.8" height="49.94"/>
		<path class="st8" d="M1360.77,990.7c13.79,0,24.97,11.18,24.97,24.97c0,13.79-11.18,24.97-24.97,24.97"/>
		<line class="st8" x1="1159.96" y1="990.7" x2="1159.96" y2="1040.64"/>
		<circle class="st8" cx="1339.37" cy="1015.67" r="12.84"/>
		<circle class="st8" cx="1305.95" cy="1015.67" r="12.84"/>
		<path class="st8" d="M1305.95,1028.51c7.09,0,12.84-5.75,12.84-12.84s-5.75-12.84-12.84-12.84h-44.11
			c-7.09,0-12.84,5.75-12.84,12.84s5.75,12.84,12.84,12.84h42.22"/>
	</g>
	<g>
		<rect x="1124.82" y="1059.06" class="st8" width="271.8" height="49.94"/>
		<path class="st8" d="M1396.62,1059.06c13.79,0,24.97,11.18,24.97,24.97c0,13.79-11.18,24.97-24.97,24.97"/>
		<line class="st8" x1="1195.81" y1="1059.06" x2="1195.81" y2="1108.99"/>
		<circle class="st8" cx="1375.22" cy="1084.02" r="12.84"/>
		<circle class="st8" cx="1341.8" cy="1084.02" r="12.84"/>
		<path class="st8" d="M1341.8,1096.87c7.09,0,12.84-5.75,12.84-12.84c0-7.09-5.75-12.84-12.84-12.84h-44.11
			c-7.09,0-12.84,5.75-12.84,12.84c0,7.09,5.75,12.84,12.84,12.84h42.22"/>
	</g>
	<g>
		<rect x="1149.31" y="1119.15" class="st8" width="271.8" height="49.94"/>
		<path class="st8" d="M1421.1,1119.15c13.79,0,24.97,11.18,24.97,24.97s-11.18,24.97-24.97,24.97"/>
		<line class="st8" x1="1220.29" y1="1119.15" x2="1220.29" y2="1169.09"/>
		<circle class="st8" cx="1399.7" cy="1144.12" r="12.84"/>
		<circle class="st8" cx="1366.28" cy="1144.12" r="12.84"/>
		<path class="st8" d="M1366.28,1156.96c7.09,0,12.84-5.75,12.84-12.84s-5.75-12.84-12.84-12.84h-44.11
			c-7.09,0-12.84,5.75-12.84,12.84s5.75,12.84,12.84,12.84h42.22"/>
	</g>
	<g>
		<rect x="1176.73" y="1179.24" class="st8" width="271.8" height="49.94"/>
		<path class="st8" d="M1448.53,1179.24c13.79,0,24.97,11.18,24.97,24.97c0,13.79-11.18,24.97-24.97,24.97"/>
		<line class="st8" x1="1247.71" y1="1179.24" x2="1247.71" y2="1229.18"/>
		<circle class="st8" cx="1427.12" cy="1204.21" r="12.84"/>
		<circle class="st8" cx="1393.71" cy="1204.21" r="12.84"/>
		<path class="st8" d="M1393.71,1217.05c7.09,0,12.84-5.75,12.84-12.84c0-7.09-5.75-12.84-12.84-12.84h-44.11
			c-7.09,0-12.84,5.75-12.84,12.84c0,7.09,5.75,12.84,12.84,12.84h42.22"/>
	</g>
	<g>
		<rect x="1211.41" y="1249.17" class="st8" width="271.8" height="49.94"/>
		<path class="st8" d="M1483.2,1249.17c13.79,0,24.97,11.18,24.97,24.97c0,13.79-11.18,24.97-24.97,24.97"/>
		<line class="st8" x1="1282.39" y1="1249.17" x2="1282.39" y2="1299.11"/>
		<circle class="st8" cx="1461.8" cy="1274.14" r="12.84"/>
		<circle class="st8" cx="1428.38" cy="1274.14" r="12.84"/>
		<path class="st8" d="M1428.38,1286.98c7.09,0,12.84-5.75,12.84-12.84c0-7.09-5.75-12.84-12.84-12.84h-44.11
			c-7.09,0-12.84,5.75-12.84,12.84c0,7.09,5.75,12.84,12.84,12.84h42.22"/>
	</g>
	<line class="st14" x1="1339.37" y1="1015.67" x2="4583.08" y2="1079.87"/>
	<line class="st14" x1="1375.22" y1="1084.02" x2="4573.09" y2="1113.4"/>
	<line class="st14" x1="1399.7" y1="1144.12" x2="4541.7" y2="1144.08"/>
	<line class="st14" x1="1413.05" y1="1216.69" x2="4542.97" y2="1173.32"/>
	<line class="st14" x1="1461.8" y1="1274.14" x2="4516.02" y2="1200.43"/>
	<circle class="st8" cx="1763.89" cy="1408.31" r="35.54"/>
	<circle cx="2209.86" cy="1171.81" r="5.35"/>
	<circle cx="2227.18" cy="1227.57" r="5.35"/>
	<circle cx="2372.78" cy="1223.97" r="5.35"/>
	<circle cx="2484.87" cy="1222.22" r="5.35"/>
	<circle cx="2613.28" cy="1219.81" r="5.35"/>
	<circle cx="2751.58" cy="1216.87" r="5.35"/>
	<circle cx="2976.3" cy="1071.33" r="5.35"/>
	<circle cx="3276.45" cy="1075.61" r="5.35"/>
	<circle cx="3508.39" cy="1079.62" r="5.35"/>
	<circle cx="3766.8" cy="1082.41" r="5.35"/>
	<circle cx="4056.25" cy="1087.76" r="5.35"/>
	<circle cx="2981.65" cy="1119.91" r="5.35"/>
	<line class="st0" x1="4479.45" y1="1058.5" x2="4407.27" y2="1221.16"/>
	<line class="st0" x1="4499.27" y1="1058.98" x2="4433.44" y2="1220.45"/>
	<circle class="st0" cx="4535.1" cy="1075.61" r="10.7"/>
	<circle class="st0" cx="4521.91" cy="1109.41" r="10.7"/>
	<circle class="st0" cx="4505.42" cy="1141.04" r="10.7"/>
	<circle class="st0" cx="4492.07" cy="1169.36" r="10.7"/>
	<circle class="st0" cx="4477.06" cy="1200.91" r="10.7"/>
	<line class="st14" x1="2951.2" y1="1022.06" x2="3320.53" y2="1030.87"/>
	<rect x="3032.02" y="950.73" class="st15" width="58.61" height="45.58"/>
	<g>
		<rect x="3043.08" y="964.2" class="st16" width="7.3" height="21.89"/>
		<path class="st16" d="M3021.19,942.31v58.38h7.3v-51.08h36.49v51.08h-36.49v7.3h72.97v-65.67H3021.19z M3094.16,1000.69h-14.59
			v-51.08h14.59V1000.69z"/>
	</g>
	<g id="POLYLINE_11_">
		<polygon class="st0" points="2087.36,826.32 2135.13,882.04 2270.24,766.22 2135.13,882.04 2270.24,766.22 2222.47,710.5 		"/>
	</g>
	<g id="POLYLINE_10_">
		<polyline class="st0" points="2185.79,838.61 2188.71,842.01 2222.49,813.06 2219.57,809.65 		"/>
	</g>
	<g id="LINE_13_">
		<line class="st0" x1="2229.43" y1="523.48" x2="1845.08" y2="852.97"/>
	</g>
	<g id="LINE_10_">
		<line class="st0" x1="2158.29" y1="909.07" x2="2467.04" y2="644.38"/>
	</g>
	<g>
		<g>
			<defs>
				<rect id="SVGID_19_" x="2368.16" y="1267.76" width="1761.05" height="872.2"/>
			</defs>
			<clipPath id="SVGID_20_">
				<use xlink:href="#SVGID_19_"  style="overflow:visible;"/>
			</clipPath>
			<g class="st17">
				<g>
					<defs>
						<rect id="SVGID_21_" x="1758.76" y="681.45" width="2138.46" height="1466.41"/>
					</defs>
					<clipPath id="SVGID_22_">
						<use xlink:href="#SVGID_21_"  style="overflow:visible;"/>
					</clipPath>
				</g>
			</g>
		</g>
		<g>
			<defs>
				<rect id="SVGID_23_" x="2368.16" y="1267.76" width="1761.05" height="872.2"/>
			</defs>
			<clipPath id="SVGID_24_">
				<use xlink:href="#SVGID_23_"  style="overflow:visible;"/>
			</clipPath>
			<path class="st18" d="M2720.76,1723.84c543.32-523.07,764.02-78.22,932.85-49.02"/>
			<path class="st18" d="M2720.76,1723.84c448.55-354.81,560.47-51.57,895.97-22.9"/>
			<path class="st18" d="M2735.68,1741.27c283.5-200.53,277.17,211.67,872.41-4.61"/>
			<path class="st18" d="M2771.98,1740.12c324.99-13.83,422.95,331.14,840.14,26.89"/>
		</g>
		<g>
			<defs>
				<rect id="SVGID_25_" x="2703.07" y="1644.01" width="1131.87" height="165.48"/>
			</defs>
			<clipPath id="SVGID_26_">
				<use xlink:href="#SVGID_25_"  style="overflow:visible;"/>
			</clipPath>
		</g>
		<g>
			<defs>
				<rect id="SVGID_27_" x="2703.07" y="1644.01" width="1131.87" height="165.48"/>
			</defs>
			<clipPath id="SVGID_28_">
				<use xlink:href="#SVGID_27_"  style="overflow:visible;"/>
			</clipPath>
		</g>
		<polygon class="st16" points="2847.68,1644.01 2932.99,1733.81 2932.99,1809.49 2968.35,1809.49 2968.35,1719.69 2896.46,1644.01 
					"/>
		<rect x="3534.29" y="1644.01" class="st16" width="35.37" height="165.48"/>
		<g>
			<defs>
				<rect id="SVGID_29_" x="2703.07" y="1644.01" width="1131.87" height="165.48"/>
			</defs>
			<clipPath id="SVGID_30_">
				<use xlink:href="#SVGID_29_"  style="overflow:visible;"/>
			</clipPath>
			<path class="st19" d="M3193.48,1705.85l-24.46-26.47h-147.61v-35.37h163.09l34.96,37.84c-0.32,8.13-0.5,12.69-0.83,20.83l-4.33,4
				C3206.17,1706.35,3201.61,1706.17,3193.48,1705.85"/>
			<path class="st19" d="M3184.5,1809.49h-163.09v-35.37h147.61l24.46-26.47c8.13-0.32,12.69-0.5,20.82-0.83l4.33,4
				c0.32,8.14,0.5,12.7,0.83,20.83L3184.5,1809.49z"/>
			<path class="st19" d="M3162.03,1744.43h-140.61v-35.37h140.61c5.76,5.76,8.98,8.98,14.74,14.74v5.9
				C3171.01,1735.45,3167.78,1738.68,3162.03,1744.43"/>
			<path class="st19" d="M3794.79,1705.85l-24.46-26.47h-147.61v-35.37h163.09l34.96,37.84c-0.32,8.13-0.5,12.69-0.83,20.83l-4.33,4
				C3807.48,1706.35,3802.92,1706.17,3794.79,1705.85"/>
			<path class="st19" d="M3785.81,1809.49h-163.09v-35.37h147.61l24.46-26.47c8.13-0.32,12.69-0.5,20.82-0.83l4.33,4
				c0.32,8.14,0.5,12.7,0.83,20.83L3785.81,1809.49z"/>
			<path class="st19" d="M3441.08,1705.85l-24.46-26.47h-147.61v-35.37h163.09l34.96,37.84c-0.32,8.13-0.5,12.69-0.83,20.83l-4.33,4
				C3453.77,1706.35,3449.21,1706.17,3441.08,1705.85"/>
			<path class="st19" d="M3480.88,1809.49h-20.63c-5.76-5.76-8.98-8.98-14.74-14.74v-19.04l-28.89-31.27h-147.61v-35.37h163.09
				l48.79,52.81V1809.49z"/>
			<rect x="2738.45" y="1717.82" class="st19" width="106.11" height="35.37"/>
			<rect x="2703.08" y="1644.01" class="st19" width="35.37" height="165.48"/>
		</g>
	</g>
</g>
<g id="Layer_3">
</g>
</svg>
